<?xml version="1.0" encoding="UTF-8"?>
<!--Generator: Apple Native CoreSVG 175-->
<!DOCTYPE svg
PUBLIC "-//W3C//DTD SVG 1.1//EN"
       "http://www.w3.org/Graphics/SVG/1.1/DTD/svg11.dtd">
<svg version="1.1" xmlns="http://www.w3.org/2000/svg" xmlns:xlink="http://www.w3.org/1999/xlink" width="3300" height="2200">
 <!--glyph: "uni10062F.medium", point size: 100.0, font version: "17.0d11e1", template writer version: "65.1"-->
 <style>.multicolor-0:systemRedColor {fill:#FF3B30;opacity:1.0}

.hierarchical-0:secondary {fill:#4D4D4D}
.hierarchical-1:primary {fill:#212121}

.SFSymbolsPreviewFF3B30 {fill:#FF3B30;opacity:1.0}
</style>
 <g id="Notes">
  <rect height="2200" id="artboard" style="fill:white;opacity:1" width="3300" x="0" y="0"/>
  <line style="fill:none;stroke:black;opacity:1;stroke-width:0.5;" x1="263" x2="3036" y1="292" y2="292"/>
  <text style="stroke:none;fill:black;font-family:sans-serif;font-size:13;font-weight:bold;" transform="matrix(1 0 0 1 263 322)">Weight/Scale Variations</text>
  <text style="stroke:none;fill:black;font-family:sans-serif;font-size:13;text-anchor:middle;" transform="matrix(1 0 0 1 559.711 322)">Ultralight</text>
  <text style="stroke:none;fill:black;font-family:sans-serif;font-size:13;text-anchor:middle;" transform="matrix(1 0 0 1 856.422 322)">Thin</text>
  <text style="stroke:none;fill:black;font-family:sans-serif;font-size:13;text-anchor:middle;" transform="matrix(1 0 0 1 1153.13 322)">Light</text>
  <text style="stroke:none;fill:black;font-family:sans-serif;font-size:13;text-anchor:middle;" transform="matrix(1 0 0 1 1449.84 322)">Regular</text>
  <text style="stroke:none;fill:black;font-family:sans-serif;font-size:13;text-anchor:middle;" transform="matrix(1 0 0 1 1746.56 322)">Medium</text>
  <text style="stroke:none;fill:black;font-family:sans-serif;font-size:13;text-anchor:middle;" transform="matrix(1 0 0 1 2043.27 322)">Semibold</text>
  <text style="stroke:none;fill:black;font-family:sans-serif;font-size:13;text-anchor:middle;" transform="matrix(1 0 0 1 2339.98 322)">Bold</text>
  <text style="stroke:none;fill:black;font-family:sans-serif;font-size:13;text-anchor:middle;" transform="matrix(1 0 0 1 2636.69 322)">Heavy</text>
  <text style="stroke:none;fill:black;font-family:sans-serif;font-size:13;text-anchor:middle;" transform="matrix(1 0 0 1 2933.4 322)">Black</text>
  <line style="fill:none;stroke:black;opacity:1;stroke-width:0.5;" x1="263" x2="3036" y1="1903" y2="1903"/>
  <g transform="matrix(1 0 0 1 263 1933)">
   <path d="M9.24805 0.830078Q10.8691 0.830078 12.2949 0.214844Q13.7207-0.400391 14.8096-1.49414Q15.8984-2.58789 16.5186-4.01367Q17.1387-5.43945 17.1387-7.05078Q17.1387-8.66211 16.5186-10.0879Q15.8984-11.5137 14.8047-12.6074Q13.7109-13.7012 12.2852-14.3164Q10.8594-14.9316 9.23828-14.9316Q7.62695-14.9316 6.20117-14.3164Q4.77539-13.7012 3.69141-12.6074Q2.60742-11.5137 1.9873-10.0879Q1.36719-8.66211 1.36719-7.05078Q1.36719-5.43945 1.9873-4.01367Q2.60742-2.58789 3.69629-1.49414Q4.78516-0.400391 6.21094 0.214844Q7.63672 0.830078 9.24805 0.830078ZM9.24805-0.654297Q7.91992-0.654297 6.7627-1.14746Q5.60547-1.64062 4.73145-2.51953Q3.85742-3.39844 3.36426-4.56055Q2.87109-5.72266 2.87109-7.05078Q2.87109-8.37891 3.35938-9.54102Q3.84766-10.7031 4.72168-11.582Q5.5957-12.4609 6.75293-12.9541Q7.91016-13.4473 9.23828-13.4473Q10.5762-13.4473 11.7334-12.9541Q12.8906-12.4609 13.7695-11.582Q14.6484-10.7031 15.1465-9.54102Q15.6445-8.37891 15.6445-7.05078Q15.6445-5.72266 15.1514-4.56055Q14.6582-3.39844 13.7842-2.51953Q12.9102-1.64062 11.748-1.14746Q10.5859-0.654297 9.24805-0.654297ZM5.6543-7.05078Q5.6543-6.72852 5.85938-6.52832Q6.06445-6.32812 6.40625-6.32812L8.51562-6.32812L8.51562-4.20898Q8.51562-3.88672 8.71094-3.67676Q8.90625-3.4668 9.23828-3.4668Q9.56055-3.4668 9.77051-3.67676Q9.98047-3.88672 9.98047-4.20898L9.98047-6.32812L12.0898-6.32812Q12.4219-6.32812 12.627-6.52832Q12.832-6.72852 12.832-7.05078Q12.832-7.38281 12.627-7.58789Q12.4219-7.79297 12.0898-7.79297L9.98047-7.79297L9.98047-9.90234Q9.98047-10.2344 9.77051-10.4443Q9.56055-10.6543 9.23828-10.6543Q8.90625-10.6543 8.71094-10.4443Q8.51562-10.2344 8.51562-9.90234L8.51562-7.79297L6.40625-7.79297Q6.06445-7.79297 5.85938-7.58789Q5.6543-7.38281 5.6543-7.05078Z"/>
  </g>
  <g transform="matrix(1 0 0 1 281.867 1933)">
   <path d="M11.709 2.91016Q13.75 2.91016 15.5518 2.12891Q17.3535 1.34766 18.7305-0.0292969Q20.1074-1.40625 20.8887-3.20801Q21.6699-5.00977 21.6699-7.05078Q21.6699-9.0918 20.8887-10.8936Q20.1074-12.6953 18.7305-14.0723Q17.3535-15.4492 15.5469-16.2305Q13.7402-17.0117 11.6992-17.0117Q9.6582-17.0117 7.85645-16.2305Q6.05469-15.4492 4.68262-14.0723Q3.31055-12.6953 2.5293-10.8936Q1.74805-9.0918 1.74805-7.05078Q1.74805-5.00977 2.5293-3.20801Q3.31055-1.40625 4.6875-0.0292969Q6.06445 1.34766 7.86621 2.12891Q9.66797 2.91016 11.709 2.91016ZM11.709 1.25Q9.98047 1.25 8.47656 0.605469Q6.97266-0.0390625 5.83496-1.17676Q4.69727-2.31445 4.05762-3.81836Q3.41797-5.32227 3.41797-7.05078Q3.41797-8.7793 4.05762-10.2832Q4.69727-11.7871 5.83008-12.9297Q6.96289-14.0723 8.4668-14.7119Q9.9707-15.3516 11.6992-15.3516Q13.4277-15.3516 14.9316-14.7119Q16.4355-14.0723 17.5781-12.9297Q18.7207-11.7871 19.3652-10.2832Q20.0098-8.7793 20.0098-7.05078Q20.0098-5.32227 19.3701-3.81836Q18.7305-2.31445 17.5928-1.17676Q16.4551-0.0390625 14.9463 0.605469Q13.4375 1.25 11.709 1.25ZM7.17773-7.05078Q7.17773-6.69922 7.41211-6.47461Q7.64648-6.25 8.01758-6.25L10.8887-6.25L10.8887-3.36914Q10.8887-2.99805 11.1133-2.76855Q11.3379-2.53906 11.6895-2.53906Q12.0605-2.53906 12.29-2.76855Q12.5195-2.99805 12.5195-3.36914L12.5195-6.25L15.4004-6.25Q15.7715-6.25 16.001-6.47461Q16.2305-6.69922 16.2305-7.05078Q16.2305-7.42188 16.001-7.65137Q15.7715-7.88086 15.4004-7.88086L12.5195-7.88086L12.5195-10.752Q12.5195-11.1328 12.29-11.3623Q12.0605-11.5918 11.6895-11.5918Q11.3379-11.5918 11.1133-11.3574Q10.8887-11.123 10.8887-10.752L10.8887-7.88086L8.01758-7.88086Q7.63672-7.88086 7.40723-7.65137Q7.17773-7.42188 7.17773-7.05078Z"/>
  </g>
  <g transform="matrix(1 0 0 1 305.646 1933)">
   <path d="M14.9707 5.66406Q17.0605 5.66406 18.96 5.01465Q20.8594 4.36523 22.4512 3.19336Q24.043 2.02148 25.2197 0.429688Q26.3965-1.16211 27.0459-3.06641Q27.6953-4.9707 27.6953-7.05078Q27.6953-9.14062 27.0459-11.04Q26.3965-12.9395 25.2197-14.5312Q24.043-16.123 22.4512-17.2998Q20.8594-18.4766 18.9551-19.126Q17.0508-19.7754 14.9609-19.7754Q12.8711-19.7754 10.9717-19.126Q9.07227-18.4766 7.48535-17.2998Q5.89844-16.123 4.72168-14.5312Q3.54492-12.9395 2.90039-11.04Q2.25586-9.14062 2.25586-7.05078Q2.25586-4.9707 2.90527-3.06641Q3.55469-1.16211 4.72656 0.429688Q5.89844 2.02148 7.49023 3.19336Q9.08203 4.36523 10.9814 5.01465Q12.8809 5.66406 14.9707 5.66406ZM14.9707 3.84766Q13.1641 3.84766 11.5283 3.2959Q9.89258 2.74414 8.53516 1.74805Q7.17773 0.751953 6.17676-0.610352Q5.17578-1.97266 4.62891-3.6084Q4.08203-5.24414 4.08203-7.05078Q4.08203-8.86719 4.62891-10.5029Q5.17578-12.1387 6.17188-13.501Q7.16797-14.8633 8.52539-15.8594Q9.88281-16.8555 11.5186-17.4023Q13.1543-17.9492 14.9609-17.9492Q16.7773-17.9492 18.4131-17.4023Q20.0488-16.8555 21.4111-15.8594Q22.7734-14.8633 23.7695-13.501Q24.7656-12.1387 25.3174-10.5029Q25.8691-8.86719 25.8691-7.05078Q25.8789-5.24414 25.332-3.6084Q24.7852-1.97266 23.7842-0.610352Q22.7832 0.751953 21.4209 1.74805Q20.0586 2.74414 18.4229 3.2959Q16.7871 3.84766 14.9707 3.84766ZM9.19922-7.05078Q9.19922-6.66992 9.45801-6.4209Q9.7168-6.17188 10.1172-6.17188L14.0625-6.17188L14.0625-2.2168Q14.0625-1.81641 14.3115-1.55762Q14.5605-1.29883 14.9512-1.29883Q15.3516-1.29883 15.6104-1.55273Q15.8691-1.80664 15.8691-2.2168L15.8691-6.17188L19.8242-6.17188Q20.2246-6.17188 20.4785-6.4209Q20.7324-6.66992 20.7324-7.05078Q20.7324-7.46094 20.4785-7.71484Q20.2246-7.96875 19.8242-7.96875L15.8691-7.96875L15.8691-11.9141Q15.8691-12.3242 15.6104-12.583Q15.3516-12.8418 14.9512-12.8418Q14.5605-12.8418 14.3115-12.583Q14.0625-12.3242 14.0625-11.9141L14.0625-7.96875L10.1172-7.96875Q9.70703-7.96875 9.45312-7.71484Q9.19922-7.46094 9.19922-7.05078Z"/>
  </g>
  <text style="stroke:none;fill:black;font-family:sans-serif;font-size:13;font-weight:bold;" transform="matrix(1 0 0 1 263 1953)">Design Variations</text>
  <text style="stroke:none;fill:black;font-family:sans-serif;font-size:13;" transform="matrix(1 0 0 1 263 1971)">Symbols are supported in up to nine weights and three scales.</text>
  <text style="stroke:none;fill:black;font-family:sans-serif;font-size:13;" transform="matrix(1 0 0 1 263 1989)">For optimal layout with text and other symbols, vertically align</text>
  <text style="stroke:none;fill:black;font-family:sans-serif;font-size:13;" transform="matrix(1 0 0 1 263 2007)">symbols with the adjacent text.</text>
  <line style="fill:none;stroke:#00AEEF;stroke-width:0.5;opacity:1.0;" x1="776" x2="776" y1="1919" y2="1933"/>
  <g transform="matrix(1 0 0 1 776 1933)">
   <path d="M3.31055 0.15625Q3.70117 0.15625 3.91602-0.00976562Q4.13086-0.175781 4.26758-0.585938L5.52734-4.0332L11.2891-4.0332L12.5488-0.585938Q12.6855-0.175781 12.9004-0.00976562Q13.1152 0.15625 13.4961 0.15625Q13.8867 0.15625 14.1162-0.0585938Q14.3457-0.273438 14.3457-0.644531Q14.3457-0.869141 14.2383-1.17188L9.6582-13.3691Q9.48242-13.8184 9.17969-14.043Q8.87695-14.2676 8.4082-14.2676Q7.5-14.2676 7.17773-13.3789L2.59766-1.16211Q2.49023-0.859375 2.49023-0.634766Q2.49023-0.263672 2.70996-0.0537109Q2.92969 0.15625 3.31055 0.15625ZM6.00586-5.51758L8.37891-12.0898L8.42773-12.0898L10.8008-5.51758Z"/>
  </g>
  <line style="fill:none;stroke:#00AEEF;stroke-width:0.5;opacity:1.0;" x1="793.197" x2="793.197" y1="1919" y2="1933"/>
  <text style="stroke:none;fill:black;font-family:sans-serif;font-size:13;font-weight:bold;" transform="matrix(1 0 0 1 776 1953)">Margins</text>
  <text style="stroke:none;fill:black;font-family:sans-serif;font-size:13;" transform="matrix(1 0 0 1 776 1971)">Leading and trailing margins on the left and right side of each symbol</text>
  <text style="stroke:none;fill:black;font-family:sans-serif;font-size:13;" transform="matrix(1 0 0 1 776 1989)">can be adjusted by modifying the x-location of the margin guidelines.</text>
  <text style="stroke:none;fill:black;font-family:sans-serif;font-size:13;" transform="matrix(1 0 0 1 776 2007)">Modifications are automatically applied proportionally to all</text>
  <text style="stroke:none;fill:black;font-family:sans-serif;font-size:13;" transform="matrix(1 0 0 1 776 2025)">scales and weights.</text>
  <g transform="matrix(1 0 0 1 1289 1933)">
   <path d="M2.8418 1.86523L4.54102 3.57422Q5.18555 4.22852 5.90332 4.17969Q6.62109 4.13086 7.31445 3.35938L18.0078-8.42773L17.041-9.4043L6.42578 2.27539Q6.16211 2.57812 5.89355 2.61719Q5.625 2.65625 5.27344 2.30469L4.10156 1.14258Q3.75 0.791016 3.79395 0.522461Q3.83789 0.253906 4.14062-0.0195312L15.6152-10.8203L14.6387-11.7871L3.04688-0.898438Q2.30469-0.214844 2.25098 0.498047Q2.19727 1.21094 2.8418 1.86523ZM9.25781-16.3281Q8.94531-16.0254 8.90625-15.6348Q8.86719-15.2441 9.04297-14.9512Q9.21875-14.6777 9.55566-14.541Q9.89258-14.4043 10.3809-14.5215Q11.4746-14.7754 12.5977-14.7314Q13.7207-14.6875 14.7949-13.9844L14.209-12.5293Q13.9551-11.9043 14.0674-11.4404Q14.1797-10.9766 14.5801-10.5664L16.875-8.25195Q17.2363-7.88086 17.5781-7.82227Q17.9199-7.76367 18.3398-7.8418L19.4043-8.03711L20.0684-7.36328L20.0293-6.80664Q20-6.43555 20.1221-6.12305Q20.2441-5.81055 20.6055-5.44922L21.3672-4.70703Q21.7285-4.3457 22.1533-4.33105Q22.5781-4.31641 22.9297-4.66797L25.8398-7.58789Q26.1914-7.93945 26.1816-8.35449Q26.1719-8.76953 25.8105-9.13086L25.0391-9.89258Q24.6875-10.2539 24.3799-10.3857Q24.0723-10.5176 23.7109-10.4883L23.1348-10.4395L22.4902-11.0742L22.7344-12.1973Q22.832-12.6172 22.6953-12.9834Q22.5586-13.3496 22.1191-13.7891L19.9219-15.9766Q18.6719-17.2168 17.2607-17.8369Q15.8496-18.457 14.4189-18.4814Q12.9883-18.5059 11.665-17.959Q10.3418-17.4121 9.25781-16.3281ZM10.752-15.957Q11.6602-16.6211 12.7002-16.9043Q13.7402-17.1875 14.8047-17.085Q15.8691-16.9824 16.8701-16.5137Q17.8711-16.0449 18.7012-15.2051L21.1328-12.793Q21.3086-12.6172 21.3525-12.4512Q21.3965-12.2852 21.3379-12.0312L21.0156-10.5469L22.5195-9.0625L23.5059-9.12109Q23.6914-9.13086 23.7891-9.09668Q23.8867-9.0625 24.0332-8.91602L24.6094-8.33984L22.168-5.89844L21.5918-6.47461Q21.4453-6.62109 21.4062-6.71875Q21.3672-6.81641 21.377-7.01172L21.4453-7.98828L19.9512-9.47266L18.4277-9.21875Q18.1836-9.16992 18.042-9.2041Q17.9004-9.23828 17.7148-9.41406L15.7129-11.416Q15.5176-11.5918 15.4932-11.7529Q15.4688-11.9141 15.5859-12.1875L16.4648-14.2773Q15.293-15.3711 13.8281-15.791Q12.3633-16.2109 10.8398-15.7617Q10.7227-15.7324 10.6885-15.8057Q10.6543-15.8789 10.752-15.957Z"/>
  </g>
  <text style="stroke:none;fill:black;font-family:sans-serif;font-size:13;font-weight:bold;" transform="matrix(1 0 0 1 1289 1953)">Exporting</text>
  <text style="stroke:none;fill:black;font-family:sans-serif;font-size:13;" transform="matrix(1 0 0 1 1289 1971)">Symbols should be outlined when exporting to ensure the</text>
  <text style="stroke:none;fill:black;font-family:sans-serif;font-size:13;" transform="matrix(1 0 0 1 1289 1989)">design is preserved when submitting to Xcode.</text>
  <text id="template-version" style="stroke:none;fill:black;font-family:sans-serif;font-size:13;text-anchor:end;" transform="matrix(1 0 0 1 3036 1933)">Template v.3.0</text>
  <text style="stroke:none;fill:black;font-family:sans-serif;font-size:13;text-anchor:end;" transform="matrix(1 0 0 1 3036 1951)">Requires Xcode 13 or greater</text>
  <text id="descriptive-name" style="stroke:none;fill:black;font-family:sans-serif;font-size:13;text-anchor:end;" transform="matrix(1 0 0 1 3036 1969)">Generated from exclamationmark.octagon</text>
  <text style="stroke:none;fill:black;font-family:sans-serif;font-size:13;text-anchor:end;" transform="matrix(1 0 0 1 3036 1987)">Typeset at 100 points</text>
  <text style="stroke:none;fill:black;font-family:sans-serif;font-size:13;" transform="matrix(1 0 0 1 263 726)">Small</text>
  <text style="stroke:none;fill:black;font-family:sans-serif;font-size:13;" transform="matrix(1 0 0 1 263 1156)">Medium</text>
  <text style="stroke:none;fill:black;font-family:sans-serif;font-size:13;" transform="matrix(1 0 0 1 263 1586)">Large</text>
 </g>
 <g id="Guides">
  <g id="H-reference" style="fill:#27AAE1;stroke:none;" transform="matrix(1 0 0 1 339 696)">
   <path d="M0.976562 0L3.66211 0L29.3457-67.1387L30.0293-67.1387L30.0293-70.459L28.125-70.459ZM11.6699-24.4629L46.9727-24.4629L46.2402-26.709L12.4512-26.709ZM55.127 0L57.7637 0L30.6152-70.459L29.4434-70.459L29.4434-67.1387Z"/>
  </g>
  <line id="Baseline-S" style="fill:none;stroke:#27AAE1;opacity:1;stroke-width:0.5;" x1="263" x2="3036" y1="696" y2="696"/>
  <line id="Capline-S" style="fill:none;stroke:#27AAE1;opacity:1;stroke-width:0.5;" x1="263" x2="3036" y1="625.541" y2="625.541"/>
  <g id="H-reference" style="fill:#27AAE1;stroke:none;" transform="matrix(1 0 0 1 339 1126)">
   <path d="M0.976562 0L3.66211 0L29.3457-67.1387L30.0293-67.1387L30.0293-70.459L28.125-70.459ZM11.6699-24.4629L46.9727-24.4629L46.2402-26.709L12.4512-26.709ZM55.127 0L57.7637 0L30.6152-70.459L29.4434-70.459L29.4434-67.1387Z"/>
  </g>
  <line id="Baseline-M" style="fill:none;stroke:#27AAE1;opacity:1;stroke-width:0.5;" x1="263" x2="3036" y1="1126" y2="1126"/>
  <line id="Capline-M" style="fill:none;stroke:#27AAE1;opacity:1;stroke-width:0.5;" x1="263" x2="3036" y1="1055.54" y2="1055.54"/>
  <g id="H-reference" style="fill:#27AAE1;stroke:none;" transform="matrix(1 0 0 1 339 1556)">
   <path d="M0.976562 0L3.66211 0L29.3457-67.1387L30.0293-67.1387L30.0293-70.459L28.125-70.459ZM11.6699-24.4629L46.9727-24.4629L46.2402-26.709L12.4512-26.709ZM55.127 0L57.7637 0L30.6152-70.459L29.4434-70.459L29.4434-67.1387Z"/>
  </g>
  <line id="Baseline-L" style="fill:none;stroke:#27AAE1;opacity:1;stroke-width:0.5;" x1="263" x2="3036" y1="1556" y2="1556"/>
  <line id="Capline-L" style="fill:none;stroke:#27AAE1;opacity:1;stroke-width:0.5;" x1="263" x2="3036" y1="1485.54" y2="1485.54"/>
  <line id="left-margin-Ultralight-S" style="fill:none;stroke:#00AEEF;stroke-width:0.5;opacity:1.0;" x1="513.202" x2="513.202" y1="600.785" y2="720.121"/>
  <line id="right-margin-Ultralight-S" style="fill:none;stroke:#00AEEF;stroke-width:0.5;opacity:1.0;" x1="606.22" x2="606.22" y1="600.785" y2="720.121"/>
  <line id="left-margin-Thin-S" style="fill:none;stroke:#00AEEF;stroke-width:0.5;opacity:1.0;" x1="809.425" x2="809.425" y1="600.785" y2="720.121"/>
  <line id="right-margin-Thin-S" style="fill:none;stroke:#00AEEF;stroke-width:0.5;opacity:1.0;" x1="903.419" x2="903.419" y1="600.785" y2="720.121"/>
  <line id="left-margin-Light-S" style="fill:none;stroke:#00AEEF;stroke-width:0.5;opacity:1.0;" x1="1105.16" x2="1105.16" y1="600.785" y2="720.121"/>
  <line id="right-margin-Light-S" style="fill:none;stroke:#00AEEF;stroke-width:0.5;opacity:1.0;" x1="1201.11" x2="1201.11" y1="600.785" y2="720.121"/>
  <line id="left-margin-Regular-S" style="fill:none;stroke:#00AEEF;stroke-width:0.5;opacity:1.0;" x1="1401.14" x2="1401.14" y1="600.785" y2="720.121"/>
  <line id="right-margin-Regular-S" style="fill:none;stroke:#00AEEF;stroke-width:0.5;opacity:1.0;" x1="1498.55" x2="1498.55" y1="600.785" y2="720.121"/>
  <line id="left-margin-Medium-S" style="fill:none;stroke:#00AEEF;stroke-width:0.5;opacity:1.0;" x1="1697.17" x2="1697.17" y1="600.785" y2="720.121"/>
  <line id="right-margin-Medium-S" style="fill:none;stroke:#00AEEF;stroke-width:0.5;opacity:1.0;" x1="1795.95" x2="1795.95" y1="600.785" y2="720.121"/>
  <line id="left-margin-Semibold-S" style="fill:none;stroke:#00AEEF;stroke-width:0.5;opacity:1.0;" x1="1993.36" x2="1993.36" y1="600.785" y2="720.121"/>
  <line id="right-margin-Semibold-S" style="fill:none;stroke:#00AEEF;stroke-width:0.5;opacity:1.0;" x1="2093.17" x2="2093.17" y1="600.785" y2="720.121"/>
  <line id="left-margin-Bold-S" style="fill:none;stroke:#00AEEF;stroke-width:0.5;opacity:1.0;" x1="2289.39" x2="2289.39" y1="600.785" y2="720.121"/>
  <line id="right-margin-Bold-S" style="fill:none;stroke:#00AEEF;stroke-width:0.5;opacity:1.0;" x1="2390.56" x2="2390.56" y1="600.785" y2="720.121"/>
  <line id="left-margin-Heavy-S" style="fill:none;stroke:#00AEEF;stroke-width:0.5;opacity:1.0;" x1="2585.13" x2="2585.13" y1="600.785" y2="720.121"/>
  <line id="right-margin-Heavy-S" style="fill:none;stroke:#00AEEF;stroke-width:0.5;opacity:1.0;" x1="2688.25" x2="2688.25" y1="600.785" y2="720.121"/>
  <line id="left-margin-Black-S" style="fill:none;stroke:#00AEEF;stroke-width:0.5;opacity:1.0;" x1="2880.96" x2="2880.96" y1="600.785" y2="720.121"/>
  <line id="right-margin-Black-S" style="fill:none;stroke:#00AEEF;stroke-width:0.5;opacity:1.0;" x1="2985.84" x2="2985.84" y1="600.785" y2="720.121"/>
  <line id="left-margin-Ultralight-M" style="fill:none;stroke:#00AEEF;stroke-width:0.5;opacity:1.0;" x1="500.556" x2="500.556" y1="1030.79" y2="1150.12"/>
  <line id="right-margin-Ultralight-M" style="fill:none;stroke:#00AEEF;stroke-width:0.5;opacity:1.0;" x1="618.866" x2="618.866" y1="1030.79" y2="1150.12"/>
  <line id="left-margin-Thin-M" style="fill:none;stroke:#00AEEF;stroke-width:0.5;opacity:1.0;" x1="796.705" x2="796.705" y1="1030.79" y2="1150.12"/>
  <line id="right-margin-Thin-M" style="fill:none;stroke:#00AEEF;stroke-width:0.5;opacity:1.0;" x1="916.139" x2="916.139" y1="1030.79" y2="1150.12"/>
  <line id="left-margin-Light-M" style="fill:none;stroke:#00AEEF;stroke-width:0.5;opacity:1.0;" x1="1092.32" x2="1092.32" y1="1030.79" y2="1150.12"/>
  <line id="right-margin-Light-M" style="fill:none;stroke:#00AEEF;stroke-width:0.5;opacity:1.0;" x1="1213.95" x2="1213.95" y1="1030.79" y2="1150.12"/>
  <line id="left-margin-Regular-M" style="fill:none;stroke:#00AEEF;stroke-width:0.5;opacity:1.0;" x1="1388.2" x2="1388.2" y1="1030.79" y2="1150.12"/>
  <line id="right-margin-Regular-M" style="fill:none;stroke:#00AEEF;stroke-width:0.5;opacity:1.0;" x1="1511.49" x2="1511.49" y1="1030.79" y2="1150.12"/>
  <line id="left-margin-Medium-M" style="fill:none;stroke:#00AEEF;stroke-width:0.5;opacity:1.0;" x1="1684.03" x2="1684.03" y1="1030.79" y2="1150.12"/>
  <line id="right-margin-Medium-M" style="fill:none;stroke:#00AEEF;stroke-width:0.5;opacity:1.0;" x1="1809.08" x2="1809.08" y1="1030.79" y2="1150.12"/>
  <line id="left-margin-Semibold-M" style="fill:none;stroke:#00AEEF;stroke-width:0.5;opacity:1.0;" x1="1980.06" x2="1980.06" y1="1030.79" y2="1150.12"/>
  <line id="right-margin-Semibold-M" style="fill:none;stroke:#00AEEF;stroke-width:0.5;opacity:1.0;" x1="2106.47" x2="2106.47" y1="1030.79" y2="1150.12"/>
  <line id="left-margin-Bold-M" style="fill:none;stroke:#00AEEF;stroke-width:0.5;opacity:1.0;" x1="2275.89" x2="2275.89" y1="1030.79" y2="1150.12"/>
  <line id="right-margin-Bold-M" style="fill:none;stroke:#00AEEF;stroke-width:0.5;opacity:1.0;" x1="2404.06" x2="2404.06" y1="1030.79" y2="1150.12"/>
  <line id="left-margin-Heavy-M" style="fill:none;stroke:#00AEEF;stroke-width:0.5;opacity:1.0;" x1="2571.31" x2="2571.31" y1="1030.79" y2="1150.12"/>
  <line id="right-margin-Heavy-M" style="fill:none;stroke:#00AEEF;stroke-width:0.5;opacity:1.0;" x1="2702.07" x2="2702.07" y1="1030.79" y2="1150.12"/>
  <line id="left-margin-Black-M" style="fill:none;stroke:#00AEEF;stroke-width:0.5;opacity:1.0;" x1="2866.87" x2="2866.87" y1="1030.79" y2="1150.12"/>
  <line id="right-margin-Black-M" style="fill:none;stroke:#00AEEF;stroke-width:0.5;opacity:1.0;" x1="2999.93" x2="2999.93" y1="1030.79" y2="1150.12"/>
  <line id="left-margin-Ultralight-L" style="fill:none;stroke:#00AEEF;stroke-width:0.5;opacity:1.0;" x1="483.612" x2="483.612" y1="1460.79" y2="1580.12"/>
  <line id="right-margin-Ultralight-L" style="fill:none;stroke:#00AEEF;stroke-width:0.5;opacity:1.0;" x1="635.81" x2="635.81" y1="1460.79" y2="1580.12"/>
  <line id="left-margin-Thin-L" style="fill:none;stroke:#00AEEF;stroke-width:0.5;opacity:1.0;" x1="779.713" x2="779.713" y1="1460.79" y2="1580.12"/>
  <line id="right-margin-Thin-L" style="fill:none;stroke:#00AEEF;stroke-width:0.5;opacity:1.0;" x1="933.131" x2="933.131" y1="1460.79" y2="1580.12"/>
  <line id="left-margin-Light-L" style="fill:none;stroke:#00AEEF;stroke-width:0.5;opacity:1.0;" x1="1075.2" x2="1075.2" y1="1460.79" y2="1580.12"/>
  <line id="right-margin-Light-L" style="fill:none;stroke:#00AEEF;stroke-width:0.5;opacity:1.0;" x1="1231.06" x2="1231.06" y1="1460.79" y2="1580.12"/>
  <line id="left-margin-Regular-L" style="fill:none;stroke:#00AEEF;stroke-width:0.5;opacity:1.0;" x1="1370.99" x2="1370.99" y1="1460.79" y2="1580.12"/>
  <line id="right-margin-Regular-L" style="fill:none;stroke:#00AEEF;stroke-width:0.5;opacity:1.0;" x1="1528.7" x2="1528.7" y1="1460.79" y2="1580.12"/>
  <line id="left-margin-Medium-L" style="fill:none;stroke:#00AEEF;stroke-width:0.5;opacity:1.0;" x1="1666.65" x2="1666.65" y1="1460.79" y2="1580.12"/>
  <line id="right-margin-Medium-L" style="fill:none;stroke:#00AEEF;stroke-width:0.5;opacity:1.0;" x1="1826.46" x2="1826.46" y1="1460.79" y2="1580.12"/>
  <line id="left-margin-Semibold-L" style="fill:none;stroke:#00AEEF;stroke-width:0.5;opacity:1.0;" x1="1962.55" x2="1962.55" y1="1460.79" y2="1580.12"/>
  <line id="right-margin-Semibold-L" style="fill:none;stroke:#00AEEF;stroke-width:0.5;opacity:1.0;" x1="2123.98" x2="2123.98" y1="1460.79" y2="1580.12"/>
  <line id="left-margin-Bold-L" style="fill:none;stroke:#00AEEF;stroke-width:0.5;opacity:1.0;" x1="2258.19" x2="2258.19" y1="1460.79" y2="1580.12"/>
  <line id="right-margin-Bold-L" style="fill:none;stroke:#00AEEF;stroke-width:0.5;opacity:1.0;" x1="2421.76" x2="2421.76" y1="1460.79" y2="1580.12"/>
  <line id="left-margin-Heavy-L" style="fill:none;stroke:#00AEEF;stroke-width:0.5;opacity:1.0;" x1="2553.36" x2="2553.36" y1="1460.79" y2="1580.12"/>
  <line id="right-margin-Heavy-L" style="fill:none;stroke:#00AEEF;stroke-width:0.5;opacity:1.0;" x1="2720.01" x2="2720.01" y1="1460.79" y2="1580.12"/>
  <line id="left-margin-Black-L" style="fill:none;stroke:#00AEEF;stroke-width:0.5;opacity:1.0;" x1="2848.68" x2="2848.68" y1="1460.79" y2="1580.12"/>
  <line id="right-margin-Black-L" style="fill:none;stroke:#00AEEF;stroke-width:0.5;opacity:1.0;" x1="3018.12" x2="3018.12" y1="1460.79" y2="1580.12"/>
 </g>
 <g id="Symbols">
  <g id="Black-L" transform="matrix(1 0 0 1 2848.68 1556)">
   <path class="multicolor-0:systemRedColor hierarchical-0:secondary SFSymbolsPreviewFF3B30" d="M64.7461 30.3223L104.688 30.3223Q108.936 30.3223 112.524 29.2969Q116.113 28.2715 119.116 26.2695Q122.119 24.2676 124.609 21.3379L146.924-4.73633Q149.463-7.76367 150.879-10.2783Q152.295-12.793 152.832-15.625Q153.369-18.457 153.369-22.4121L153.369-48.0957Q153.369-52.0508 152.832-54.8828Q152.295-57.7148 150.879-60.2295Q149.463-62.7441 146.924-65.7715L124.609-91.8457Q122.119-94.7754 119.116-96.7773Q116.113-98.7793 112.524-99.8047Q108.936-100.83 104.688-100.83L64.7461-100.83Q60.498-100.83 56.9092-99.8047Q53.3203-98.7793 50.3174-96.7773Q47.3145-94.7754 44.8242-91.8457L22.5098-65.7715Q19.9707-62.7441 18.5791-60.2295Q17.1875-57.7148 16.626-54.8828Q16.0645-52.0508 16.0645-48.0957L16.0645-22.4121Q16.0645-18.457 16.626-15.625Q17.1875-12.793 18.5791-10.2783Q19.9707-7.76367 22.5098-4.73633L44.8242 21.3379Q47.3145 24.2676 50.3174 26.2695Q53.3203 28.2715 56.9092 29.2969Q60.498 30.3223 64.7461 30.3223ZM66.7969 10.6445Q64.4043 10.6445 62.6953 10.1807Q60.9863 9.7168 59.668 8.74023Q58.3496 7.76367 57.0801 6.29883L39.7949-13.623Q37.9883-15.7227 37.3779-17.7246Q36.7676-19.7266 36.7676-23.2422L36.7676-47.2656Q36.7676-50.7812 37.3779-52.7832Q37.9883-54.7852 39.7949-56.8848L57.0801-76.8066Q58.3496-78.2715 59.668-79.248Q60.9863-80.2246 62.6953-80.6885Q64.4043-81.1523 66.7969-81.1523L102.637-81.1523Q105.029-81.1523 106.738-80.6885Q108.447-80.2246 109.766-79.248Q111.084-78.2715 112.354-76.8066L129.639-56.8848Q131.445-54.7852 132.056-52.7832Q132.666-50.7812 132.666-47.2656L132.666-23.2422Q132.666-19.7266 132.056-17.7246Q131.445-15.7227 129.639-13.623L112.354 6.29883Q111.084 7.76367 109.766 8.74023Q108.447 9.7168 106.738 10.1807Q105.029 10.6445 102.637 10.6445Z"/>
   <path class="multicolor-0:systemRedColor hierarchical-1:primary SFSymbolsPreviewFF3B30" d="M84.8145-27.6367Q92.334-27.6367 92.7246-35.3027L93.8477-56.8848Q94.0918-60.8398 91.5283-63.3057Q88.9648-65.7715 84.7656-65.7715Q80.5176-65.7715 77.9785-63.3301Q75.4395-60.8887 75.6836-56.9336L76.7578-35.1562Q77.1484-27.6367 84.8145-27.6367ZM84.8145-5.22461Q88.916-5.22461 91.6016-7.44629Q94.2871-9.66797 94.2871-13.5254Q94.2871-17.334 91.6016-19.5801Q88.916-21.8262 84.8145-21.8262Q80.7617-21.8262 78.0273-19.6045Q75.293-17.3828 75.293-13.5254Q75.293-9.66797 78.0273-7.44629Q80.7617-5.22461 84.8145-5.22461Z"/>
  </g>
  <g id="Heavy-L" transform="matrix(1 0 0 1 2553.36 1556)">
   <path class="multicolor-0:systemRedColor hierarchical-0:secondary SFSymbolsPreviewFF3B30" d="M63.7207 29.1504L102.93 29.1504Q107.178 29.1504 110.62 28.1494Q114.062 27.1484 116.846 25.2197Q119.629 23.291 122.07 20.5078L144.482-5.27344Q146.924-8.10547 148.242-10.4736Q149.561-12.8418 150.073-15.5273Q150.586-18.2129 150.586-21.9727L150.586-48.5352Q150.586-52.2949 150.073-54.9805Q149.561-57.666 148.242-60.0098Q146.924-62.3535 144.482-65.2344L122.07-91.0156Q119.629-93.7988 116.846-95.7275Q114.062-97.6562 110.62-98.6572Q107.178-99.6582 102.93-99.6582L63.7207-99.6582Q59.4727-99.6582 56.0547-98.6572Q52.6367-97.6562 49.8291-95.7275Q47.0215-93.7988 44.5801-91.0156L22.168-65.2344Q19.7754-62.3535 18.457-60.0098Q17.1387-57.666 16.6016-54.9805Q16.0645-52.2949 16.0645-48.5352L16.0645-21.9727Q16.0645-18.2129 16.6016-15.5273Q17.1387-12.8418 18.457-10.4736Q19.7754-8.10547 22.168-5.27344L44.5801 20.5078Q47.0215 23.291 49.8291 25.2197Q52.6367 27.1484 56.0547 28.1494Q59.4727 29.1504 63.7207 29.1504ZM65.918 12.1094Q63.2812 12.1094 61.499 11.6211Q59.7168 11.1328 58.3252 10.083Q56.9336 9.0332 55.5176 7.42188L37.2559-13.3301Q35.4004-15.4297 34.79-17.3828Q34.1797-19.3359 34.1797-22.8516L34.1797-47.6562Q34.1797-51.1719 34.79-53.125Q35.4004-55.0781 37.2559-57.1777L55.5176-77.9297Q56.9336-79.541 58.3252-80.5908Q59.7168-81.6406 61.499-82.1289Q63.2812-82.6172 65.918-82.6172L100.732-82.6172Q103.369-82.6172 105.176-82.1289Q106.982-81.6406 108.35-80.5908Q109.717-79.541 111.133-77.9297L129.443-57.1777Q131.25-55.0781 131.86-53.125Q132.471-51.1719 132.471-47.6562L132.471-22.8516Q132.471-19.3359 131.86-17.3828Q131.25-15.4297 129.443-13.3301L111.133 7.42188Q109.717 9.0332 108.35 10.083Q106.982 11.1328 105.176 11.6211Q103.369 12.1094 100.732 12.1094Z"/>
   <path class="multicolor-0:systemRedColor hierarchical-1:primary SFSymbolsPreviewFF3B30" d="M83.3984-26.7578Q90.0879-26.7578 90.4297-33.6426L91.4551-58.0566Q91.6504-61.5723 89.3555-63.7939Q87.0605-66.0156 83.3496-66.0156Q79.541-66.0156 77.2949-63.8184Q75.0488-61.6211 75.1953-58.1055L76.2207-33.5449Q76.5137-26.7578 83.3984-26.7578ZM83.3984-4.93164Q87.1094-4.93164 89.5996-7.05566Q92.0898-9.17969 92.0898-12.6953Q92.0898-16.2109 89.5996-18.335Q87.1094-20.459 83.3984-20.459Q79.6875-20.459 77.1729-18.3594Q74.6582-16.2598 74.6582-12.6953Q74.6582-9.17969 77.1729-7.05566Q79.6875-4.93164 83.3984-4.93164Z"/>
  </g>
  <g id="Bold-L" transform="matrix(1 0 0 1 2258.19 1556)">
   <path class="multicolor-0:systemRedColor hierarchical-0:secondary SFSymbolsPreviewFF3B30" d="M62.6465 27.8809L100.977 27.8809Q105.273 27.8809 108.496 26.9043Q111.719 25.9277 114.307 24.0967Q116.895 22.2656 119.238 19.6289L141.797-5.9082Q144.043-8.54492 145.288-10.7422Q146.533-12.9395 147.021-15.4541Q147.51-17.9688 147.51-21.4844L147.51-49.0234Q147.51-52.5391 147.021-55.0537Q146.533-57.5684 145.288-59.7656Q144.043-61.9629 141.797-64.5996L119.238-90.0879Q116.895-92.7246 114.307-94.5801Q111.719-96.4355 108.496-97.4121Q105.273-98.3887 100.977-98.3887L62.6465-98.3887Q58.3496-98.3887 55.1025-97.4121Q51.8555-96.4355 49.2676-94.5801Q46.6797-92.7246 44.3359-90.0879L21.8262-64.5996Q19.5312-61.9629 18.2861-59.7656Q17.041-57.5684 16.5527-55.0537Q16.0645-52.5391 16.0645-49.0234L16.0645-21.4844Q16.0645-17.9688 16.5527-15.4541Q17.041-12.9395 18.2861-10.7422Q19.5312-8.54492 21.8262-5.9082L44.3359 19.6289Q46.6797 22.2656 49.2676 24.0967Q51.8555 25.9277 55.1025 26.9043Q58.3496 27.8809 62.6465 27.8809ZM64.9902 13.7207Q62.0605 13.7207 60.1562 13.208Q58.252 12.6953 56.8115 11.5723Q55.3711 10.4492 53.7598 8.64258L34.4238-12.9883Q32.5684-15.0879 31.958-16.9678Q31.3477-18.8477 31.3477-22.3633L31.3477-48.1445Q31.3477-51.6602 31.958-53.54Q32.5684-55.4199 34.4238-57.5195L53.7598-79.1504Q55.3711-80.957 56.8115-82.0801Q58.252-83.2031 60.1562-83.7158Q62.0605-84.2285 64.9902-84.2285L98.584-84.2285Q101.562-84.2285 103.442-83.7158Q105.322-83.2031 106.763-82.0801Q108.203-80.957 109.814-79.1504L129.199-57.5195Q131.055-55.4199 131.641-53.54Q132.227-51.6602 132.227-48.1445L132.227-22.3633Q132.227-18.8477 131.641-16.9678Q131.055-15.0879 129.199-12.9883L109.814 8.64258Q108.203 10.4492 106.763 11.5723Q105.322 12.6953 103.442 13.208Q101.562 13.7207 98.584 13.7207Z"/>
   <path class="multicolor-0:systemRedColor hierarchical-1:primary SFSymbolsPreviewFF3B30" d="M81.8359-25.7812Q87.6465-25.7812 87.8906-31.8359L88.8672-59.4238Q89.0137-62.4512 87.0117-64.3799Q85.0098-66.3086 81.7871-66.3086Q78.5645-66.3086 76.5869-64.4043Q74.6094-62.5 74.7559-59.4727L75.6836-31.7871Q75.8789-25.7812 81.8359-25.7812ZM81.8359-4.63867Q85.1562-4.63867 87.4268-6.64062Q89.6973-8.64258 89.6973-11.8164Q89.6973-14.9902 87.4268-16.9678Q85.1562-18.9453 81.8359-18.9453Q78.5645-18.9453 76.2695-16.9678Q73.9746-14.9902 73.9746-11.8164Q73.9746-8.64258 76.2695-6.64062Q78.5645-4.63867 81.8359-4.63867Z"/>
  </g>
  <g id="Semibold-L" transform="matrix(1 0 0 1 1962.55 1556)">
   <path class="multicolor-0:systemRedColor hierarchical-0:secondary SFSymbolsPreviewFF3B30" d="M61.8652 26.9531L99.6094 26.9531Q103.906 26.9531 107.007 26.0254Q110.107 25.0977 112.549 23.291Q114.99 21.4844 117.236 18.9941L139.893-6.34766Q142.09-8.78906 143.262-10.8887Q144.434-12.9883 144.897-15.3809Q145.361-17.7734 145.361-21.1426L145.361-49.3652Q145.361-52.7344 144.897-55.127Q144.434-57.5195 143.262-59.5947Q142.09-61.6699 139.893-64.1602L117.236-89.4531Q114.99-91.9922 112.549-93.7744Q110.107-95.5566 107.007-96.5088Q103.906-97.4609 99.6094-97.4609L61.8652-97.4609Q57.5195-97.4609 54.3945-96.5088Q51.2695-95.5566 48.8525-93.7744Q46.4355-91.9922 44.1406-89.4531L21.5332-64.1602Q19.3848-61.6699 18.1885-59.5947Q16.9922-57.5195 16.5283-55.127Q16.0645-52.7344 16.0645-49.3652L16.0645-21.1426Q16.0645-17.7734 16.5283-15.3809Q16.9922-12.9883 18.1885-10.8887Q19.3848-8.78906 21.5332-6.34766L44.1406 18.9941Q46.4355 21.4844 48.8525 23.291Q51.2695 25.0977 54.3945 26.0254Q57.5195 26.9531 61.8652 26.9531ZM64.3066 14.8438Q61.1816 14.8438 59.2285 14.3066Q57.2754 13.7695 55.7861 12.5732Q54.2969 11.377 52.5391 9.47266L32.4219-12.7441Q30.5664-14.8438 29.9561-16.6748Q29.3457-18.5059 29.3457-22.0215L29.3457-48.4863Q29.3457-51.9531 29.9561-53.7842Q30.5664-55.6152 32.4219-57.7148L52.5391-79.9805Q54.2969-81.8848 55.7861-83.0811Q57.2754-84.2773 59.2285-84.8145Q61.1816-85.3516 64.3066-85.3516L97.1191-85.3516Q100.244-85.3516 102.222-84.8145Q104.199-84.2773 105.688-83.0811Q107.178-81.8848 108.887-79.9805L129.004-57.7148Q130.859-55.6152 131.47-53.7842Q132.08-51.9531 132.08-48.4863L132.08-22.0215Q132.08-18.5059 131.47-16.6748Q130.859-14.8438 129.004-12.7441L108.887 9.47266Q107.178 11.377 105.688 12.5732Q104.199 13.7695 102.222 14.3066Q100.244 14.8438 97.1191 14.8438Z"/>
   <path class="multicolor-0:systemRedColor hierarchical-1:primary SFSymbolsPreviewFF3B30" d="M80.7617-25.0977Q85.9375-25.0977 86.1328-30.5664L87.0117-60.3027Q87.1094-62.9883 85.3271-64.7461Q83.5449-66.5039 80.7129-66.5039Q77.832-66.5039 76.0742-64.7705Q74.3164-63.0371 74.3652-60.3516L75.2441-30.5176Q75.4395-25.0977 80.7617-25.0977ZM80.7617-4.44336Q83.7402-4.44336 85.8643-6.34766Q87.9883-8.25195 87.9883-11.1816Q87.9883-14.1113 85.8887-16.0156Q83.7891-17.9199 80.7617-17.9199Q77.7344-17.9199 75.6104-15.9912Q73.4863-14.0625 73.4863-11.1816Q73.4863-8.25195 75.6348-6.34766Q77.7832-4.44336 80.7617-4.44336Z"/>
  </g>
  <g id="Medium-L" transform="matrix(1 0 0 1 1666.65 1556)">
   <path class="multicolor-0:systemRedColor hierarchical-0:secondary SFSymbolsPreviewFF3B30" d="M61.2793 26.2695L98.584 26.2695Q102.881 26.2695 105.884 25.3418Q108.887 24.4141 111.23 22.6807Q113.574 20.9473 115.771 18.5059L138.477-6.64062Q140.576-8.98438 141.699-11.0107Q142.822-13.0371 143.286-15.332Q143.75-17.627 143.75-20.8984L143.75-49.6094Q143.75-52.832 143.286-55.1514Q142.822-57.4707 141.699-59.4727Q140.576-61.4746 138.477-63.8672L115.771-88.9648Q113.574-91.4062 111.23-93.1396Q108.887-94.873 105.884-95.8252Q102.881-96.7773 98.584-96.7773L61.2793-96.7773Q56.9336-96.7773 53.9062-95.8252Q50.8789-94.873 48.584-93.1396Q46.2891-91.4062 44.043-88.9648L21.3379-63.8672Q19.2383-61.4746 18.0908-59.4727Q16.9434-57.4707 16.5039-55.1514Q16.0645-52.832 16.0645-49.6094L16.0645-20.8984Q16.0645-17.627 16.5039-15.332Q16.9434-13.0371 18.0908-11.0107Q19.2383-8.98438 21.3379-6.64062L44.043 18.5059Q46.2891 20.9473 48.584 22.6807Q50.8789 24.4141 53.9062 25.3418Q56.9336 26.2695 61.2793 26.2695ZM63.7695 15.6738Q60.498 15.6738 58.4961 15.1367Q56.4941 14.5996 54.9805 13.3545Q53.4668 12.1094 51.6113 10.1562L30.957-12.5977Q29.0527-14.6973 28.4424-16.4795Q27.832-18.2617 27.832-21.7773L27.832-48.7305Q27.832-52.1973 28.4424-54.0039Q29.0527-55.8105 30.957-57.9102L51.6113-80.6641Q53.4668-82.6172 54.9805-83.8379Q56.4941-85.0586 58.4961-85.6201Q60.498-86.1816 63.7695-86.1816L95.9961-86.1816Q99.3164-86.1816 101.318-85.6201Q103.32-85.0586 104.834-83.8379Q106.348-82.6172 108.203-80.6641L128.857-57.9102Q130.762-55.8105 131.348-54.0039Q131.934-52.1973 131.934-48.7305L131.934-21.7773Q131.934-18.2617 131.348-16.4795Q130.762-14.6973 128.857-12.5977L108.203 10.1562Q106.348 12.1094 104.834 13.3545Q103.32 14.5996 101.318 15.1367Q99.3164 15.6738 95.9961 15.6738Z"/>
   <path class="multicolor-0:systemRedColor hierarchical-1:primary SFSymbolsPreviewFF3B30" d="M79.9316-24.6094Q84.668-24.6094 84.8145-29.6387L85.6445-60.9863Q85.7422-63.4277 84.082-65.0391Q82.4219-66.6504 79.8828-66.6504Q77.2949-66.6504 75.6836-65.0635Q74.0723-63.4766 74.1211-61.0352L74.9512-29.5898Q75.0488-24.6094 79.9316-24.6094ZM79.9316-4.24805Q82.7148-4.24805 84.7168-6.10352Q86.7188-7.95898 86.7188-10.6934Q86.7188-13.4277 84.7412-15.2588Q82.7637-17.0898 79.9316-17.0898Q77.0996-17.0898 75.1221-15.2588Q73.1445-13.4277 73.1445-10.6934Q73.1445-8.00781 75.1465-6.12793Q77.1484-4.24805 79.9316-4.24805Z"/>
  </g>
  <g id="Regular-L" transform="matrix(1 0 0 1 1370.99 1556)">
   <path class="multicolor-0:systemRedColor hierarchical-0:secondary SFSymbolsPreviewFF3B30" d="M60.498 25.3906L97.2168 25.3906Q101.562 25.3906 104.443 24.4873Q107.324 23.584 109.497 21.8994Q111.67 20.2148 113.818 17.8711L136.621-7.08008Q138.623-9.27734 139.697-11.1816Q140.771-13.0859 141.211-15.2588Q141.65-17.4316 141.65-20.5566L141.65-49.9512Q141.65-53.0273 141.211-55.2246Q140.771-57.4219 139.697-59.3018Q138.623-61.1816 136.621-63.4277L113.818-88.3301Q111.67-90.6738 109.497-92.3584Q107.324-94.043 104.443-94.9707Q101.562-95.8984 97.2168-95.8984L60.498-95.8984Q56.1523-95.8984 53.2471-94.9707Q50.3418-94.043 48.1934-92.3584Q46.0449-90.6738 43.8477-88.3301L21.0938-63.4277Q19.0918-61.1816 17.9932-59.3018Q16.8945-57.4219 16.4795-55.2246Q16.0645-53.0273 16.0645-49.9512L16.0645-20.5566Q16.0645-17.4316 16.4795-15.2588Q16.8945-13.0859 17.9932-11.1816Q19.0918-9.27734 21.0938-7.08008L43.8477 17.8711Q46.0449 20.2148 48.1934 21.8994Q50.3418 23.584 53.2471 24.4873Q56.1523 25.3906 60.498 25.3906ZM63.1348 16.7969Q59.668 16.7969 57.5928 16.2354Q55.5176 15.6738 53.9551 14.3799Q52.3926 13.0859 50.3906 10.9863L29.0039-12.3535Q27.0996-14.4531 26.4893-16.2109Q25.8789-17.9688 25.8789-21.4844L25.8789-49.0234Q25.8789-52.4902 26.4893-54.248Q27.0996-56.0059 29.0039-58.1055L50.3906-81.4941Q52.3926-83.5938 53.9551-84.8633Q55.5176-86.1328 57.5928-86.7188Q59.668-87.3047 63.1348-87.3047L94.5312-87.3047Q98.0469-87.3047 100.122-86.7188Q102.197-86.1328 103.76-84.8633Q105.322-83.5938 107.275-81.4941L128.711-58.1055Q130.615-56.0059 131.201-54.248Q131.787-52.4902 131.787-49.0234L131.787-21.4844Q131.787-17.9688 131.201-16.2109Q130.615-14.4531 128.711-12.3535L107.275 10.9863Q105.322 13.0859 103.76 14.3799Q102.197 15.6738 100.122 16.2354Q98.0469 16.7969 94.5312 16.7969Z"/>
   <path class="multicolor-0:systemRedColor hierarchical-1:primary SFSymbolsPreviewFF3B30" d="M78.8574-23.9258Q82.959-23.9258 83.0566-28.3691L83.8379-61.9141Q83.8867-64.0137 82.4463-65.4297Q81.0059-66.8457 78.8086-66.8457Q76.5625-66.8457 75.1709-65.4541Q73.7793-64.0625 73.7793-61.9629L74.5605-28.3691Q74.6094-23.9258 78.8574-23.9258ZM78.8574-4.05273Q81.3477-4.05273 83.2031-5.81055Q85.0586-7.56836 85.0586-10.0586Q85.0586-12.5977 83.2275-14.3311Q81.3965-16.0645 78.8574-16.0645Q76.3184-16.0645 74.4873-14.3066Q72.6562-12.5488 72.6562-10.0586Q72.6562-7.61719 74.5117-5.83496Q76.3672-4.05273 78.8574-4.05273Z"/>
  </g>
  <g id="Light-L" transform="matrix(1 0 0 1 1075.2 1556)">
   <path class="multicolor-0:systemRedColor hierarchical-0:secondary SFSymbolsPreviewFF3B30" d="M60.5957 24.8535L95.2637 24.8535Q100.098 24.8535 103.125 23.8525Q106.152 22.8516 108.325 21.0205Q110.498 19.1895 112.793 16.6992L135.01-7.22656Q136.914-9.27734 137.939-11.084Q138.965-12.8906 139.38-14.9902Q139.795-17.0898 139.795-20.166L139.795-50.3418Q139.795-53.3691 139.38-55.4932Q138.965-57.6172 137.939-59.3994Q136.914-61.1816 135.01-63.2812L112.793-87.207Q110.498-89.6484 108.325-91.4795Q106.152-93.3105 103.125-94.3359Q100.098-95.3613 95.2637-95.3613L60.5957-95.3613Q55.7617-95.3613 52.7344-94.3359Q49.707-93.3105 47.5342-91.4795Q45.3613-89.6484 43.0176-87.207L20.8496-63.2812Q18.9453-61.1816 17.8955-59.3994Q16.8457-57.6172 16.4551-55.4932Q16.0645-53.3691 16.0645-50.3418L16.0645-20.166Q16.0645-17.0898 16.4551-14.9902Q16.8457-12.8906 17.8955-11.084Q18.9453-9.27734 20.8496-7.22656L43.0176 16.6992Q45.3613 19.1895 47.5342 21.0205Q49.707 22.8516 52.7344 23.8525Q55.7617 24.8535 60.5957 24.8535ZM62.2559 18.3105Q58.3008 18.3105 56.0059 17.6514Q53.7109 16.9922 51.9775 15.5029Q50.2441 14.0137 47.9492 11.6211L26.6113-11.377Q24.6582-13.4766 24.0234-15.332Q23.3887-17.1875 23.3887-20.752L23.3887-49.7559Q23.3887-53.3203 24.0234-55.1514Q24.6582-56.9824 26.6113-59.1309L47.9492-82.1289Q50.2441-84.5215 51.9775-85.9863Q53.7109-87.4512 56.0059-88.1348Q58.3008-88.8184 62.2559-88.8184L93.5547-88.8184Q97.5586-88.8184 99.8535-88.1348Q102.148-87.4512 103.882-85.9863Q105.615-84.5215 107.861-82.1289L129.248-59.1309Q131.201-56.9824 131.812-55.1514Q132.422-53.3203 132.422-49.7559L132.422-20.752Q132.422-17.1875 131.812-15.332Q131.201-13.4766 129.248-11.377L107.861 11.6211Q105.615 14.0137 103.882 15.5029Q102.148 16.9922 99.8535 17.6514Q97.5586 18.3105 93.5547 18.3105Z"/>
   <path class="multicolor-0:systemRedColor hierarchical-1:primary SFSymbolsPreviewFF3B30" d="M77.9297-23.9746Q81.2012-23.9746 81.2988-27.6855L81.9336-61.5723Q81.9336-63.2812 80.8105-64.4287Q79.6875-65.5762 77.8809-65.5762Q76.0742-65.5762 74.9756-64.4531Q73.877-63.3301 73.877-61.6211L74.5117-27.6855Q74.5605-23.9746 77.9297-23.9746ZM77.9297-4.93164Q80.127-4.93164 81.7139-6.49414Q83.3008-8.05664 83.3008-10.2051Q83.3008-12.4023 81.7383-13.9404Q80.1758-15.4785 77.9297-15.4785Q75.7324-15.4785 74.1455-13.916Q72.5586-12.3535 72.5586-10.2051Q72.5586-8.10547 74.1455-6.51855Q75.7324-4.93164 77.9297-4.93164Z"/>
  </g>
  <g id="Thin-L" transform="matrix(1 0 0 1 779.713 1556)">
   <path class="multicolor-0:systemRedColor hierarchical-0:secondary SFSymbolsPreviewFF3B30" d="M60.7422 24.1211L92.6758 24.1211Q98.0957 24.1211 101.318 22.9736Q104.541 21.8262 106.763 19.7998Q108.984 17.7734 111.475 15.1855L132.91-7.4707Q134.668-9.32617 135.62-10.9863Q136.572-12.6465 136.963-14.6484Q137.354-16.6504 137.354-19.6289L137.354-50.8789Q137.354-53.8574 136.963-55.8838Q136.572-57.9102 135.62-59.5459Q134.668-61.1816 132.91-63.0859L111.475-85.6934Q108.984-88.2812 106.763-90.3076Q104.541-92.334 101.318-93.4814Q98.0957-94.6289 92.6758-94.6289L60.7422-94.6289Q55.2734-94.6289 52.0752-93.4814Q48.877-92.334 46.6553-90.3076Q44.4336-88.2812 41.8945-85.6934L20.5078-63.0859Q18.75-61.1816 17.7734-59.5459Q16.7969-57.9102 16.4307-55.8838Q16.0645-53.8574 16.0645-50.8789L16.0645-19.6289Q16.0645-16.6504 16.4307-14.6484Q16.7969-12.6465 17.7734-10.9863Q18.75-9.32617 20.5078-7.4707L41.8945 15.1855Q44.4336 17.7734 46.6553 19.7998Q48.877 21.8262 52.0752 22.9736Q55.2734 24.1211 60.7422 24.1211ZM61.084 20.3125Q56.4941 20.3125 53.9062 19.5068Q51.3184 18.7012 49.3408 16.9434Q47.3633 15.1855 44.7266 12.4512L23.4375-10.0098Q21.3867-12.207 20.7764-14.1602Q20.166-16.1133 20.166-19.7754L20.166-50.7812Q20.166-54.4434 20.7764-56.3965Q21.3867-58.3496 23.4375-60.498L44.7266-82.959Q47.3633-85.7422 49.3408-87.4756Q51.3184-89.209 53.9062-90.0391Q56.4941-90.8691 61.084-90.8691L92.334-90.8691Q96.875-90.8691 99.5117-90.0391Q102.148-89.209 104.077-87.4756Q106.006-85.7422 108.643-82.959L129.98-60.498Q132.031-58.3496 132.642-56.3965Q133.252-54.4434 133.252-50.7812L133.252-19.7754Q133.252-16.1133 132.642-14.1602Q132.031-12.207 129.98-10.0098L108.643 12.4512Q106.006 15.1855 104.077 16.9434Q102.148 18.7012 99.5117 19.5068Q96.875 20.3125 92.334 20.3125Z"/>
   <path class="multicolor-0:systemRedColor hierarchical-1:primary SFSymbolsPreviewFF3B30" d="M76.709-24.0723Q78.9062-24.0723 78.9551-26.7578L79.3945-61.1328Q79.3945-62.3047 78.6621-63.0859Q77.9297-63.8672 76.709-63.8672Q75.4883-63.8672 74.7559-63.1104Q74.0234-62.3535 74.0234-61.1328L74.5117-26.7578Q74.4629-24.0723 76.709-24.0723ZM76.709-6.10352Q78.5156-6.10352 79.7607-7.39746Q81.0059-8.69141 81.0059-10.3516Q81.0059-12.1094 79.7607-13.3789Q78.5156-14.6484 76.709-14.6484Q74.9023-14.6484 73.6572-13.3789Q72.4121-12.1094 72.4121-10.3516Q72.4121-8.69141 73.6816-7.39746Q74.9512-6.10352 76.709-6.10352Z"/>
  </g>
  <g id="Ultralight-L" transform="matrix(1 0 0 1 483.612 1556)">
   <path class="multicolor-0:systemRedColor hierarchical-0:secondary SFSymbolsPreviewFF3B30" d="M60.8398 23.7793L91.3574 23.7793Q97.1191 23.7793 100.439 22.5586Q103.76 21.3379 105.981 19.2139Q108.203 17.0898 110.791 14.3555L131.836-7.56836Q133.545-9.32617 134.448-10.9131Q135.352-12.5 135.742-14.4775Q136.133-16.4551 136.133-19.3848L136.133-51.1719Q136.133-54.1016 135.742-56.0791Q135.352-58.0566 134.448-59.6191Q133.545-61.1816 131.836-62.9883L110.791-84.9121Q108.203-87.5977 105.981-89.7217Q103.76-91.8457 100.439-93.0664Q97.1191-94.2871 91.3574-94.2871L60.8398-94.2871Q55.0293-94.2871 51.7334-93.0664Q48.4375-91.8457 46.1914-89.7217Q43.9453-87.5977 41.3574-84.9121L20.3125-62.9883Q18.6523-61.1816 17.7002-59.6191Q16.748-58.0566 16.4062-56.0791Q16.0645-54.1016 16.0645-51.1719L16.0645-19.3848Q16.0645-16.4551 16.4062-14.4775Q16.748-12.5 17.7002-10.9131Q18.6523-9.32617 20.3125-7.56836L41.3574 14.3555Q43.9453 17.0898 46.1914 19.2139Q48.4375 21.3379 51.7334 22.5586Q55.0293 23.7793 60.8398 23.7793ZM60.498 21.3379Q55.5664 21.3379 52.8076 20.459Q50.0488 19.5801 47.9736 17.7002Q45.8984 15.8203 43.0664 12.8418L21.7773-9.375Q19.7266-11.5234 19.0918-13.5498Q18.457-15.5762 18.457-19.2383L18.457-51.2695Q18.457-54.9805 19.0918-56.9824Q19.7266-58.9844 21.7773-61.1816L43.0664-83.3984Q45.8984-86.377 47.9736-88.2568Q50.0488-90.1367 52.8076-91.0156Q55.5664-91.8945 60.498-91.8945L91.6504-91.8945Q96.5332-91.8945 99.3164-91.0156Q102.1-90.1367 104.175-88.2568Q106.25-86.377 109.033-83.3984L130.322-61.1816Q132.422-58.9844 133.057-56.9824Q133.691-54.9805 133.691-51.2695L133.691-19.2383Q133.691-15.5762 133.057-13.5498Q132.422-11.5234 130.322-9.375L109.033 12.8418Q106.25 15.8203 104.175 17.7002Q102.1 19.5801 99.3164 20.459Q96.5332 21.3379 91.6504 21.3379Z"/>
   <path class="multicolor-0:systemRedColor hierarchical-1:primary SFSymbolsPreviewFF3B30" d="M76.0742-24.1211Q77.7344-24.1211 77.7344-26.2695L78.125-60.9375Q78.0762-61.8164 77.5635-62.4023Q77.0508-62.9883 76.0742-62.9883Q75.1465-62.9883 74.6094-62.4023Q74.0723-61.8164 74.0723-60.8887L74.4629-26.2695Q74.4141-24.1211 76.0742-24.1211ZM76.0742-6.68945Q77.6367-6.68945 78.7354-7.86133Q79.834-9.0332 79.834-10.4492Q79.834-11.9629 78.7598-13.1104Q77.6855-14.2578 76.0742-14.2578Q74.5117-14.2578 73.4131-13.1348Q72.3145-12.0117 72.3145-10.4492Q72.3145-9.0332 73.4131-7.86133Q74.5117-6.68945 76.0742-6.68945Z"/>
  </g>
  <g id="Black-M" transform="matrix(1 0 0 1 2866.87 1126)">
   <path class="multicolor-0:systemRedColor hierarchical-0:secondary SFSymbolsPreviewFF3B30" d="M51.0742 16.3574L81.9824 16.3574Q85.4492 16.3574 88.4033 15.5029Q91.3574 14.6484 93.8477 12.9883Q96.3379 11.3281 98.3887 8.93555L115.43-11.1816Q117.48-13.623 118.604-15.6738Q119.727-17.7246 120.166-20.0195Q120.605-22.3145 120.605-25.5371L120.605-44.9707Q120.605-48.1934 120.166-50.4883Q119.727-52.7832 118.604-54.834Q117.48-56.8848 115.43-59.3262L98.3887-79.4434Q96.3379-81.8359 93.8477-83.4961Q91.3574-85.1562 88.4033-86.0107Q85.4492-86.8652 81.9824-86.8652L51.0742-86.8652Q47.6562-86.8652 44.6777-86.0107Q41.6992-85.1562 39.209-83.4961Q36.7188-81.8359 34.668-79.4434L17.6758-59.3262Q15.625-56.8848 14.4775-54.834Q13.3301-52.7832 12.8906-50.4883Q12.4512-48.1934 12.4512-44.9707L12.4512-25.5371Q12.4512-22.3145 12.8906-20.0195Q13.3301-17.7246 14.4775-15.6738Q15.625-13.623 17.6758-11.1816L34.668 8.93555Q36.7188 11.3281 39.209 12.9883Q41.6992 14.6484 44.6777 15.5029Q47.6562 16.3574 51.0742 16.3574ZM52.1973-0.390625Q50.3906-0.390625 49.0723-0.78125Q47.7539-1.17188 46.7285-1.92871Q45.7031-2.68555 44.7754-3.75977L32.2266-18.4082Q30.8105-20.0195 30.3223-21.6553Q29.834-23.291 29.834-26.0742L29.834-44.4824Q29.834-47.2168 30.3223-48.8525Q30.8105-50.4883 32.2266-52.0996L44.7754-66.748Q45.7031-67.8711 46.7285-68.6035Q47.7539-69.3359 49.0723-69.7266Q50.3906-70.1172 52.1973-70.1172L80.8594-70.1172Q82.666-70.1172 83.9844-69.7266Q85.3027-69.3359 86.3281-68.6035Q87.3535-67.8711 88.3301-66.748L100.83-52.0996Q102.246-50.4883 102.734-48.8525Q103.223-47.2168 103.223-44.4824L103.223-26.0742Q103.223-23.291 102.734-21.6553Q102.246-20.0195 100.83-18.4082L88.3301-3.75977Q87.3535-2.68555 86.3281-1.92871Q85.3027-1.17188 83.9844-0.78125Q82.666-0.390625 80.8594-0.390625Z"/>
   <path class="multicolor-0:systemRedColor hierarchical-1:primary SFSymbolsPreviewFF3B30" d="M66.6504-30.127Q72.8516-30.127 73.2422-36.4258L74.0723-50.9277Q74.3164-54.1992 72.2168-56.2256Q70.1172-58.252 66.5527-58.252Q63.0371-58.252 60.9375-56.2256Q58.8379-54.1992 59.082-50.9277L59.9121-36.3281Q60.3027-30.127 66.6504-30.127ZM66.6504-12.5488Q70.0195-12.5488 72.168-14.2822Q74.3164-16.0156 74.3164-19.1406Q74.3164-22.2656 72.168-24.0234Q70.0195-25.7812 66.6504-25.7812Q63.2812-25.7812 61.0596-24.0479Q58.8379-22.3145 58.8379-19.1406Q58.8379-16.0156 61.0596-14.2822Q63.2812-12.5488 66.6504-12.5488Z"/>
  </g>
  <g id="Heavy-M" transform="matrix(1 0 0 1 2571.31 1126)">
   <path class="multicolor-0:systemRedColor hierarchical-0:secondary SFSymbolsPreviewFF3B30" d="M50.0488 15.332L80.6641 15.332Q84.0332 15.332 86.8164 14.5264Q89.5996 13.7207 91.8945 12.1582Q94.1895 10.5957 96.1426 8.39844L113.379-11.6699Q115.332-13.9648 116.406-15.8936Q117.48-17.8223 117.896-19.9951Q118.311-22.168 118.311-25.1953L118.311-45.3125Q118.311-48.3398 117.896-50.5127Q117.48-52.6855 116.406-54.6143Q115.332-56.543 113.379-58.7891L96.1426-78.8574Q94.1895-81.1035 91.8945-82.666Q89.5996-84.2285 86.8164-85.0342Q84.0332-85.8398 80.6641-85.8398L50.0488-85.8398Q46.7285-85.8398 43.9453-85.0342Q41.1621-84.2285 38.8672-82.666Q36.5723-81.1035 34.6191-78.8574L17.3828-58.7891Q15.4297-56.543 14.3555-54.6143Q13.2812-52.6855 12.8662-50.5127Q12.4512-48.3398 12.4512-45.3125L12.4512-25.1953Q12.4512-22.168 12.8662-19.9951Q13.2812-17.8223 14.3555-15.8936Q15.4297-13.9648 17.3828-11.6699L34.6191 8.39844Q36.5723 10.5957 38.8672 12.1582Q41.1621 13.7207 43.9453 14.5264Q46.7285 15.332 50.0488 15.332ZM51.5625 0.683594Q49.6094 0.683594 48.2422 0.292969Q46.875-0.0976562 45.8252-0.878906Q44.7754-1.66016 43.75-2.83203L30.2246-18.3105Q28.8086-19.9219 28.3447-21.4844Q27.8809-23.0469 27.8809-25.8301L27.8809-44.7266Q27.8809-47.4121 28.3447-48.9746Q28.8086-50.5371 30.2246-52.1484L43.75-67.6758Q44.7754-68.8965 45.8252-69.6533Q46.875-70.4102 48.2422-70.8008Q49.6094-71.1914 51.5625-71.1914L79.1992-71.1914Q81.1523-71.1914 82.4951-70.8008Q83.8379-70.4102 84.8877-69.6533Q85.9375-68.8965 87.0117-67.6758L100.488-52.1484Q101.904-50.5371 102.393-48.9746Q102.881-47.4121 102.881-44.7266L102.881-25.8301Q102.881-23.0469 102.393-21.4844Q101.904-19.9219 100.488-18.3105L87.0117-2.83203Q85.9375-1.66016 84.8877-0.878906Q83.8379-0.0976562 82.4951 0.292969Q81.1523 0.683594 79.1992 0.683594Z"/>
   <path class="multicolor-0:systemRedColor hierarchical-1:primary SFSymbolsPreviewFF3B30" d="M65.4785-29.248Q71.0938-29.248 71.3867-34.9609L72.2168-52.1484Q72.4121-55.0781 70.4834-56.9336Q68.5547-58.7891 65.3809-58.7891Q62.207-58.7891 60.3271-56.9336Q58.4473-55.0781 58.6426-52.1484L59.4238-34.9121Q59.7168-29.248 65.4785-29.248ZM65.4785-12.1094Q68.5547-12.1094 70.5566-13.7695Q72.5586-15.4297 72.5586-18.3105Q72.5586-21.2402 70.5566-22.9248Q68.5547-24.6094 65.4785-24.6094Q62.4023-24.6094 60.3271-22.9248Q58.252-21.2402 58.252-18.3105Q58.252-15.4297 60.3271-13.7695Q62.4023-12.1094 65.4785-12.1094Z"/>
  </g>
  <g id="Bold-M" transform="matrix(1 0 0 1 2275.89 1126)">
   <path class="multicolor-0:systemRedColor hierarchical-0:secondary SFSymbolsPreviewFF3B30" d="M48.9746 14.209L79.248 14.209Q82.5195 14.209 85.083 13.4766Q87.6465 12.7441 89.7217 11.2793Q91.7969 9.81445 93.6035 7.76367L111.133-12.2559Q112.939-14.3555 113.94-16.1621Q114.941-17.9688 115.332-19.9707Q115.723-21.9727 115.723-24.8047L115.723-45.7031Q115.723-48.5352 115.332-50.5371Q114.941-52.5391 113.94-54.3457Q112.939-56.1523 111.133-58.252L93.6035-78.2715Q91.7969-80.3223 89.7217-81.7627Q87.6465-83.2031 85.083-83.96Q82.5195-84.7168 79.248-84.7168L48.9746-84.7168Q45.7031-84.7168 43.1396-83.96Q40.5762-83.2031 38.501-81.7627Q36.4258-80.3223 34.5703-78.2715L17.0898-58.252Q15.2832-56.1523 14.2578-54.3457Q13.2324-52.5391 12.8418-50.5371Q12.4512-48.5352 12.4512-45.7031L12.4512-24.8047Q12.4512-21.9727 12.8418-19.9707Q13.2324-17.9688 14.2578-16.1621Q15.2832-14.3555 17.0898-12.2559L34.5703 7.76367Q36.4258 9.81445 38.501 11.2793Q40.5762 12.7441 43.1396 13.4766Q45.7031 14.209 48.9746 14.209ZM50.8301 1.95312Q48.7305 1.95312 47.3145 1.5625Q45.8984 1.17188 44.8242 0.341797Q43.75-0.488281 42.627-1.75781L28.0273-18.2617Q26.6113-19.873 26.1475-21.3379Q25.6836-22.8027 25.6836-25.5371L25.6836-44.9707Q25.6836-47.7051 26.1475-49.1699Q26.6113-50.6348 28.0273-52.2461L42.627-68.75Q43.75-70.0195 44.8242-70.8252Q45.8984-71.6309 47.3145-72.0215Q48.7305-72.4121 50.8301-72.4121L77.3438-72.4121Q79.4922-72.4121 80.8838-72.0215Q82.2754-71.6309 83.3496-70.8252Q84.4238-70.0195 85.5957-68.75L100.146-52.2461Q101.562-50.6348 102.051-49.1699Q102.539-47.7051 102.539-44.9707L102.539-25.5371Q102.539-22.8027 102.051-21.3379Q101.562-19.873 100.146-18.2617L85.5957-1.75781Q84.4238-0.488281 83.3496 0.341797Q82.2754 1.17188 80.8838 1.5625Q79.4922 1.95312 77.3438 1.95312Z"/>
   <path class="multicolor-0:systemRedColor hierarchical-1:primary SFSymbolsPreviewFF3B30" d="M64.209-28.3203Q69.1406-28.3203 69.3359-33.3984L70.1172-53.5156Q70.2637-56.1035 68.5791-57.7393Q66.8945-59.375 64.1113-59.375Q61.377-59.375 59.6924-57.7393Q58.0078-56.1035 58.1543-53.5645L58.8867-33.3496Q59.1309-28.3203 64.209-28.3203ZM64.209-11.5723Q66.9434-11.5723 68.7988-13.1836Q70.6543-14.7949 70.6543-17.4316Q70.6543-20.0684 68.7988-21.6797Q66.9434-23.291 64.209-23.291Q61.4258-23.291 59.5459-21.6797Q57.666-20.0684 57.666-17.4316Q57.666-14.7949 59.5459-13.1836Q61.4258-11.5723 64.209-11.5723Z"/>
  </g>
  <g id="Semibold-M" transform="matrix(1 0 0 1 1980.06 1126)">
   <path class="multicolor-0:systemRedColor hierarchical-0:secondary SFSymbolsPreviewFF3B30" d="M48.1934 13.4277L78.2227 13.4277Q81.3965 13.4277 83.8379 12.7197Q86.2793 12.0117 88.1836 10.6445Q90.0879 9.27734 91.8457 7.32422L109.521-12.6465Q111.279-14.5996 112.231-16.3086Q113.184-18.0176 113.574-19.9219Q113.965-21.8262 113.965-24.5605L113.965-45.9473Q113.965-48.6328 113.574-50.5371Q113.184-52.4414 112.231-54.1504Q111.279-55.8594 109.521-57.8125L91.8457-77.832Q90.0879-79.7852 88.1836-81.1279Q86.2793-82.4707 83.8379-83.2031Q81.3965-83.9355 78.2227-83.9355L48.1934-83.9355Q44.9707-83.9355 42.5537-83.2031Q40.1367-82.4707 38.208-81.1279Q36.2793-79.7852 34.5215-77.832L16.8945-57.8125Q15.1367-55.8594 14.1602-54.1504Q13.1836-52.4414 12.8174-50.5371Q12.4512-48.6328 12.4512-45.9473L12.4512-24.5605Q12.4512-21.8262 12.8174-19.9219Q13.1836-18.0176 14.1602-16.3086Q15.1367-14.5996 16.8945-12.6465L34.5215 7.32422Q36.2793 9.27734 38.208 10.6445Q40.1367 12.0117 42.5537 12.7197Q44.9707 13.4277 48.1934 13.4277ZM50.3418 2.7832Q48.0957 2.7832 46.6553 2.39258Q45.2148 2.00195 44.1162 1.14746Q43.0176 0.292969 41.8457-1.02539L26.5137-18.1641Q25.0977-19.7754 24.6094-21.1914Q24.1211-22.6074 24.1211-25.3418L24.1211-45.166Q24.1211-47.8516 24.6094-49.2676Q25.0977-50.6836 26.5137-52.2949L41.8457-69.4336Q43.0176-70.8008 44.1162-71.6309Q45.2148-72.4609 46.6553-72.8516Q48.0957-73.2422 50.3418-73.2422L76.0742-73.2422Q78.3203-73.2422 79.7363-72.8516Q81.1523-72.4609 82.2266-71.6309Q83.3008-70.8008 84.5703-69.4336L99.8535-52.2949Q101.318-50.6836 101.782-49.2676Q102.246-47.8516 102.246-45.166L102.246-25.3418Q102.246-22.6074 101.782-21.1914Q101.318-19.7754 99.8535-18.1641L84.5703-1.02539Q83.3008 0.292969 82.2266 1.14746Q81.1523 2.00195 79.7363 2.39258Q78.3203 2.7832 76.0742 2.7832Z"/>
   <path class="multicolor-0:systemRedColor hierarchical-1:primary SFSymbolsPreviewFF3B30" d="M63.2324-27.6367Q67.6758-27.6367 67.8711-32.2754L68.6035-54.4434Q68.75-56.7871 67.1875-58.2764Q65.625-59.7656 63.1836-59.7656Q60.6934-59.7656 59.1797-58.2764Q57.666-56.7871 57.7637-54.4922L58.4473-32.2266Q58.6426-27.6367 63.2324-27.6367ZM63.2324-11.2305Q65.7227-11.2305 67.5049-12.7686Q69.2871-14.3066 69.2871-16.7969Q69.2871-19.2383 67.5293-20.8008Q65.7715-22.3633 63.2324-22.3633Q60.6934-22.3633 58.9111-20.8008Q57.1289-19.2383 57.1289-16.7969Q57.1289-14.3555 58.9111-12.793Q60.6934-11.2305 63.2324-11.2305Z"/>
  </g>
  <g id="Medium-M" transform="matrix(1 0 0 1 1684.03 1126)">
   <path class="multicolor-0:systemRedColor hierarchical-0:secondary SFSymbolsPreviewFF3B30" d="M47.6074 12.8418L77.4414 12.8418Q80.6152 12.8418 82.9346 12.1582Q85.2539 11.4746 87.0605 10.1562Q88.8672 8.83789 90.5273 7.03125L108.35-12.9395Q110.01-14.8438 110.938-16.4551Q111.865-18.0664 112.231-19.9219Q112.598-21.7773 112.598-24.3164L112.598-46.1426Q112.598-48.7305 112.231-50.5615Q111.865-52.3926 110.938-54.0283Q110.01-55.6641 108.35-57.5195L90.5273-77.4902Q88.8672-79.3457 87.0605-80.6396Q85.2539-81.9336 82.9346-82.6416Q80.6152-83.3496 77.4414-83.3496L47.6074-83.3496Q44.4336-83.3496 42.1143-82.6416Q39.7949-81.9336 37.9883-80.6396Q36.1816-79.3457 34.5215-77.4902L16.6992-57.5195Q15.0391-55.6641 14.1113-54.0283Q13.1836-52.3926 12.8174-50.5615Q12.4512-48.7305 12.4512-46.1426L12.4512-24.3164Q12.4512-21.7773 12.8174-19.9219Q13.1836-18.0664 14.1113-16.4551Q15.0391-14.8438 16.6992-12.9395L34.5215 7.03125Q36.1816 8.83789 37.9883 10.1562Q39.7949 11.4746 42.1143 12.1582Q44.4336 12.8418 47.6074 12.8418ZM49.9512 3.41797Q47.6074 3.41797 46.167 3.02734Q44.7266 2.63672 43.6035 1.78223Q42.4805 0.927734 41.2598-0.488281L25.3418-18.1152Q23.9258-19.7266 23.4619-21.1182Q22.998-22.5098 22.998-25.1953L22.998-45.2637Q22.998-47.998 23.4619-49.3652Q23.9258-50.7324 25.3418-52.3438L41.2598-69.9707Q42.4805-71.3867 43.6035-72.2412Q44.7266-73.0957 46.167-73.4863Q47.6074-73.877 49.9512-73.877L75.0977-73.877Q77.4414-73.877 78.8574-73.4863Q80.2734-73.0957 81.3965-72.2412Q82.5195-71.3867 83.7891-69.9707L99.6582-52.3438Q101.123-50.7324 101.587-49.3652Q102.051-47.998 102.051-45.2637L102.051-25.1953Q102.051-22.5098 101.587-21.1182Q101.123-19.7266 99.6582-18.1152L83.7891-0.488281Q82.5195 0.927734 81.3965 1.78223Q80.2734 2.63672 78.8574 3.02734Q77.4414 3.41797 75.0977 3.41797Z"/>
   <path class="multicolor-0:systemRedColor hierarchical-1:primary SFSymbolsPreviewFF3B30" d="M62.5488-27.0996Q66.6992-27.0996 66.7969-31.3965L67.5293-55.1758Q67.627-57.2754 66.1865-58.667Q64.7461-60.0586 62.5-60.0586Q60.2539-60.0586 58.8379-58.6914Q57.4219-57.3242 57.5195-55.2246L58.2031-31.3965Q58.3496-27.0996 62.5488-27.0996ZM62.5488-10.9375Q64.8926-10.9375 66.5771-12.4512Q68.2617-13.9648 68.2617-16.3086Q68.2617-18.6035 66.6016-20.1416Q64.9414-21.6797 62.5488-21.6797Q60.2051-21.6797 58.5205-20.1416Q56.8359-18.6035 56.8359-16.3086Q56.8359-14.0137 58.5205-12.4756Q60.2051-10.9375 62.5488-10.9375Z"/>
  </g>
  <g id="Regular-M" transform="matrix(1 0 0 1 1388.2 1126)">
   <path class="multicolor-0:systemRedColor hierarchical-0:secondary SFSymbolsPreviewFF3B30" d="M46.8262 12.0605L76.4648 12.0605Q79.541 12.0605 81.7139 11.4258Q83.8867 10.791 85.5469 9.5459Q87.207 8.30078 88.8184 6.5918L106.787-13.3301Q108.398-15.0879 109.277-16.626Q110.156-18.1641 110.498-19.8975Q110.84-21.6309 110.84-24.0723L110.84-46.3867Q110.84-48.8281 110.498-50.5615Q110.156-52.2949 109.277-53.833Q108.398-55.3711 106.787-57.1289L88.8184-77.0508Q87.207-78.8086 85.5469-80.0293Q83.8867-81.25 81.7139-81.9092Q79.541-82.5684 76.4648-82.5684L46.8262-82.5684Q43.7012-82.5684 41.5527-81.9092Q39.4043-81.25 37.7441-80.0293Q36.084-78.8086 34.4727-77.0508L16.5039-57.1289Q14.8926-55.3711 14.0137-53.833Q13.1348-52.2949 12.793-50.5615Q12.4512-48.8281 12.4512-46.3867L12.4512-24.0723Q12.4512-21.6309 12.793-19.8975Q13.1348-18.1641 14.0137-16.626Q14.8926-15.0879 16.5039-13.3301L34.4727 6.5918Q36.084 8.30078 37.7441 9.5459Q39.4043 10.791 41.5527 11.4258Q43.7012 12.0605 46.8262 12.0605ZM49.4629 4.24805Q47.0215 4.24805 45.5322 3.85742Q44.043 3.4668 42.9199 2.58789Q41.7969 1.70898 40.4785 0.244141L23.8281-18.0664Q22.4121-19.6777 21.9482-20.9961Q21.4844-22.3145 21.4844-25L21.4844-45.459Q21.4844-48.1445 21.9482-49.4629Q22.4121-50.7812 23.8281-52.3926L40.4785-70.7031Q41.7969-72.168 42.9199-73.0469Q44.043-73.9258 45.5322-74.3164Q47.0215-74.707 49.4629-74.707L73.8281-74.707Q76.2695-74.707 77.7344-74.3164Q79.1992-73.9258 80.3223-73.0469Q81.4453-72.168 82.8125-70.7031L99.4141-52.3926Q100.879-50.7812 101.343-49.4629Q101.807-48.1445 101.807-45.459L101.807-25Q101.807-22.3145 101.343-20.9961Q100.879-19.6777 99.4141-18.0664L82.8125 0.244141Q81.4453 1.70898 80.3223 2.58789Q79.1992 3.4668 77.7344 3.85742Q76.2695 4.24805 73.8281 4.24805Z"/>
   <path class="multicolor-0:systemRedColor hierarchical-1:primary SFSymbolsPreviewFF3B30" d="M61.6699-26.4648Q65.332-26.4648 65.3809-30.3223L66.1133-56.1035Q66.1621-57.959 64.8682-59.2041Q63.5742-60.4492 61.6211-60.4492Q59.6191-60.4492 58.374-59.2285Q57.1289-58.0078 57.1777-56.1523L57.8125-30.3223Q57.9102-26.4648 61.6699-26.4648ZM61.6699-10.5957Q63.7695-10.5957 65.3564-12.0605Q66.9434-13.5254 66.9434-15.6738Q66.9434-17.8223 65.3809-19.2871Q63.8184-20.752 61.6699-20.752Q59.5215-20.752 57.959-19.2627Q56.3965-17.7734 56.3965-15.6738Q56.3965-13.5742 57.959-12.085Q59.5215-10.5957 61.6699-10.5957Z"/>
  </g>
  <g id="Light-M" transform="matrix(1 0 0 1 1092.32 1126)">
   <path class="multicolor-0:systemRedColor hierarchical-0:secondary SFSymbolsPreviewFF3B30" d="M46.9238 11.5723L74.707 11.5723Q78.2227 11.5723 80.5176 10.8398Q82.8125 10.1074 84.4971 8.74023Q86.1816 7.37305 87.8906 5.56641L105.371-13.4766Q106.885-15.1367 107.715-16.5527Q108.545-17.9688 108.862-19.6533Q109.18-21.3379 109.18-23.7305L109.18-46.7285Q109.18-49.1699 108.862-50.8301Q108.545-52.4902 107.715-53.9307Q106.885-55.3711 105.371-57.0312L87.8906-76.0254Q86.1816-77.8809 84.4971-79.2236Q82.8125-80.5664 80.5176-81.3232Q78.2227-82.0801 74.707-82.0801L46.9238-82.0801Q43.3594-82.0801 41.0889-81.3232Q38.8184-80.5664 37.1338-79.2236Q35.4492-77.8809 33.7402-76.0254L16.2598-57.0312Q14.7461-55.3711 13.916-53.9307Q13.0859-52.4902 12.7686-50.8301Q12.4512-49.1699 12.4512-46.7285L12.4512-23.7305Q12.4512-21.3379 12.7686-19.6533Q13.0859-17.9688 13.916-16.5527Q14.7461-15.1367 16.2598-13.4766L33.7402 5.56641Q35.4492 7.37305 37.1338 8.74023Q38.8184 10.1074 41.0889 10.8398Q43.3594 11.5723 46.9238 11.5723ZM48.6816 5.61523Q45.8008 5.61523 44.1162 5.12695Q42.4316 4.63867 41.1621 3.58887Q39.8926 2.53906 38.2812 0.78125L21.6797-17.1875Q20.2148-18.7988 19.7266-20.1904Q19.2383-21.582 19.2383-24.3164L19.2383-46.1426Q19.2383-48.877 19.7266-50.2686Q20.2148-51.6602 21.6797-53.3203L38.2812-71.2891Q39.8926-72.998 41.1621-74.0479Q42.4316-75.0977 44.1162-75.5859Q45.8008-76.0742 48.6816-76.0742L72.9492-76.0742Q75.8301-76.0742 77.4902-75.5859Q79.1504-75.0977 80.4443-74.0479Q81.7383-72.998 83.3496-71.2891L99.9023-53.3203Q101.416-51.6602 101.88-50.2686Q102.344-48.877 102.344-46.1426L102.344-24.3164Q102.344-21.582 101.88-20.1904Q101.416-18.7988 99.9023-17.1875L83.3496 0.78125Q81.7383 2.53906 80.4443 3.58887Q79.1504 4.63867 77.4902 5.12695Q75.8301 5.61523 72.9492 5.61523Z"/>
   <path class="multicolor-0:systemRedColor hierarchical-1:primary SFSymbolsPreviewFF3B30" d="M60.8398-26.5137Q63.7695-26.5137 63.7695-29.6875L64.3555-55.8105Q64.4043-57.3242 63.4033-58.3008Q62.4023-59.2773 60.791-59.2773Q59.1797-59.2773 58.2031-58.3008Q57.2266-57.3242 57.2754-55.8105L57.7637-29.6875Q57.8125-26.5137 60.8398-26.5137ZM60.8398-11.377Q62.6465-11.377 64.0137-12.6709Q65.3809-13.9648 65.3809-15.7715Q65.3809-17.627 64.0381-18.9209Q62.6953-20.2148 60.8398-20.2148Q58.9844-20.2148 57.6416-18.9209Q56.2988-17.627 56.2988-15.7715Q56.2988-13.9648 57.6416-12.6709Q58.9844-11.377 60.8398-11.377Z"/>
  </g>
  <g id="Thin-M" transform="matrix(1 0 0 1 796.705 1126)">
   <path class="multicolor-0:systemRedColor hierarchical-0:secondary SFSymbolsPreviewFF3B30" d="M47.0215 10.8887L72.3633 10.8887Q76.4648 10.8887 78.9307 10.0586Q81.3965 9.22852 83.1055 7.69043Q84.8145 6.15234 86.6699 4.15039L103.467-13.6719Q104.834-15.1367 105.615-16.4307Q106.396-17.7246 106.689-19.3359Q106.982-20.9473 106.982-23.2422L106.982-47.2168Q106.982-49.5605 106.689-51.1475Q106.396-52.7344 105.615-54.0527Q104.834-55.3711 103.467-56.8359L86.6699-74.6582Q84.8145-76.6602 83.1055-78.1738Q81.3965-79.6875 78.9307-80.5664Q76.4648-81.4453 72.3633-81.4453L47.0215-81.4453Q42.9199-81.4453 40.5029-80.5664Q38.0859-79.6875 36.3525-78.1738Q34.6191-76.6602 32.7637-74.6582L15.9668-56.8359Q14.5996-55.3711 13.8184-54.0527Q13.0371-52.7344 12.7441-51.1475Q12.4512-49.5605 12.4512-47.2168L12.4512-23.2422Q12.4512-20.9473 12.7441-19.3359Q13.0371-17.7246 13.8184-16.4307Q14.5996-15.1367 15.9668-13.6719L32.7637 4.15039Q34.6191 6.15234 36.3525 7.69043Q38.0859 9.22852 40.5029 10.0586Q42.9199 10.8887 47.0215 10.8887ZM47.6074 7.42188Q44.1895 7.42188 42.2363 6.78711Q40.2832 6.15234 38.8184 4.88281Q37.3535 3.61328 35.4004 1.5625L18.8477-16.0156Q17.2852-17.6758 16.7969-19.1406Q16.3086-20.6055 16.3086-23.4375L16.3086-47.0215Q16.3086-49.8535 16.7969-51.3428Q17.2852-52.832 18.8477-54.4922L35.4004-72.0215Q37.3535-74.1211 38.8184-75.415Q40.2832-76.709 42.2363-77.3193Q44.1895-77.9297 47.6074-77.9297L71.8262-77.9297Q75.2441-77.9297 77.1973-77.3193Q79.1504-76.709 80.6152-75.415Q82.0801-74.1211 84.0332-72.0215L100.586-54.4922Q102.148-52.832 102.637-51.3428Q103.125-49.8535 103.125-47.0215L103.125-23.4375Q103.125-20.6055 102.637-19.1406Q102.148-17.6758 100.586-16.0156L84.0332 1.5625Q82.0801 3.61328 80.6152 4.88281Q79.1504 6.15234 77.1973 6.78711Q75.2441 7.42188 71.8262 7.42188Z"/>
   <path class="multicolor-0:systemRedColor hierarchical-1:primary SFSymbolsPreviewFF3B30" d="M59.7168-26.5625Q61.6699-26.5625 61.6699-28.8574L62.0605-55.4199Q62.0605-56.4453 61.4258-57.1045Q60.791-57.7637 59.7168-57.7637Q58.6426-57.7637 57.9834-57.1045Q57.3242-56.4453 57.3242-55.4199L57.7148-28.8574Q57.7148-26.5625 59.7168-26.5625ZM59.7168-12.4023Q61.1816-12.4023 62.2314-13.4521Q63.2812-14.502 63.2812-15.918Q63.2812-17.3828 62.2559-18.4082Q61.2305-19.4336 59.7168-19.4336Q58.2031-19.4336 57.1777-18.4082Q56.1523-17.3828 56.1523-15.918Q56.1523-14.502 57.1777-13.4521Q58.2031-12.4023 59.7168-12.4023Z"/>
  </g>
  <g id="Ultralight-M" transform="matrix(1 0 0 1 500.556 1126)">
   <path class="multicolor-0:systemRedColor hierarchical-0:secondary SFSymbolsPreviewFF3B30" d="M47.1191 10.5469L71.1914 10.5469Q75.5859 10.5469 78.125 9.64355Q80.6641 8.74023 82.3975 7.12891Q84.1309 5.51758 86.0352 3.4668L102.49-13.7695Q103.809-15.1855 104.541-16.4062Q105.273-17.627 105.566-19.165Q105.859-20.7031 105.859-23.0469L105.859-47.4609Q105.859-49.8047 105.566-51.3428Q105.273-52.8809 104.541-54.126Q103.809-55.3711 102.49-56.7871L86.0352-73.9746Q84.1309-76.0254 82.3975-77.6367Q80.6641-79.248 78.125-80.1758Q75.5859-81.1035 71.1914-81.1035L47.1191-81.1035Q42.7246-81.1035 40.21-80.1758Q37.6953-79.248 35.9619-77.6367Q34.2285-76.0254 32.2266-73.9746L15.8203-56.7871Q14.502-55.3711 13.7451-54.126Q12.9883-52.8809 12.7197-51.3428Q12.4512-49.8047 12.4512-47.4609L12.4512-23.0469Q12.4512-20.7031 12.7197-19.165Q12.9883-17.627 13.7451-16.4062Q14.502-15.1855 15.8203-13.7695L32.2266 3.4668Q34.2285 5.51758 35.9619 7.12891Q37.6953 8.74023 40.21 9.64355Q42.7246 10.5469 47.1191 10.5469ZM47.0703 8.34961Q43.3594 8.34961 41.2598 7.66602Q39.1602 6.98242 37.5977 5.56641Q36.0352 4.15039 33.8867 1.9043L17.3828-15.3809Q15.7715-17.0898 15.2832-18.6035Q14.7949-20.1172 14.7949-22.998L14.7949-47.5098Q14.7949-50.3906 15.2832-51.9287Q15.7715-53.4668 17.3828-55.127L33.8867-72.4121Q36.0352-74.6582 37.5977-76.0742Q39.1602-77.4902 41.2598-78.1738Q43.3594-78.8574 47.0703-78.8574L71.2402-78.8574Q74.9512-78.8574 77.0264-78.1738Q79.1016-77.4902 80.6885-76.0742Q82.2754-74.6582 84.4238-72.4121L100.928-55.127Q102.49-53.4668 102.979-51.9287Q103.467-50.3906 103.467-47.5098L103.467-22.998Q103.467-20.1172 102.979-18.6035Q102.49-17.0898 100.928-15.3809L84.4238 1.9043Q82.2754 4.15039 80.6885 5.56641Q79.1016 6.98242 77.0264 7.66602Q74.9512 8.34961 71.2402 8.34961Z"/>
   <path class="multicolor-0:systemRedColor hierarchical-1:primary SFSymbolsPreviewFF3B30" d="M59.1797-26.6113Q60.5957-26.6113 60.5957-28.418L60.8887-55.1758Q60.8887-56.0059 60.4492-56.4941Q60.0098-56.9824 59.1797-56.9824Q58.3496-56.9824 57.8857-56.4941Q57.4219-56.0059 57.4219-55.1758L57.7148-28.418Q57.666-26.6113 59.1797-26.6113ZM59.1797-12.8906Q60.4492-12.8906 61.3281-13.8428Q62.207-14.7949 62.207-16.0156Q62.207-17.2852 61.3281-18.1885Q60.4492-19.0918 59.1797-19.0918Q57.8613-19.0918 56.958-18.1885Q56.0547-17.2852 56.0547-16.0156Q56.0547-14.7949 56.958-13.8428Q57.8613-12.8906 59.1797-12.8906Z"/>
  </g>
  <g id="Black-S" transform="matrix(1 0 0 1 2880.96 696)">
   <path class="multicolor-0:systemRedColor hierarchical-0:secondary SFSymbolsPreviewFF3B30" d="M40.332 5.46875L64.5508 5.46875Q67.2852 5.46875 69.6777 4.78516Q72.0703 4.10156 74.0967 2.75879Q76.123 1.41602 77.7344-0.537109L90.9668-16.2598Q93.4082-19.1895 94.2627-21.5332Q95.1172-23.877 95.1172-27.7344L95.1172-42.7734Q95.1172-46.6797 94.2627-48.999Q93.4082-51.3184 90.9668-54.248L77.7344-69.9707Q76.123-71.9238 74.0967-73.2666Q72.0703-74.6094 69.6777-75.293Q67.2852-75.9766 64.5508-75.9766L40.332-75.9766Q37.5977-75.9766 35.2051-75.293Q32.8125-74.6094 30.8105-73.2666Q28.8086-71.9238 27.1484-69.9707L13.916-54.248Q11.4746-51.3184 10.6201-48.999Q9.76562-46.6797 9.76562-42.7734L9.76562-27.7344Q9.76562-23.877 10.6201-21.5332Q11.4746-19.1895 13.916-16.2598L27.1484-0.537109Q28.8086 1.41602 30.8105 2.75879Q32.8125 4.10156 35.2051 4.78516Q37.5977 5.46875 40.332 5.46875ZM41.0645-8.20312Q39.6973-8.20312 38.6475-8.49609Q37.5977-8.78906 36.792-9.39941Q35.9863-10.0098 35.2539-10.8398L25.7324-22.0215Q24.6582-23.291 24.2676-24.6094Q23.877-25.9277 23.877-28.0762L23.877-42.4316Q23.877-44.5801 24.2676-45.8984Q24.6582-47.2168 25.7324-48.4863L35.2539-59.668Q35.9863-60.5469 36.792-61.1328Q37.5977-61.7188 38.6475-62.0117Q39.6973-62.3047 41.0645-62.3047L63.8184-62.3047Q65.2344-62.3047 66.2598-62.0117Q67.2852-61.7188 68.0908-61.1328Q68.8965-60.5469 69.6289-59.668L79.1504-48.4863Q80.2734-47.2168 80.6396-45.8984Q81.0059-44.5801 81.0059-42.4316L81.0059-28.0762Q81.0059-25.9277 80.6396-24.6094Q80.2734-23.291 79.1504-22.0215L69.6289-10.8398Q68.8965-10.0098 68.0908-9.39941Q67.2852-8.78906 66.2598-8.49609Q65.2344-8.20312 63.8184-8.20312Z"/>
   <path class="multicolor-0:systemRedColor hierarchical-1:primary SFSymbolsPreviewFF3B30" d="M52.4902-31.4941Q57.5195-31.4941 57.8125-36.5723L58.4961-47.1191Q58.6914-49.8047 57.0068-51.416Q55.3223-53.0273 52.4414-53.0273Q49.6094-53.0273 47.9004-51.416Q46.1914-49.8047 46.3867-47.1191L47.0703-36.4746Q47.3633-31.4941 52.4902-31.4941ZM52.4902-17.627Q55.2246-17.627 56.9336-18.9941Q58.6426-20.3613 58.6426-22.9004Q58.6426-25.3906 56.9336-26.7822Q55.2246-28.1738 52.4902-28.1738Q49.8047-28.1738 48.0225-26.8066Q46.2402-25.4395 46.2402-22.9004Q46.2402-20.3613 48.0225-18.9941Q49.8047-17.627 52.4902-17.627Z"/>
  </g>
  <g id="Heavy-S" transform="matrix(1 0 0 1 2585.13 696)">
   <path class="multicolor-0:systemRedColor hierarchical-0:secondary SFSymbolsPreviewFF3B30" d="M39.4531 4.63867L63.6719 4.63867Q66.2598 4.63867 68.4814 4.02832Q70.7031 3.41797 72.5586 2.17285Q74.4141 0.927734 75.9277-0.878906L89.4043-16.6504Q91.748-19.4336 92.5537-21.6553Q93.3594-23.877 93.3594-27.4902L93.3594-43.0176Q93.3594-46.6797 92.5537-48.877Q91.748-51.0742 89.4043-53.8574L75.9277-69.6289Q74.4141-71.4355 72.5586-72.6562Q70.7031-73.877 68.4814-74.5117Q66.2598-75.1465 63.6719-75.1465L39.4531-75.1465Q36.8652-75.1465 34.6436-74.5117Q32.4219-73.877 30.5908-72.6562Q28.7598-71.4355 27.1973-69.6289L13.7207-53.8574Q11.377-51.0742 10.5713-48.877Q9.76562-46.6797 9.76562-43.0176L9.76562-27.4902Q9.76562-23.877 10.5713-21.6553Q11.377-19.4336 13.7207-16.6504L27.1973-0.878906Q28.7598 0.927734 30.5908 2.17285Q32.4219 3.41797 34.6436 4.02832Q36.8652 4.63867 39.4531 4.63867ZM40.625-7.42188Q39.1602-7.42188 38.1104-7.71484Q37.0605-8.00781 36.2549-8.61816Q35.4492-9.22852 34.668-10.1074L24.3164-22.0703Q23.2422-23.3398 22.8516-24.585Q22.4609-25.8301 22.4609-27.9297L22.4609-42.5293Q22.4609-44.6777 22.8516-45.9229Q23.2422-47.168 24.3164-48.4375L34.668-60.4004Q35.4492-61.3281 36.2549-61.9141Q37.0605-62.5 38.1104-62.7686Q39.1602-63.0371 40.625-63.0371L62.5-63.0371Q64.0137-63.0371 65.0391-62.7686Q66.0645-62.5 66.8701-61.9141Q67.6758-61.3281 68.457-60.4004L78.8086-48.4375Q79.9316-47.168 80.2979-45.9229Q80.6641-44.6777 80.6641-42.5293L80.6641-27.9297Q80.6641-25.8301 80.2979-24.585Q79.9316-23.3398 78.8086-22.0703L68.457-10.1074Q67.6758-9.22852 66.8701-8.61816Q66.0645-8.00781 65.0391-7.71484Q64.0137-7.42188 62.5-7.42188Z"/>
   <path class="multicolor-0:systemRedColor hierarchical-1:primary SFSymbolsPreviewFF3B30" d="M51.6113-30.7617Q56.2012-30.7617 56.4453-35.4004L57.1289-48.1934Q57.2754-50.6348 55.7129-52.124Q54.1504-53.6133 51.5625-53.6133Q48.9746-53.6133 47.4121-52.124Q45.8496-50.6348 45.9961-48.1934L46.6309-35.3516Q46.875-30.7617 51.6113-30.7617ZM51.6113-17.1387Q54.1016-17.1387 55.7129-18.4814Q57.3242-19.8242 57.3242-22.168Q57.3242-24.5117 55.7129-25.8545Q54.1016-27.1973 51.6113-27.1973Q49.1211-27.1973 47.4365-25.8789Q45.752-24.5605 45.752-22.168Q45.752-19.8242 47.4365-18.4814Q49.1211-17.1387 51.6113-17.1387Z"/>
  </g>
  <g id="Bold-S" transform="matrix(1 0 0 1 2289.39 696)">
   <path class="multicolor-0:systemRedColor hierarchical-0:secondary SFSymbolsPreviewFF3B30" d="M38.4766 3.75977L62.6465 3.75977Q65.1367 3.75977 67.1631 3.19824Q69.1895 2.63672 70.8496 1.51367Q72.5098 0.390625 73.877-1.26953L87.6465-17.1387Q89.8926-19.7266 90.6494-21.7773Q91.4062-23.8281 91.4062-27.1973L91.4062-43.3105Q91.4062-46.6797 90.6494-48.7305Q89.8926-50.7812 87.6465-53.3691L73.877-69.2383Q72.5098-70.8984 70.8496-71.9971Q69.1895-73.0957 67.1631-73.6816Q65.1367-74.2676 62.6465-74.2676L38.4766-74.2676Q36.0352-74.2676 34.0088-73.6816Q31.9824-73.0957 30.3467-71.9971Q28.7109-70.8984 27.2949-69.2383L13.4766-53.3691Q11.2793-50.7812 10.5225-48.7305Q9.76562-46.6797 9.76562-43.3105L9.76562-27.1973Q9.76562-23.8281 10.5225-21.7773Q11.2793-19.7266 13.4766-17.1387L27.2949-1.26953Q28.7109 0.390625 30.3467 1.51367Q31.9824 2.63672 34.0088 3.19824Q36.0352 3.75977 38.4766 3.75977ZM40.0879-6.5918Q38.5742-6.5918 37.5244-6.86035Q36.4746-7.12891 35.6689-7.73926Q34.8633-8.34961 34.0332-9.27734L22.7539-22.1191Q21.6797-23.3887 21.2891-24.5605Q20.8984-25.7324 20.8984-27.832L20.8984-42.6758Q20.8984-44.7754 21.2891-45.9473Q21.6797-47.1191 22.7539-48.3887L34.0332-61.2305Q34.8633-62.1582 35.6689-62.7686Q36.4746-63.3789 37.5244-63.6475Q38.5742-63.916 40.0879-63.916L61.0352-63.916Q62.5977-63.916 63.6475-63.6475Q64.6973-63.3789 65.5029-62.7686Q66.3086-62.1582 67.1387-61.2305L78.418-48.3887Q79.541-47.1191 79.9072-45.9473Q80.2734-44.7754 80.2734-42.6758L80.2734-27.832Q80.2734-25.7324 79.9072-24.5605Q79.541-23.3887 78.418-22.1191L67.1387-9.27734Q66.3086-8.34961 65.5029-7.73926Q64.6973-7.12891 63.6475-6.86035Q62.5977-6.5918 61.0352-6.5918Z"/>
   <path class="multicolor-0:systemRedColor hierarchical-1:primary SFSymbolsPreviewFF3B30" d="M50.6348-29.9316Q54.7363-29.9316 54.9316-34.1309L55.5664-49.4141Q55.7129-51.5625 54.2969-52.9297Q52.8809-54.2969 50.5859-54.2969Q48.291-54.2969 46.875-52.9541Q45.459-51.6113 45.6055-49.4629L46.1914-34.082Q46.3867-29.9316 50.6348-29.9316ZM50.6348-16.6016Q52.8809-16.6016 54.3945-17.8955Q55.9082-19.1895 55.9082-21.3867Q55.9082-23.5352 54.3945-24.8535Q52.8809-26.1719 50.6348-26.1719Q48.3398-26.1719 46.8018-24.8535Q45.2637-23.5352 45.2637-21.3867Q45.2637-19.2383 46.8262-17.9199Q48.3887-16.6016 50.6348-16.6016Z"/>
  </g>
  <g id="Semibold-S" transform="matrix(1 0 0 1 1993.36 696)">
   <path class="multicolor-0:systemRedColor hierarchical-0:secondary SFSymbolsPreviewFF3B30" d="M37.793 3.125L61.9629 3.125Q64.3555 3.125 66.2354 2.58789Q68.1152 2.05078 69.6289 1.02539Q71.1426 0 72.4609-1.51367L86.4258-17.4316Q88.5742-19.873 89.3066-21.8506Q90.0391-23.8281 90.0391-27.002L90.0391-43.457Q90.0391-46.6797 89.3066-48.6328Q88.5742-50.5859 86.4258-53.0273L72.4609-68.9941Q71.1426-70.5078 69.6289-71.5332Q68.1152-72.5586 66.2354-73.0957Q64.3555-73.6328 61.9629-73.6328L37.793-73.6328Q35.4492-73.6328 33.5693-73.0957Q31.6895-72.5586 30.1758-71.5332Q28.6621-70.5078 27.2949-68.9941L13.3301-53.0273Q11.2305-50.5859 10.498-48.6328Q9.76562-46.6797 9.76562-43.457L9.76562-27.002Q9.76562-23.8281 10.498-21.8506Q11.2305-19.873 13.3301-17.4316L27.2949-1.51367Q28.6621 0 30.1758 1.02539Q31.6895 2.05078 33.5693 2.58789Q35.4492 3.125 37.793 3.125ZM39.7461-6.00586Q38.1836-6.00586 37.1094-6.27441Q36.0352-6.54297 35.2295-7.15332Q34.4238-7.76367 33.5449-8.69141L21.6309-22.168Q20.5566-23.4375 20.1904-24.5361Q19.8242-25.6348 19.8242-27.6855L19.8242-42.7734Q19.8242-44.8242 20.1904-45.9473Q20.5566-47.0703 21.6309-48.3398L33.5449-61.7676Q34.4238-62.7441 35.2295-63.3545Q36.0352-63.9648 37.1094-64.209Q38.1836-64.4531 39.7461-64.4531L60.0098-64.4531Q61.6211-64.4531 62.6709-64.209Q63.7207-63.9648 64.5264-63.3545Q65.332-62.7441 66.2109-61.7676L78.1738-48.3398Q79.248-47.0703 79.6143-45.9473Q79.9805-44.8242 79.9805-42.7734L79.9805-27.6855Q79.9805-25.6348 79.6143-24.5361Q79.248-23.4375 78.1738-22.168L66.2109-8.69141Q65.332-7.76367 64.5264-7.15332Q63.7207-6.54297 62.6709-6.27441Q61.6211-6.00586 60.0098-6.00586Z"/>
   <path class="multicolor-0:systemRedColor hierarchical-1:primary SFSymbolsPreviewFF3B30" d="M49.9023-29.3457Q53.7109-29.3457 53.8086-33.252L54.4922-50.2441Q54.5898-52.1973 53.2715-53.4668Q51.9531-54.7363 49.8535-54.7363Q47.7539-54.7363 46.46-53.4912Q45.166-52.2461 45.2637-50.293L45.8496-33.2031Q45.9961-29.3457 49.9023-29.3457ZM49.9023-16.2109Q51.9531-16.2109 53.418-17.4805Q54.8828-18.75 54.8828-20.8008Q54.8828-22.8516 53.4424-24.1211Q52.002-25.3906 49.9023-25.3906Q47.8027-25.3906 46.3379-24.1211Q44.873-22.8516 44.873-20.8008Q44.873-18.7988 46.3379-17.5049Q47.8027-16.2109 49.9023-16.2109Z"/>
  </g>
  <g id="Medium-S" transform="matrix(1 0 0 1 1697.17 696)">
   <path class="multicolor-0:systemRedColor hierarchical-0:secondary SFSymbolsPreviewFF3B30" d="M37.3047 2.68555L61.4258 2.68555Q63.7695 2.68555 65.5273 2.17285Q67.2852 1.66016 68.7256 0.708008Q70.166-0.244141 71.3867-1.70898L85.498-17.6758Q87.5977-20.0195 88.3057-21.8994Q89.0137-23.7793 89.0137-26.8555L89.0137-43.6035Q89.0137-46.6797 88.3057-48.5596Q87.5977-50.4395 85.498-52.7832L71.3867-68.75Q70.166-70.2148 68.7256-71.167Q67.2852-72.1191 65.5273-72.6318Q63.7695-73.1445 61.4258-73.1445L37.3047-73.1445Q35.0098-73.1445 33.2275-72.6318Q31.4453-72.1191 30.0293-71.167Q28.6133-70.2148 27.3438-68.75L13.1836-52.7832Q11.1328-50.4395 10.4492-48.5596Q9.76562-46.6797 9.76562-43.6035L9.76562-26.8555Q9.76562-23.7793 10.4492-21.8994Q11.1328-20.0195 13.1836-17.6758L27.3438-1.70898Q28.6133-0.244141 30.0293 0.708008Q31.4453 1.66016 33.2275 2.17285Q35.0098 2.68555 37.3047 2.68555ZM39.4531-5.56641Q37.8418-5.56641 36.7676-5.81055Q35.6934-6.05469 34.8877-6.66504Q34.082-7.27539 33.2031-8.30078L20.8008-22.168Q19.7266-23.4375 19.3604-24.5117Q18.9941-25.5859 18.9941-27.6367L18.9941-42.8223Q18.9941-44.9219 19.3604-45.9717Q19.7266-47.0215 20.8008-48.291L33.2031-62.207Q34.082-63.1836 34.8877-63.7939Q35.6934-64.4043 36.7676-64.6484Q37.8418-64.8926 39.4531-64.8926L59.2773-64.8926Q60.8887-64.8926 61.9385-64.6484Q62.9883-64.4043 63.7939-63.7939Q64.5996-63.1836 65.5273-62.207L77.9297-48.291Q79.0527-47.0215 79.4189-45.9717Q79.7852-44.9219 79.7852-42.8223L79.7852-27.6367Q79.7852-25.5859 79.4189-24.5117Q79.0527-23.4375 77.9297-22.168L65.5273-8.30078Q64.5996-7.27539 63.7939-6.66504Q62.9883-6.05469 61.9385-5.81055Q60.8887-5.56641 59.2773-5.56641Z"/>
   <path class="multicolor-0:systemRedColor hierarchical-1:primary SFSymbolsPreviewFF3B30" d="M49.4141-28.9062Q52.9785-28.9062 53.0762-32.5684L53.7109-50.8789Q53.8086-52.6855 52.5635-53.8818Q51.3184-55.0781 49.3652-55.0781Q47.4121-55.0781 46.2158-53.9062Q45.0195-52.7344 45.0684-50.9277L45.6543-32.5684Q45.8008-28.9062 49.4141-28.9062ZM49.4141-15.918Q51.3672-15.918 52.7832-17.1875Q54.1992-18.457 54.1992-20.3613Q54.1992-22.3633 52.8076-23.6084Q51.416-24.8535 49.4141-24.8535Q47.4121-24.8535 46.0205-23.584Q44.6289-22.3145 44.6289-20.3613Q44.6289-18.457 46.0449-17.1875Q47.4609-15.918 49.4141-15.918Z"/>
  </g>
  <g id="Regular-S" transform="matrix(1 0 0 1 1401.14 696)">
   <path class="multicolor-0:systemRedColor hierarchical-0:secondary SFSymbolsPreviewFF3B30" d="M36.6211 2.05078L60.7422 2.05078Q62.9883 2.05078 64.624 1.58691Q66.2598 1.12305 67.5537 0.244141Q68.8477-0.634766 70.0195-1.95312L84.3262-17.9688Q86.3281-20.2148 86.9873-21.9971Q87.6465-23.7793 87.6465-26.6602L87.6465-43.7988Q87.6465-46.6797 86.9873-48.4619Q86.3281-50.2441 84.3262-52.4902L70.0195-68.5059Q68.8477-69.8242 67.5537-70.7031Q66.2598-71.582 64.624-72.0459Q62.9883-72.5098 60.7422-72.5098L36.6211-72.5098Q34.4238-72.5098 32.7881-72.0459Q31.1523-71.582 29.8584-70.7031Q28.5645-69.8242 27.3926-68.5059L13.0371-52.4902Q11.084-50.2441 10.4248-48.4619Q9.76562-46.6797 9.76562-43.7988L9.76562-26.6602Q9.76562-23.7793 10.4248-21.9971Q11.084-20.2148 13.0371-17.9688L27.3926-1.95312Q28.5645-0.634766 29.8584 0.244141Q31.1523 1.12305 32.7881 1.58691Q34.4238 2.05078 36.6211 2.05078ZM39.1113-4.98047Q37.4512-4.98047 36.377-5.22461Q35.3027-5.46875 34.4971-6.0791Q33.6914-6.68945 32.7637-7.71484L19.7266-22.2168Q18.6523-23.4863 18.2861-24.4873Q17.9199-25.4883 17.9199-27.5391L17.9199-42.9199Q17.9199-44.9707 18.2861-45.9717Q18.6523-46.9727 19.7266-48.2422L32.7637-62.7441Q33.6914-63.7695 34.4971-64.3799Q35.3027-64.9902 36.377-65.2344Q37.4512-65.4785 39.1113-65.4785L58.252-65.4785Q59.9609-65.4785 61.0107-65.2344Q62.0605-64.9902 62.8662-64.3799Q63.6719-63.7695 64.6484-62.7441L77.6855-48.2422Q78.7598-46.9727 79.126-45.9717Q79.4922-44.9707 79.4922-42.9199L79.4922-27.5391Q79.4922-25.4883 79.126-24.4873Q78.7598-23.4863 77.6855-22.2168L64.6484-7.71484Q63.6719-6.68945 62.8662-6.0791Q62.0605-5.46875 61.0107-5.22461Q59.9609-4.98047 58.252-4.98047Z"/>
   <path class="multicolor-0:systemRedColor hierarchical-1:primary SFSymbolsPreviewFF3B30" d="M48.7305-28.3203Q51.9531-28.3203 52.002-31.6895L52.6367-51.709Q52.6855-53.3203 51.5381-54.4189Q50.3906-55.5176 48.6816-55.5176Q46.9238-55.5176 45.8252-54.4434Q44.7266-53.3691 44.7754-51.7578L45.3125-31.6895Q45.4102-28.3203 48.7305-28.3203ZM48.7305-15.5273Q50.4883-15.5273 51.8311-16.7725Q53.1738-18.0176 53.1738-19.8242Q53.1738-21.6797 51.8555-22.9004Q50.5371-24.1211 48.7305-24.1211Q46.875-24.1211 45.5566-22.876Q44.2383-21.6309 44.2383-19.8242Q44.2383-18.0664 45.5811-16.7969Q46.9238-15.5273 48.7305-15.5273Z"/>
  </g>
  <g id="Light-S" transform="matrix(1 0 0 1 1105.16 696)">
   <path class="multicolor-0:systemRedColor hierarchical-0:secondary SFSymbolsPreviewFF3B30" d="M36.7188 1.61133L59.1797 1.61133Q61.8164 1.61133 63.5498 1.07422Q65.2832 0.537109 66.6016-0.463867Q67.9199-1.46484 69.2383-2.88086L83.0566-18.1152Q84.9121-20.166 85.5469-21.8506Q86.1816-23.5352 86.1816-26.3672L86.1816-44.1406Q86.1816-46.9727 85.5469-48.6328Q84.9121-50.293 83.0566-52.3926L69.2383-67.5781Q67.9199-68.9941 66.6016-69.9951Q65.2832-70.9961 63.5498-71.5332Q61.8164-72.0703 59.1797-72.0703L36.7188-72.0703Q34.1309-72.0703 32.373-71.5332Q30.6152-70.9961 29.3213-69.9951Q28.0273-68.9941 26.709-67.5781L12.8418-52.3926Q10.9863-50.293 10.376-48.6328Q9.76562-46.9727 9.76562-44.1406L9.76562-26.3672Q9.76562-23.5352 10.376-21.8506Q10.9863-20.166 12.8418-18.1152L26.709-2.88086Q28.0273-1.46484 29.3213-0.463867Q30.6152 0.537109 32.373 1.07422Q34.1309 1.61133 36.7188 1.61133ZM38.4277-3.75977Q36.377-3.75977 35.1318-4.10156Q33.8867-4.44336 32.9346-5.2002Q31.9824-5.95703 30.8105-7.22656L17.8223-21.4355Q16.6992-22.7051 16.333-23.7793Q15.9668-24.8535 15.9668-26.9531L15.9668-43.5059Q15.9668-45.6543 16.333-46.7041Q16.6992-47.7539 17.8223-49.0234L30.8105-63.2812Q31.9824-64.502 32.9346-65.2588Q33.8867-66.0156 35.1318-66.3574Q36.377-66.6992 38.4277-66.6992L57.5195-66.6992Q59.5703-66.6992 60.8154-66.3574Q62.0605-66.0156 62.9883-65.2588Q63.916-64.502 65.1367-63.2812L78.125-49.0234Q79.248-47.7539 79.6143-46.7041Q79.9805-45.6543 79.9805-43.5059L79.9805-26.9531Q79.9805-24.8535 79.6143-23.7793Q79.248-22.7051 78.125-21.4355L65.1367-7.22656Q63.916-5.95703 62.9883-5.2002Q62.0605-4.44336 60.8154-4.10156Q59.5703-3.75977 57.5195-3.75977Z"/>
   <path class="multicolor-0:systemRedColor hierarchical-1:primary SFSymbolsPreviewFF3B30" d="M47.998-28.3691Q50.5371-28.3691 50.5859-31.1523L51.0742-51.4648Q51.123-52.7832 50.2197-53.6621Q49.3164-54.541 47.9492-54.541Q46.5332-54.541 45.6543-53.6621Q44.7754-52.7832 44.8242-51.4648L45.2637-31.1523Q45.3613-28.3691 47.998-28.3691ZM47.998-16.2109Q49.5117-16.2109 50.6592-17.3096Q51.8066-18.4082 51.8066-19.9219Q51.8066-21.5332 50.6836-22.583Q49.5605-23.6328 47.998-23.6328Q46.3867-23.6328 45.2637-22.5586Q44.1406-21.4844 44.1406-19.9219Q44.1406-18.4082 45.2881-17.3096Q46.4355-16.2109 47.998-16.2109Z"/>
  </g>
  <g id="Thin-S" transform="matrix(1 0 0 1 809.425 696)">
   <path class="multicolor-0:systemRedColor hierarchical-0:secondary SFSymbolsPreviewFF3B30" d="M36.8164 1.02539L57.1777 1.02539Q60.2539 1.02539 62.1582 0.390625Q64.0625-0.244141 65.3809-1.41602Q66.6992-2.58789 68.1641-4.10156L81.3965-18.2617Q83.1055-20.1172 83.667-21.6553Q84.2285-23.1934 84.2285-25.9766L84.2285-44.5312Q84.2285-47.3145 83.667-48.8525Q83.1055-50.3906 81.3965-52.1973L68.1641-66.4062Q66.6992-67.9199 65.3809-69.0918Q64.0625-70.2637 62.1582-70.8984Q60.2539-71.5332 57.1777-71.5332L36.8164-71.5332Q33.7402-71.5332 31.8604-70.8984Q29.9805-70.2637 28.6377-69.0918Q27.2949-67.9199 25.8301-66.4062L12.5977-52.1973Q10.8887-50.3906 10.3271-48.8525Q9.76562-47.3145 9.76562-44.5312L9.76562-25.9766Q9.76562-23.1934 10.3271-21.6553Q10.8887-20.1172 12.5977-18.2617L25.8301-4.10156Q27.2949-2.58789 28.6377-1.41602Q29.9805-0.244141 31.8604 0.390625Q33.7402 1.02539 36.8164 1.02539ZM37.5-2.14844Q34.9121-2.14844 33.4473-2.6123Q31.9824-3.07617 30.8594-4.02832Q29.7363-4.98047 28.2715-6.54297L15.2832-20.4102Q14.1113-21.6797 13.7207-22.8271Q13.3301-23.9746 13.3301-26.1719L13.3301-44.3359Q13.3301-46.5332 13.7207-47.6562Q14.1113-48.7793 15.2832-50.0977L28.2715-63.916Q29.7363-65.4785 30.8594-66.4551Q31.9824-67.4316 33.4473-67.8711Q34.9121-68.3105 37.5-68.3105L56.4941-68.3105Q59.0332-68.3105 60.5225-67.8711Q62.0117-67.4316 63.1348-66.4551Q64.2578-65.4785 65.7227-63.916L78.7109-50.0977Q79.8828-48.7793 80.2734-47.6562Q80.6641-46.5332 80.6641-44.3359L80.6641-26.1719Q80.6641-23.9746 80.2734-22.8271Q79.8828-21.6797 78.7109-20.4102L65.7227-6.54297Q64.2578-4.98047 63.1348-4.02832Q62.0117-3.07617 60.5225-2.6123Q59.0332-2.14844 56.4941-2.14844Z"/>
   <path class="multicolor-0:systemRedColor hierarchical-1:primary SFSymbolsPreviewFF3B30" d="M46.9727-28.418Q48.6816-28.418 48.6816-30.3711L49.0234-51.123Q49.0723-52.002 48.4863-52.5879Q47.9004-53.1738 46.9238-53.1738Q45.9961-53.1738 45.4346-52.6123Q44.873-52.0508 44.873-51.123L45.2148-30.3711Q45.2148-28.418 46.9727-28.418ZM46.9727-17.1387Q48.1934-17.1387 49.0479-18.0176Q49.9023-18.8965 49.9023-20.0684Q49.9023-21.2891 49.0479-22.1436Q48.1934-22.998 46.9727-22.998Q45.7031-22.998 44.8486-22.1436Q43.9941-21.2891 43.9941-20.0684Q43.9941-18.8965 44.8486-18.0176Q45.7031-17.1387 46.9727-17.1387Z"/>
  </g>
  <g id="Ultralight-S" transform="matrix(1 0 0 1 513.202 696)">
   <path class="multicolor-0:systemRedColor hierarchical-0:secondary SFSymbolsPreviewFF3B30" d="M36.9141 0.732422L56.1035 0.732422Q59.4238 0.732422 61.4014 0.0488281Q63.3789-0.634766 64.7217-1.87988Q66.0645-3.125 67.627-4.73633L80.5664-18.3594Q82.1289-20.0684 82.6904-21.5332Q83.252-22.998 83.252-25.7324L83.252-44.7754Q83.252-47.5098 82.6904-48.9746Q82.1289-50.4395 80.5664-52.1484L67.627-65.7715Q66.0645-67.3828 64.7217-68.6279Q63.3789-69.873 61.4014-70.5566Q59.4238-71.2402 56.1035-71.2402L36.9141-71.2402Q33.5449-71.2402 31.5674-70.5566Q29.5898-69.873 28.2715-68.6279Q26.9531-67.3828 25.3906-65.7715L12.4512-52.1484Q10.8398-50.4395 10.3027-48.9746Q9.76562-47.5098 9.76562-44.7754L9.76562-25.7324Q9.76562-22.998 10.3027-21.5332Q10.8398-20.0684 12.4512-18.3594L25.3906-4.73633Q26.9531-3.125 28.2715-1.87988Q29.5898-0.634766 31.5674 0.0488281Q33.5449 0.732422 36.9141 0.732422ZM37.0117-1.36719Q34.1797-1.36719 32.5928-1.87988Q31.0059-2.39258 29.8096-3.44238Q28.6133-4.49219 26.9531-6.20117L14.0137-19.873Q12.793-21.1914 12.4023-22.3633Q12.0117-23.5352 12.0117-25.7812L12.0117-44.7266Q12.0117-46.9727 12.4023-48.1445Q12.793-49.3164 14.0137-50.6348L26.9531-64.3066Q28.6133-66.0156 29.8096-67.0654Q31.0059-68.1152 32.5928-68.6279Q34.1797-69.1406 37.0117-69.1406L56.0059-69.1406Q58.7891-69.1406 60.4004-68.6279Q62.0117-68.1152 63.208-67.0654Q64.4043-66.0156 66.0645-64.3066L79.0039-50.6348Q80.2246-49.3164 80.6152-48.1445Q81.0059-46.9727 81.0059-44.7266L81.0059-25.7812Q81.0059-23.5352 80.6152-22.3633Q80.2246-21.1914 79.0039-19.873L66.0645-6.20117Q64.4043-4.49219 63.208-3.44238Q62.0117-2.39258 60.4004-1.87988Q58.7891-1.36719 56.0059-1.36719Z"/>
   <path class="multicolor-0:systemRedColor hierarchical-1:primary SFSymbolsPreviewFF3B30" d="M46.4844-28.4668Q47.7539-28.4668 47.7539-30.0293L47.998-50.9277Q47.998-51.6602 47.583-52.0996Q47.168-52.5391 46.4844-52.5391Q45.752-52.5391 45.3369-52.0996Q44.9219-51.6602 44.9219-50.9277L45.166-30.0293Q45.2148-28.4668 46.4844-28.4668ZM46.4844-17.627Q47.5586-17.627 48.291-18.3838Q49.0234-19.1406 49.0234-20.166Q49.0234-21.1914 48.291-21.9238Q47.5586-22.6562 46.4844-22.6562Q45.3613-22.6562 44.6533-21.9238Q43.9453-21.1914 43.9453-20.166Q43.9453-19.1406 44.6777-18.3838Q45.4102-17.627 46.4844-17.627Z"/>
  </g>
 </g>
</svg>
