<?xml version="1.0" encoding="UTF-8"?>
<!--Generator: Apple Native CoreSVG 175-->
<!DOCTYPE svg
PUBLIC "-//W3C//DTD SVG 1.1//EN"
       "http://www.w3.org/Graphics/SVG/1.1/DTD/svg11.dtd">
<svg version="1.1" xmlns="http://www.w3.org/2000/svg" xmlns:xlink="http://www.w3.org/1999/xlink" width="3300" height="2200">
 <!--glyph: "uni100103.medium", point size: 100.0, font version: "17.0d11e1", template writer version: "65.1"-->
 <style>.hierarchical-0:tertiary {fill:#8E8E8E}
.hierarchical-1:primary {fill:#212121}

.SFSymbolsPreview212121 {fill:#212121;opacity:1.0}
.SFSymbolsPreview8E8E8E {fill:#8E8E8E;opacity:1.0}
</style>
 <g id="Notes">
  <rect height="2200" id="artboard" style="fill:white;opacity:1" width="3300" x="0" y="0"/>
  <line style="fill:none;stroke:black;opacity:1;stroke-width:0.5;" x1="263" x2="3036" y1="292" y2="292"/>
  <text style="stroke:none;fill:black;font-family:sans-serif;font-size:13;font-weight:bold;" transform="matrix(1 0 0 1 263 322)">Weight/Scale Variations</text>
  <text style="stroke:none;fill:black;font-family:sans-serif;font-size:13;text-anchor:middle;" transform="matrix(1 0 0 1 559.711 322)">Ultralight</text>
  <text style="stroke:none;fill:black;font-family:sans-serif;font-size:13;text-anchor:middle;" transform="matrix(1 0 0 1 856.422 322)">Thin</text>
  <text style="stroke:none;fill:black;font-family:sans-serif;font-size:13;text-anchor:middle;" transform="matrix(1 0 0 1 1153.13 322)">Light</text>
  <text style="stroke:none;fill:black;font-family:sans-serif;font-size:13;text-anchor:middle;" transform="matrix(1 0 0 1 1449.84 322)">Regular</text>
  <text style="stroke:none;fill:black;font-family:sans-serif;font-size:13;text-anchor:middle;" transform="matrix(1 0 0 1 1746.56 322)">Medium</text>
  <text style="stroke:none;fill:black;font-family:sans-serif;font-size:13;text-anchor:middle;" transform="matrix(1 0 0 1 2043.27 322)">Semibold</text>
  <text style="stroke:none;fill:black;font-family:sans-serif;font-size:13;text-anchor:middle;" transform="matrix(1 0 0 1 2339.98 322)">Bold</text>
  <text style="stroke:none;fill:black;font-family:sans-serif;font-size:13;text-anchor:middle;" transform="matrix(1 0 0 1 2636.69 322)">Heavy</text>
  <text style="stroke:none;fill:black;font-family:sans-serif;font-size:13;text-anchor:middle;" transform="matrix(1 0 0 1 2933.4 322)">Black</text>
  <line style="fill:none;stroke:black;opacity:1;stroke-width:0.5;" x1="263" x2="3036" y1="1903" y2="1903"/>
  <g transform="matrix(1 0 0 1 263 1933)">
   <path d="M9.24805 0.830078Q10.8691 0.830078 12.2949 0.214844Q13.7207-0.400391 14.8096-1.49414Q15.8984-2.58789 16.5186-4.01367Q17.1387-5.43945 17.1387-7.05078Q17.1387-8.66211 16.5186-10.0879Q15.8984-11.5137 14.8047-12.6074Q13.7109-13.7012 12.2852-14.3164Q10.8594-14.9316 9.23828-14.9316Q7.62695-14.9316 6.20117-14.3164Q4.77539-13.7012 3.69141-12.6074Q2.60742-11.5137 1.9873-10.0879Q1.36719-8.66211 1.36719-7.05078Q1.36719-5.43945 1.9873-4.01367Q2.60742-2.58789 3.69629-1.49414Q4.78516-0.400391 6.21094 0.214844Q7.63672 0.830078 9.24805 0.830078ZM9.24805-0.654297Q7.91992-0.654297 6.7627-1.14746Q5.60547-1.64062 4.73145-2.51953Q3.85742-3.39844 3.36426-4.56055Q2.87109-5.72266 2.87109-7.05078Q2.87109-8.37891 3.35938-9.54102Q3.84766-10.7031 4.72168-11.582Q5.5957-12.4609 6.75293-12.9541Q7.91016-13.4473 9.23828-13.4473Q10.5762-13.4473 11.7334-12.9541Q12.8906-12.4609 13.7695-11.582Q14.6484-10.7031 15.1465-9.54102Q15.6445-8.37891 15.6445-7.05078Q15.6445-5.72266 15.1514-4.56055Q14.6582-3.39844 13.7842-2.51953Q12.9102-1.64062 11.748-1.14746Q10.5859-0.654297 9.24805-0.654297ZM5.6543-7.05078Q5.6543-6.72852 5.85938-6.52832Q6.06445-6.32812 6.40625-6.32812L8.51562-6.32812L8.51562-4.20898Q8.51562-3.88672 8.71094-3.67676Q8.90625-3.4668 9.23828-3.4668Q9.56055-3.4668 9.77051-3.67676Q9.98047-3.88672 9.98047-4.20898L9.98047-6.32812L12.0898-6.32812Q12.4219-6.32812 12.627-6.52832Q12.832-6.72852 12.832-7.05078Q12.832-7.38281 12.627-7.58789Q12.4219-7.79297 12.0898-7.79297L9.98047-7.79297L9.98047-9.90234Q9.98047-10.2344 9.77051-10.4443Q9.56055-10.6543 9.23828-10.6543Q8.90625-10.6543 8.71094-10.4443Q8.51562-10.2344 8.51562-9.90234L8.51562-7.79297L6.40625-7.79297Q6.06445-7.79297 5.85938-7.58789Q5.6543-7.38281 5.6543-7.05078Z"/>
  </g>
  <g transform="matrix(1 0 0 1 281.867 1933)">
   <path d="M11.709 2.91016Q13.75 2.91016 15.5518 2.12891Q17.3535 1.34766 18.7305-0.0292969Q20.1074-1.40625 20.8887-3.20801Q21.6699-5.00977 21.6699-7.05078Q21.6699-9.0918 20.8887-10.8936Q20.1074-12.6953 18.7305-14.0723Q17.3535-15.4492 15.5469-16.2305Q13.7402-17.0117 11.6992-17.0117Q9.6582-17.0117 7.85645-16.2305Q6.05469-15.4492 4.68262-14.0723Q3.31055-12.6953 2.5293-10.8936Q1.74805-9.0918 1.74805-7.05078Q1.74805-5.00977 2.5293-3.20801Q3.31055-1.40625 4.6875-0.0292969Q6.06445 1.34766 7.86621 2.12891Q9.66797 2.91016 11.709 2.91016ZM11.709 1.25Q9.98047 1.25 8.47656 0.605469Q6.97266-0.0390625 5.83496-1.17676Q4.69727-2.31445 4.05762-3.81836Q3.41797-5.32227 3.41797-7.05078Q3.41797-8.7793 4.05762-10.2832Q4.69727-11.7871 5.83008-12.9297Q6.96289-14.0723 8.4668-14.7119Q9.9707-15.3516 11.6992-15.3516Q13.4277-15.3516 14.9316-14.7119Q16.4355-14.0723 17.5781-12.9297Q18.7207-11.7871 19.3652-10.2832Q20.0098-8.7793 20.0098-7.05078Q20.0098-5.32227 19.3701-3.81836Q18.7305-2.31445 17.5928-1.17676Q16.4551-0.0390625 14.9463 0.605469Q13.4375 1.25 11.709 1.25ZM7.17773-7.05078Q7.17773-6.69922 7.41211-6.47461Q7.64648-6.25 8.01758-6.25L10.8887-6.25L10.8887-3.36914Q10.8887-2.99805 11.1133-2.76855Q11.3379-2.53906 11.6895-2.53906Q12.0605-2.53906 12.29-2.76855Q12.5195-2.99805 12.5195-3.36914L12.5195-6.25L15.4004-6.25Q15.7715-6.25 16.001-6.47461Q16.2305-6.69922 16.2305-7.05078Q16.2305-7.42188 16.001-7.65137Q15.7715-7.88086 15.4004-7.88086L12.5195-7.88086L12.5195-10.752Q12.5195-11.1328 12.29-11.3623Q12.0605-11.5918 11.6895-11.5918Q11.3379-11.5918 11.1133-11.3574Q10.8887-11.123 10.8887-10.752L10.8887-7.88086L8.01758-7.88086Q7.63672-7.88086 7.40723-7.65137Q7.17773-7.42188 7.17773-7.05078Z"/>
  </g>
  <g transform="matrix(1 0 0 1 305.646 1933)">
   <path d="M14.9707 5.66406Q17.0605 5.66406 18.96 5.01465Q20.8594 4.36523 22.4512 3.19336Q24.043 2.02148 25.2197 0.429688Q26.3965-1.16211 27.0459-3.06641Q27.6953-4.9707 27.6953-7.05078Q27.6953-9.14062 27.0459-11.04Q26.3965-12.9395 25.2197-14.5312Q24.043-16.123 22.4512-17.2998Q20.8594-18.4766 18.9551-19.126Q17.0508-19.7754 14.9609-19.7754Q12.8711-19.7754 10.9717-19.126Q9.07227-18.4766 7.48535-17.2998Q5.89844-16.123 4.72168-14.5312Q3.54492-12.9395 2.90039-11.04Q2.25586-9.14062 2.25586-7.05078Q2.25586-4.9707 2.90527-3.06641Q3.55469-1.16211 4.72656 0.429688Q5.89844 2.02148 7.49023 3.19336Q9.08203 4.36523 10.9814 5.01465Q12.8809 5.66406 14.9707 5.66406ZM14.9707 3.84766Q13.1641 3.84766 11.5283 3.2959Q9.89258 2.74414 8.53516 1.74805Q7.17773 0.751953 6.17676-0.610352Q5.17578-1.97266 4.62891-3.6084Q4.08203-5.24414 4.08203-7.05078Q4.08203-8.86719 4.62891-10.5029Q5.17578-12.1387 6.17188-13.501Q7.16797-14.8633 8.52539-15.8594Q9.88281-16.8555 11.5186-17.4023Q13.1543-17.9492 14.9609-17.9492Q16.7773-17.9492 18.4131-17.4023Q20.0488-16.8555 21.4111-15.8594Q22.7734-14.8633 23.7695-13.501Q24.7656-12.1387 25.3174-10.5029Q25.8691-8.86719 25.8691-7.05078Q25.8789-5.24414 25.332-3.6084Q24.7852-1.97266 23.7842-0.610352Q22.7832 0.751953 21.4209 1.74805Q20.0586 2.74414 18.4229 3.2959Q16.7871 3.84766 14.9707 3.84766ZM9.19922-7.05078Q9.19922-6.66992 9.45801-6.4209Q9.7168-6.17188 10.1172-6.17188L14.0625-6.17188L14.0625-2.2168Q14.0625-1.81641 14.3115-1.55762Q14.5605-1.29883 14.9512-1.29883Q15.3516-1.29883 15.6104-1.55273Q15.8691-1.80664 15.8691-2.2168L15.8691-6.17188L19.8242-6.17188Q20.2246-6.17188 20.4785-6.4209Q20.7324-6.66992 20.7324-7.05078Q20.7324-7.46094 20.4785-7.71484Q20.2246-7.96875 19.8242-7.96875L15.8691-7.96875L15.8691-11.9141Q15.8691-12.3242 15.6104-12.583Q15.3516-12.8418 14.9512-12.8418Q14.5605-12.8418 14.3115-12.583Q14.0625-12.3242 14.0625-11.9141L14.0625-7.96875L10.1172-7.96875Q9.70703-7.96875 9.45312-7.71484Q9.19922-7.46094 9.19922-7.05078Z"/>
  </g>
  <text style="stroke:none;fill:black;font-family:sans-serif;font-size:13;font-weight:bold;" transform="matrix(1 0 0 1 263 1953)">Design Variations</text>
  <text style="stroke:none;fill:black;font-family:sans-serif;font-size:13;" transform="matrix(1 0 0 1 263 1971)">Symbols are supported in up to nine weights and three scales.</text>
  <text style="stroke:none;fill:black;font-family:sans-serif;font-size:13;" transform="matrix(1 0 0 1 263 1989)">For optimal layout with text and other symbols, vertically align</text>
  <text style="stroke:none;fill:black;font-family:sans-serif;font-size:13;" transform="matrix(1 0 0 1 263 2007)">symbols with the adjacent text.</text>
  <line style="fill:none;stroke:#00AEEF;stroke-width:0.5;opacity:1.0;" x1="776" x2="776" y1="1919" y2="1933"/>
  <g transform="matrix(1 0 0 1 776 1933)">
   <path d="M3.31055 0.15625Q3.70117 0.15625 3.91602-0.00976562Q4.13086-0.175781 4.26758-0.585938L5.52734-4.0332L11.2891-4.0332L12.5488-0.585938Q12.6855-0.175781 12.9004-0.00976562Q13.1152 0.15625 13.4961 0.15625Q13.8867 0.15625 14.1162-0.0585938Q14.3457-0.273438 14.3457-0.644531Q14.3457-0.869141 14.2383-1.17188L9.6582-13.3691Q9.48242-13.8184 9.17969-14.043Q8.87695-14.2676 8.4082-14.2676Q7.5-14.2676 7.17773-13.3789L2.59766-1.16211Q2.49023-0.859375 2.49023-0.634766Q2.49023-0.263672 2.70996-0.0537109Q2.92969 0.15625 3.31055 0.15625ZM6.00586-5.51758L8.37891-12.0898L8.42773-12.0898L10.8008-5.51758Z"/>
  </g>
  <line style="fill:none;stroke:#00AEEF;stroke-width:0.5;opacity:1.0;" x1="793.197" x2="793.197" y1="1919" y2="1933"/>
  <text style="stroke:none;fill:black;font-family:sans-serif;font-size:13;font-weight:bold;" transform="matrix(1 0 0 1 776 1953)">Margins</text>
  <text style="stroke:none;fill:black;font-family:sans-serif;font-size:13;" transform="matrix(1 0 0 1 776 1971)">Leading and trailing margins on the left and right side of each symbol</text>
  <text style="stroke:none;fill:black;font-family:sans-serif;font-size:13;" transform="matrix(1 0 0 1 776 1989)">can be adjusted by modifying the x-location of the margin guidelines.</text>
  <text style="stroke:none;fill:black;font-family:sans-serif;font-size:13;" transform="matrix(1 0 0 1 776 2007)">Modifications are automatically applied proportionally to all</text>
  <text style="stroke:none;fill:black;font-family:sans-serif;font-size:13;" transform="matrix(1 0 0 1 776 2025)">scales and weights.</text>
  <g transform="matrix(1 0 0 1 1289 1933)">
   <path d="M2.8418 1.86523L4.54102 3.57422Q5.18555 4.22852 5.90332 4.17969Q6.62109 4.13086 7.31445 3.35938L18.0078-8.42773L17.041-9.4043L6.42578 2.27539Q6.16211 2.57812 5.89355 2.61719Q5.625 2.65625 5.27344 2.30469L4.10156 1.14258Q3.75 0.791016 3.79395 0.522461Q3.83789 0.253906 4.14062-0.0195312L15.6152-10.8203L14.6387-11.7871L3.04688-0.898438Q2.30469-0.214844 2.25098 0.498047Q2.19727 1.21094 2.8418 1.86523ZM9.25781-16.3281Q8.94531-16.0254 8.90625-15.6348Q8.86719-15.2441 9.04297-14.9512Q9.21875-14.6777 9.55566-14.541Q9.89258-14.4043 10.3809-14.5215Q11.4746-14.7754 12.5977-14.7314Q13.7207-14.6875 14.7949-13.9844L14.209-12.5293Q13.9551-11.9043 14.0674-11.4404Q14.1797-10.9766 14.5801-10.5664L16.875-8.25195Q17.2363-7.88086 17.5781-7.82227Q17.9199-7.76367 18.3398-7.8418L19.4043-8.03711L20.0684-7.36328L20.0293-6.80664Q20-6.43555 20.1221-6.12305Q20.2441-5.81055 20.6055-5.44922L21.3672-4.70703Q21.7285-4.3457 22.1533-4.33105Q22.5781-4.31641 22.9297-4.66797L25.8398-7.58789Q26.1914-7.93945 26.1816-8.35449Q26.1719-8.76953 25.8105-9.13086L25.0391-9.89258Q24.6875-10.2539 24.3799-10.3857Q24.0723-10.5176 23.7109-10.4883L23.1348-10.4395L22.4902-11.0742L22.7344-12.1973Q22.832-12.6172 22.6953-12.9834Q22.5586-13.3496 22.1191-13.7891L19.9219-15.9766Q18.6719-17.2168 17.2607-17.8369Q15.8496-18.457 14.4189-18.4814Q12.9883-18.5059 11.665-17.959Q10.3418-17.4121 9.25781-16.3281ZM10.752-15.957Q11.6602-16.6211 12.7002-16.9043Q13.7402-17.1875 14.8047-17.085Q15.8691-16.9824 16.8701-16.5137Q17.8711-16.0449 18.7012-15.2051L21.1328-12.793Q21.3086-12.6172 21.3525-12.4512Q21.3965-12.2852 21.3379-12.0312L21.0156-10.5469L22.5195-9.0625L23.5059-9.12109Q23.6914-9.13086 23.7891-9.09668Q23.8867-9.0625 24.0332-8.91602L24.6094-8.33984L22.168-5.89844L21.5918-6.47461Q21.4453-6.62109 21.4062-6.71875Q21.3672-6.81641 21.377-7.01172L21.4453-7.98828L19.9512-9.47266L18.4277-9.21875Q18.1836-9.16992 18.042-9.2041Q17.9004-9.23828 17.7148-9.41406L15.7129-11.416Q15.5176-11.5918 15.4932-11.7529Q15.4688-11.9141 15.5859-12.1875L16.4648-14.2773Q15.293-15.3711 13.8281-15.791Q12.3633-16.2109 10.8398-15.7617Q10.7227-15.7324 10.6885-15.8057Q10.6543-15.8789 10.752-15.957Z"/>
  </g>
  <text style="stroke:none;fill:black;font-family:sans-serif;font-size:13;font-weight:bold;" transform="matrix(1 0 0 1 1289 1953)">Exporting</text>
  <text style="stroke:none;fill:black;font-family:sans-serif;font-size:13;" transform="matrix(1 0 0 1 1289 1971)">Symbols should be outlined when exporting to ensure the</text>
  <text style="stroke:none;fill:black;font-family:sans-serif;font-size:13;" transform="matrix(1 0 0 1 1289 1989)">design is preserved when submitting to Xcode.</text>
  <text id="template-version" style="stroke:none;fill:black;font-family:sans-serif;font-size:13;text-anchor:end;" transform="matrix(1 0 0 1 3036 1933)">Template v.3.0</text>
  <text style="stroke:none;fill:black;font-family:sans-serif;font-size:13;text-anchor:end;" transform="matrix(1 0 0 1 3036 1951)">Requires Xcode 13 or greater</text>
  <text id="descriptive-name" style="stroke:none;fill:black;font-family:sans-serif;font-size:13;text-anchor:end;" transform="matrix(1 0 0 1 3036 1969)">Generated from chevron.left.square.fill</text>
  <text style="stroke:none;fill:black;font-family:sans-serif;font-size:13;text-anchor:end;" transform="matrix(1 0 0 1 3036 1987)">Typeset at 100 points</text>
  <text style="stroke:none;fill:black;font-family:sans-serif;font-size:13;" transform="matrix(1 0 0 1 263 726)">Small</text>
  <text style="stroke:none;fill:black;font-family:sans-serif;font-size:13;" transform="matrix(1 0 0 1 263 1156)">Medium</text>
  <text style="stroke:none;fill:black;font-family:sans-serif;font-size:13;" transform="matrix(1 0 0 1 263 1586)">Large</text>
 </g>
 <g id="Guides">
  <g id="H-reference" style="fill:#27AAE1;stroke:none;" transform="matrix(1 0 0 1 339 696)">
   <path d="M0.976562 0L3.66211 0L29.3457-67.1387L30.0293-67.1387L30.0293-70.459L28.125-70.459ZM11.6699-24.4629L46.9727-24.4629L46.2402-26.709L12.4512-26.709ZM55.127 0L57.7637 0L30.6152-70.459L29.4434-70.459L29.4434-67.1387Z"/>
  </g>
  <line id="Baseline-S" style="fill:none;stroke:#27AAE1;opacity:1;stroke-width:0.5;" x1="263" x2="3036" y1="696" y2="696"/>
  <line id="Capline-S" style="fill:none;stroke:#27AAE1;opacity:1;stroke-width:0.5;" x1="263" x2="3036" y1="625.541" y2="625.541"/>
  <g id="H-reference" style="fill:#27AAE1;stroke:none;" transform="matrix(1 0 0 1 339 1126)">
   <path d="M0.976562 0L3.66211 0L29.3457-67.1387L30.0293-67.1387L30.0293-70.459L28.125-70.459ZM11.6699-24.4629L46.9727-24.4629L46.2402-26.709L12.4512-26.709ZM55.127 0L57.7637 0L30.6152-70.459L29.4434-70.459L29.4434-67.1387Z"/>
  </g>
  <line id="Baseline-M" style="fill:none;stroke:#27AAE1;opacity:1;stroke-width:0.5;" x1="263" x2="3036" y1="1126" y2="1126"/>
  <line id="Capline-M" style="fill:none;stroke:#27AAE1;opacity:1;stroke-width:0.5;" x1="263" x2="3036" y1="1055.54" y2="1055.54"/>
  <g id="H-reference" style="fill:#27AAE1;stroke:none;" transform="matrix(1 0 0 1 339 1556)">
   <path d="M0.976562 0L3.66211 0L29.3457-67.1387L30.0293-67.1387L30.0293-70.459L28.125-70.459ZM11.6699-24.4629L46.9727-24.4629L46.2402-26.709L12.4512-26.709ZM55.127 0L57.7637 0L30.6152-70.459L29.4434-70.459L29.4434-67.1387Z"/>
  </g>
  <line id="Baseline-L" style="fill:none;stroke:#27AAE1;opacity:1;stroke-width:0.5;" x1="263" x2="3036" y1="1556" y2="1556"/>
  <line id="Capline-L" style="fill:none;stroke:#27AAE1;opacity:1;stroke-width:0.5;" x1="263" x2="3036" y1="1485.54" y2="1485.54"/>
  <line id="left-margin-Ultralight-S" style="fill:none;stroke:#00AEEF;stroke-width:0.5;opacity:1.0;" x1="516.352" x2="516.352" y1="600.785" y2="720.121"/>
  <line id="right-margin-Ultralight-S" style="fill:none;stroke:#00AEEF;stroke-width:0.5;opacity:1.0;" x1="603.07" x2="603.07" y1="600.785" y2="720.121"/>
  <line id="left-margin-Thin-S" style="fill:none;stroke:#00AEEF;stroke-width:0.5;opacity:1.0;" x1="812.623" x2="812.623" y1="600.785" y2="720.121"/>
  <line id="right-margin-Thin-S" style="fill:none;stroke:#00AEEF;stroke-width:0.5;opacity:1.0;" x1="900.221" x2="900.221" y1="600.785" y2="720.121"/>
  <line id="left-margin-Light-S" style="fill:none;stroke:#00AEEF;stroke-width:0.5;opacity:1.0;" x1="1108.46" x2="1108.46" y1="600.785" y2="720.121"/>
  <line id="right-margin-Light-S" style="fill:none;stroke:#00AEEF;stroke-width:0.5;opacity:1.0;" x1="1197.81" x2="1197.81" y1="600.785" y2="720.121"/>
  <line id="left-margin-Regular-S" style="fill:none;stroke:#00AEEF;stroke-width:0.5;opacity:1.0;" x1="1404.51" x2="1404.51" y1="600.785" y2="720.121"/>
  <line id="right-margin-Regular-S" style="fill:none;stroke:#00AEEF;stroke-width:0.5;opacity:1.0;" x1="1495.18" x2="1495.18" y1="600.785" y2="720.121"/>
  <line id="left-margin-Medium-S" style="fill:none;stroke:#00AEEF;stroke-width:0.5;opacity:1.0;" x1="1700.75" x2="1700.75" y1="600.785" y2="720.121"/>
  <line id="right-margin-Medium-S" style="fill:none;stroke:#00AEEF;stroke-width:0.5;opacity:1.0;" x1="1792.36" x2="1792.36" y1="600.785" y2="720.121"/>
  <line id="left-margin-Semibold-S" style="fill:none;stroke:#00AEEF;stroke-width:0.5;opacity:1.0;" x1="1997.12" x2="1997.12" y1="600.785" y2="720.121"/>
  <line id="right-margin-Semibold-S" style="fill:none;stroke:#00AEEF;stroke-width:0.5;opacity:1.0;" x1="2089.41" x2="2089.41" y1="600.785" y2="720.121"/>
  <line id="left-margin-Bold-S" style="fill:none;stroke:#00AEEF;stroke-width:0.5;opacity:1.0;" x1="2293.35" x2="2293.35" y1="600.785" y2="720.121"/>
  <line id="right-margin-Bold-S" style="fill:none;stroke:#00AEEF;stroke-width:0.5;opacity:1.0;" x1="2386.61" x2="2386.61" y1="600.785" y2="720.121"/>
  <line id="left-margin-Heavy-S" style="fill:none;stroke:#00AEEF;stroke-width:0.5;opacity:1.0;" x1="2589.4" x2="2589.4" y1="600.785" y2="720.121"/>
  <line id="right-margin-Heavy-S" style="fill:none;stroke:#00AEEF;stroke-width:0.5;opacity:1.0;" x1="2683.98" x2="2683.98" y1="600.785" y2="720.121"/>
  <line id="left-margin-Black-S" style="fill:none;stroke:#00AEEF;stroke-width:0.5;opacity:1.0;" x1="2885.5" x2="2885.5" y1="600.785" y2="720.121"/>
  <line id="right-margin-Black-S" style="fill:none;stroke:#00AEEF;stroke-width:0.5;opacity:1.0;" x1="2981.3" x2="2981.3" y1="600.785" y2="720.121"/>
  <line id="left-margin-Ultralight-M" style="fill:none;stroke:#00AEEF;stroke-width:0.5;opacity:1.0;" x1="504.535" x2="504.535" y1="1030.79" y2="1150.12"/>
  <line id="right-margin-Ultralight-M" style="fill:none;stroke:#00AEEF;stroke-width:0.5;opacity:1.0;" x1="614.887" x2="614.887" y1="1030.79" y2="1150.12"/>
  <line id="left-margin-Thin-M" style="fill:none;stroke:#00AEEF;stroke-width:0.5;opacity:1.0;" x1="800.758" x2="800.758" y1="1030.79" y2="1150.12"/>
  <line id="right-margin-Thin-M" style="fill:none;stroke:#00AEEF;stroke-width:0.5;opacity:1.0;" x1="912.086" x2="912.086" y1="1030.79" y2="1150.12"/>
  <line id="left-margin-Light-M" style="fill:none;stroke:#00AEEF;stroke-width:0.5;opacity:1.0;" x1="1096.47" x2="1096.47" y1="1030.79" y2="1150.12"/>
  <line id="right-margin-Light-M" style="fill:none;stroke:#00AEEF;stroke-width:0.5;opacity:1.0;" x1="1209.8" x2="1209.8" y1="1030.79" y2="1150.12"/>
  <line id="left-margin-Regular-M" style="fill:none;stroke:#00AEEF;stroke-width:0.5;opacity:1.0;" x1="1392.45" x2="1392.45" y1="1030.79" y2="1150.12"/>
  <line id="right-margin-Regular-M" style="fill:none;stroke:#00AEEF;stroke-width:0.5;opacity:1.0;" x1="1507.24" x2="1507.24" y1="1030.79" y2="1150.12"/>
  <line id="left-margin-Medium-M" style="fill:none;stroke:#00AEEF;stroke-width:0.5;opacity:1.0;" x1="1688.52" x2="1688.52" y1="1030.79" y2="1150.12"/>
  <line id="right-margin-Medium-M" style="fill:none;stroke:#00AEEF;stroke-width:0.5;opacity:1.0;" x1="1804.59" x2="1804.59" y1="1030.79" y2="1150.12"/>
  <line id="left-margin-Semibold-M" style="fill:none;stroke:#00AEEF;stroke-width:0.5;opacity:1.0;" x1="1984.77" x2="1984.77" y1="1030.79" y2="1150.12"/>
  <line id="right-margin-Semibold-M" style="fill:none;stroke:#00AEEF;stroke-width:0.5;opacity:1.0;" x1="2101.76" x2="2101.76" y1="1030.79" y2="1150.12"/>
  <line id="left-margin-Bold-M" style="fill:none;stroke:#00AEEF;stroke-width:0.5;opacity:1.0;" x1="2280.85" x2="2280.85" y1="1030.79" y2="1150.12"/>
  <line id="right-margin-Bold-M" style="fill:none;stroke:#00AEEF;stroke-width:0.5;opacity:1.0;" x1="2399.11" x2="2399.11" y1="1030.79" y2="1150.12"/>
  <line id="left-margin-Heavy-M" style="fill:none;stroke:#00AEEF;stroke-width:0.5;opacity:1.0;" x1="2576.65" x2="2576.65" y1="1030.79" y2="1150.12"/>
  <line id="right-margin-Heavy-M" style="fill:none;stroke:#00AEEF;stroke-width:0.5;opacity:1.0;" x1="2696.72" x2="2696.72" y1="1030.79" y2="1150.12"/>
  <line id="left-margin-Black-M" style="fill:none;stroke:#00AEEF;stroke-width:0.5;opacity:1.0;" x1="2872.54" x2="2872.54" y1="1030.79" y2="1150.12"/>
  <line id="right-margin-Black-M" style="fill:none;stroke:#00AEEF;stroke-width:0.5;opacity:1.0;" x1="2994.26" x2="2994.26" y1="1030.79" y2="1150.12"/>
  <line id="left-margin-Ultralight-L" style="fill:none;stroke:#00AEEF;stroke-width:0.5;opacity:1.0;" x1="488.739" x2="488.739" y1="1460.79" y2="1580.12"/>
  <line id="right-margin-Ultralight-L" style="fill:none;stroke:#00AEEF;stroke-width:0.5;opacity:1.0;" x1="630.683" x2="630.683" y1="1460.79" y2="1580.12"/>
  <line id="left-margin-Thin-L" style="fill:none;stroke:#00AEEF;stroke-width:0.5;opacity:1.0;" x1="784.889" x2="784.889" y1="1460.79" y2="1580.12"/>
  <line id="right-margin-Thin-L" style="fill:none;stroke:#00AEEF;stroke-width:0.5;opacity:1.0;" x1="927.955" x2="927.955" y1="1460.79" y2="1580.12"/>
  <line id="left-margin-Light-L" style="fill:none;stroke:#00AEEF;stroke-width:0.5;opacity:1.0;" x1="1080.5" x2="1080.5" y1="1460.79" y2="1580.12"/>
  <line id="right-margin-Light-L" style="fill:none;stroke:#00AEEF;stroke-width:0.5;opacity:1.0;" x1="1225.77" x2="1225.77" y1="1460.79" y2="1580.12"/>
  <line id="left-margin-Regular-L" style="fill:none;stroke:#00AEEF;stroke-width:0.5;opacity:1.0;" x1="1376.38" x2="1376.38" y1="1460.79" y2="1580.12"/>
  <line id="right-margin-Regular-L" style="fill:none;stroke:#00AEEF;stroke-width:0.5;opacity:1.0;" x1="1523.31" x2="1523.31" y1="1460.79" y2="1580.12"/>
  <line id="left-margin-Medium-L" style="fill:none;stroke:#00AEEF;stroke-width:0.5;opacity:1.0;" x1="1672.31" x2="1672.31" y1="1460.79" y2="1580.12"/>
  <line id="right-margin-Medium-L" style="fill:none;stroke:#00AEEF;stroke-width:0.5;opacity:1.0;" x1="1820.8" x2="1820.8" y1="1460.79" y2="1580.12"/>
  <line id="left-margin-Semibold-L" style="fill:none;stroke:#00AEEF;stroke-width:0.5;opacity:1.0;" x1="1968.44" x2="1968.44" y1="1460.79" y2="1580.12"/>
  <line id="right-margin-Semibold-L" style="fill:none;stroke:#00AEEF;stroke-width:0.5;opacity:1.0;" x1="2118.1" x2="2118.1" y1="1460.79" y2="1580.12"/>
  <line id="left-margin-Bold-L" style="fill:none;stroke:#00AEEF;stroke-width:0.5;opacity:1.0;" x1="2264.34" x2="2264.34" y1="1460.79" y2="1580.12"/>
  <line id="right-margin-Bold-L" style="fill:none;stroke:#00AEEF;stroke-width:0.5;opacity:1.0;" x1="2415.61" x2="2415.61" y1="1460.79" y2="1580.12"/>
  <line id="left-margin-Heavy-L" style="fill:none;stroke:#00AEEF;stroke-width:0.5;opacity:1.0;" x1="2559.93" x2="2559.93" y1="1460.79" y2="1580.12"/>
  <line id="right-margin-Heavy-L" style="fill:none;stroke:#00AEEF;stroke-width:0.5;opacity:1.0;" x1="2713.45" x2="2713.45" y1="1460.79" y2="1580.12"/>
  <line id="left-margin-Black-L" style="fill:none;stroke:#00AEEF;stroke-width:0.5;opacity:1.0;" x1="2855.62" x2="2855.62" y1="1460.79" y2="1580.12"/>
  <line id="right-margin-Black-L" style="fill:none;stroke:#00AEEF;stroke-width:0.5;opacity:1.0;" x1="3011.18" x2="3011.18" y1="1460.79" y2="1580.12"/>
 </g>
 <g id="Symbols">
  <g id="Black-L" transform="matrix(1 0 0 1 2855.62 1556)">
   <path class="hierarchical-0:tertiary SFSymbolsPreview8E8E8E" d="M39.9902 26.5137L115.576 26.5137Q127.002 26.5137 133.252 20.3125Q139.502 14.1113 139.502 2.68555L139.502-73.0957Q139.502-84.4727 133.252-90.6738Q127.002-96.875 115.576-96.875L39.9902-96.875Q28.5645-96.875 22.3145-90.6738Q16.0645-84.4727 16.0645-73.0957L16.0645 2.68555Q16.0645 14.1113 22.3145 20.3125Q28.5645 26.5137 39.9902 26.5137Z"/>
   <path class="hierarchical-1:primary SFSymbolsPreview212121" d="M92.1387-2.7832Q90.8203-1.51367 88.7695-1.09863Q86.7188-0.683594 84.6436-1.14746Q82.5684-1.61133 81.1523-2.92969L56.1523-26.2207Q53.6133-28.5645 52.7588-31.8604Q51.9043-35.1562 52.7588-38.4277Q53.6133-41.6992 56.1523-44.0918L81.1523-67.334Q83.4961-69.5312 86.6211-69.5068Q89.7461-69.4824 91.9434-67.4805Q94.3848-65.2832 94.4092-61.9141Q94.4336-58.5449 92.0898-56.3477L69.2871-35.2051L92.0898-13.9648Q94.3848-11.7676 94.4824-8.52051Q94.5801-5.27344 92.1387-2.7832Z"/>
  </g>
  <g id="Heavy-L" transform="matrix(1 0 0 1 2559.93 1556)">
   <path class="hierarchical-0:tertiary SFSymbolsPreview8E8E8E" d="M38.8184 25.4883L114.697 25.4883Q125.684 25.4883 131.567 19.6289Q137.451 13.7695 137.451 2.88086L137.451-73.2422Q137.451-84.1309 131.567-89.9902Q125.684-95.8496 114.697-95.8496L38.8184-95.8496Q27.8809-95.8496 21.9727-89.9902Q16.0645-84.1309 16.0645-73.2422L16.0645 2.88086Q16.0645 13.8184 21.9727 19.6533Q27.8809 25.4883 38.8184 25.4883Z"/>
   <path class="hierarchical-1:primary SFSymbolsPreview212121" d="M90.625-3.125Q89.4043-1.95312 87.5977-1.58691Q85.791-1.2207 83.96-1.63574Q82.1289-2.05078 80.8594-3.27148L55.4199-27.0996Q53.125-29.1992 52.3438-32.1777Q51.5625-35.1562 52.3438-38.1104Q53.125-41.0645 55.4199-43.2617L80.8594-67.041Q82.959-68.9941 85.7178-68.9941Q88.4766-68.9941 90.4297-67.1875Q92.627-65.2344 92.6514-62.2559Q92.6758-59.2773 90.5762-57.3242L66.8945-35.2051L90.5762-13.0371Q92.627-11.084 92.7002-8.20312Q92.7734-5.32227 90.625-3.125Z"/>
  </g>
  <g id="Bold-L" transform="matrix(1 0 0 1 2264.34 1556)">
   <path class="hierarchical-0:tertiary SFSymbolsPreview8E8E8E" d="M37.5488 24.3652L113.721 24.3652Q124.17 24.3652 129.688 18.8965Q135.205 13.4277 135.205 3.07617L135.205-73.4375Q135.205-83.7891 129.688-89.2578Q124.17-94.7266 113.721-94.7266L37.5488-94.7266Q27.0996-94.7266 21.582-89.2578Q16.0645-83.7891 16.0645-73.4375L16.0645 3.07617Q16.0645 13.4766 21.582 18.9209Q27.0996 24.3652 37.5488 24.3652Z"/>
   <path class="hierarchical-1:primary SFSymbolsPreview212121" d="M88.9648-3.51562Q87.9395-2.49023 86.377-2.17285Q84.8145-1.85547 83.2275-2.22168Q81.6406-2.58789 80.5664-3.66211L54.6387-28.0762Q52.5879-29.9805 51.9043-32.5928Q51.2207-35.2051 51.9043-37.793Q52.5879-40.3809 54.6387-42.2852L80.5664-66.6992Q82.373-68.4082 84.7656-68.4082Q87.1582-68.4082 88.8184-66.8457Q90.6738-65.1855 90.6982-62.6221Q90.7227-60.0586 88.916-58.3984L64.2578-35.2051L88.916-11.9629Q90.6738-10.3027 90.7227-7.83691Q90.7715-5.37109 88.9648-3.51562Z"/>
  </g>
  <g id="Semibold-L" transform="matrix(1 0 0 1 1968.44 1556)">
   <path class="hierarchical-0:tertiary SFSymbolsPreview8E8E8E" d="M36.6211 23.584L112.988 23.584Q123.145 23.584 128.369 18.3838Q133.594 13.1836 133.594 3.17383L133.594-73.5352Q133.594-83.4961 128.369-88.6963Q123.145-93.8965 112.988-93.8965L36.6211-93.8965Q26.5625-93.8965 21.3135-88.7207Q16.0645-83.5449 16.0645-73.5352L16.0645 3.17383Q16.0645 13.2324 21.3135 18.4082Q26.5625 23.584 36.6211 23.584Z"/>
   <path class="hierarchical-1:primary SFSymbolsPreview212121" d="M87.7441-3.80859Q86.8652-2.88086 85.498-2.6123Q84.1309-2.34375 82.7148-2.66113Q81.2988-2.97852 80.3223-3.95508L54.0527-28.8086Q52.1973-30.5176 51.5869-32.8857Q50.9766-35.2539 51.5869-37.5732Q52.1973-39.8926 54.0527-41.6992L80.3223-66.5039Q81.9336-68.0176 84.0576-68.042Q86.1816-68.0664 87.6953-66.6504Q89.3066-65.1855 89.3311-62.915Q89.3555-60.6445 87.7441-59.1797L62.4023-35.2539L87.7441-11.2793Q89.3066-9.81445 89.3311-7.61719Q89.3555-5.41992 87.7441-3.80859Z"/>
  </g>
  <g id="Medium-L" transform="matrix(1 0 0 1 1672.31 1556)">
   <path class="hierarchical-0:tertiary SFSymbolsPreview8E8E8E" d="M35.9375 22.998L112.5 22.998Q122.363 22.998 127.393 17.9932Q132.422 12.9883 132.422 3.27148L132.422-73.6328Q132.422-83.3008 127.393-88.3057Q122.363-93.3105 112.5-93.3105L35.9375-93.3105Q26.1719-93.3105 21.1182-88.3301Q16.0645-83.3496 16.0645-73.6328L16.0645 3.27148Q16.0645 13.0371 21.1182 18.0176Q26.1719 22.998 35.9375 22.998Z"/>
   <path class="hierarchical-1:primary SFSymbolsPreview212121" d="M86.9141-4.00391Q86.084-3.17383 84.8389-2.90527Q83.5938-2.63672 82.3242-2.9541Q81.0547-3.27148 80.2246-4.15039L53.6621-29.2969Q51.9531-30.9082 51.3672-33.0811Q50.7812-35.2539 51.3672-37.4023Q51.9531-39.5508 53.6621-41.1621L80.2246-66.3574Q81.6895-67.6758 83.5693-67.7246Q85.4492-67.7734 86.8164-66.5039Q88.3301-65.1367 88.3545-63.1104Q88.3789-61.084 86.9141-59.7168L61.0352-35.2539L86.9141-10.7422Q88.3301-9.42383 88.3301-7.42188Q88.3301-5.41992 86.9141-4.00391Z"/>
  </g>
  <g id="Regular-L" transform="matrix(1 0 0 1 1376.38 1556)">
   <path class="hierarchical-0:tertiary SFSymbolsPreview8E8E8E" d="M35.0586 22.2168L111.816 22.2168Q121.338 22.2168 126.099 17.4805Q130.859 12.7441 130.859 3.41797L130.859-73.7305Q130.859-83.0566 126.099-87.793Q121.338-92.5293 111.816-92.5293L35.0586-92.5293Q25.6348-92.5293 20.8496-87.8174Q16.0645-83.1055 16.0645-73.7305L16.0645 3.41797Q16.0645 12.793 20.8496 17.5049Q25.6348 22.2168 35.0586 22.2168Z"/>
   <path class="hierarchical-1:primary SFSymbolsPreview212121" d="M85.7422-4.24805Q85.0098-3.51562 83.96-3.2959Q82.9102-3.07617 81.8115-3.34473Q80.7129-3.61328 79.9805-4.39453L53.0762-29.9805Q51.5625-31.3965 51.0498-33.3252Q50.5371-35.2539 51.0498-37.1582Q51.5625-39.0625 53.0762-40.5273L79.9805-66.1133Q81.25-67.2852 82.8857-67.334Q84.5215-67.3828 85.6934-66.2598Q86.9629-65.0879 86.9873-63.3545Q87.0117-61.6211 85.7422-60.4492L59.2285-35.2539L85.7422-10.0098Q86.9629-8.88672 86.9629-7.17773Q86.9629-5.46875 85.7422-4.24805Z"/>
  </g>
  <g id="Light-L" transform="matrix(1 0 0 1 1080.5 1556)">
   <path class="hierarchical-0:tertiary SFSymbolsPreview8E8E8E" d="M34.0332 21.4355L111.182 21.4355Q120.117 21.4355 124.658 16.8945Q129.199 12.3535 129.199 3.56445L129.199-73.8281Q129.199-82.6172 124.658-87.1582Q120.117-91.6992 111.182-91.6992L34.0332-91.6992Q25.1465-91.6992 20.6055-87.207Q16.0645-82.7148 16.0645-73.8281L16.0645 3.56445Q16.0645 12.4023 20.6055 16.9189Q25.1465 21.4355 34.0332 21.4355Z"/>
   <path class="hierarchical-1:primary SFSymbolsPreview212121" d="M84.5703-4.44336Q83.9844-3.85742 83.1787-3.66211Q82.373-3.4668 81.5186-3.68652Q80.6641-3.90625 80.0781-4.54102L52.2949-31.2988Q51.123-32.4219 50.708-33.8623Q50.293-35.3027 50.6836-36.7432Q51.0742-38.1836 52.2949-39.3555L80.0781-66.1133Q81.0547-67.041 82.3242-67.0654Q83.5938-67.0898 84.5215-66.2109Q85.498-65.2832 85.5225-63.9404Q85.5469-62.5977 84.5215-61.6699L57.1777-35.3516L84.5215-8.93555Q85.498-8.05664 85.498-6.73828Q85.498-5.41992 84.5703-4.44336Z"/>
  </g>
  <g id="Thin-L" transform="matrix(1 0 0 1 784.889 1556)">
   <path class="hierarchical-0:tertiary SFSymbolsPreview8E8E8E" d="M32.666 20.3613L110.352 20.3613Q118.506 20.3613 122.754 16.0889Q127.002 11.8164 127.002 3.75977L127.002-73.9746Q127.002-82.0312 122.754-86.3037Q118.506-90.5762 110.352-90.5762L32.666-90.5762Q24.5117-90.5762 20.2881-86.377Q16.0645-82.1777 16.0645-73.9746L16.0645 3.75977Q16.0645 11.9141 20.2881 16.1377Q24.5117 20.3613 32.666 20.3613Z"/>
   <path class="hierarchical-1:primary SFSymbolsPreview212121" d="M83.0078-4.73633Q82.6172-4.29688 82.1289-4.15039Q81.6406-4.00391 81.1279-4.15039Q80.6152-4.29688 80.1758-4.73633L51.2695-33.0078Q50.4883-33.7402 50.2197-34.5703Q49.9512-35.4004 50.1953-36.2061Q50.4395-37.0117 51.2695-37.793L80.1758-66.0645Q80.8594-66.748 81.6162-66.6992Q82.373-66.6504 83.0078-66.1133Q83.5938-65.5762 83.5938-64.7461Q83.5938-63.916 82.959-63.2812L54.4434-35.4004L82.959-7.51953Q83.5938-6.93359 83.5693-6.10352Q83.5449-5.27344 83.0078-4.73633Z"/>
  </g>
  <g id="Ultralight-L" transform="matrix(1 0 0 1 488.739 1556)">
   <path class="hierarchical-0:tertiary SFSymbolsPreview8E8E8E" d="M31.9824 19.8242L109.961 19.8242Q117.725 19.8242 121.802 15.6738Q125.879 11.5234 125.879 3.85742L125.879-74.0723Q125.879-81.7383 121.802-85.8643Q117.725-89.9902 109.961-89.9902L31.9824-89.9902Q24.1699-89.9902 20.1172-85.9375Q16.0645-81.8848 16.0645-74.0723L16.0645 3.85742Q16.0645 11.6699 20.1172 15.7471Q24.1699 19.8242 31.9824 19.8242Z"/>
   <path class="hierarchical-1:primary SFSymbolsPreview212121" d="M82.1777-4.88281Q81.8848-4.58984 81.5674-4.44336Q81.25-4.29688 80.8838-4.39453Q80.5176-4.49219 80.1758-4.88281L50.6836-33.9355Q50.1465-34.4727 49.9512-34.9609Q49.7559-35.4492 49.9268-35.9375Q50.0977-36.4258 50.6836-37.0117L80.1758-66.0645Q80.6641-66.6016 81.1768-66.5527Q81.6895-66.5039 82.1777-66.0645Q82.5195-65.7227 82.5195-65.1611Q82.5195-64.5996 82.0801-64.1602L52.9785-35.498L82.0801-6.78711Q82.5195-6.39648 82.4951-5.83496Q82.4707-5.27344 82.1777-4.88281Z"/>
  </g>
  <g id="Black-M" transform="matrix(1 0 0 1 2872.54 1126)">
   <path class="hierarchical-0:tertiary SFSymbolsPreview8E8E8E" d="M31.5918 13.2324L90.1367 13.2324Q99.1699 13.2324 104.224 8.17871Q109.277 3.125 109.277-5.9082L109.277-64.4531Q109.277-73.5352 104.224-78.5645Q99.1699-83.5938 90.1367-83.5938L31.5918-83.5938Q22.5586-83.5938 17.5049-78.5645Q12.4512-73.5352 12.4512-64.4531L12.4512-5.9082Q12.4512 3.125 17.5049 8.17871Q22.5586 13.2324 31.5918 13.2324Z"/>
   <path class="hierarchical-1:primary SFSymbolsPreview212121" d="M72.2656-9.86328Q70.6543-8.30078 67.7734-8.30078Q64.8926-8.30078 63.1348-9.96094L43.8477-27.9297Q41.7969-29.834 41.1133-32.4951Q40.4297-35.1562 41.1133-37.8174Q41.7969-40.4785 43.8477-42.4316L63.1348-60.3516Q65.0879-62.207 67.6758-62.1582Q70.2637-62.1094 72.1191-60.4492Q74.1211-58.5938 74.1455-55.8105Q74.1699-53.0273 72.2168-51.1719L54.9805-35.2051L72.2168-19.1895Q74.1211-17.3828 74.2188-14.6729Q74.3164-11.9629 72.2656-9.86328Z"/>
  </g>
  <g id="Heavy-M" transform="matrix(1 0 0 1 2576.65 1126)">
   <path class="hierarchical-0:tertiary SFSymbolsPreview8E8E8E" d="M30.7129 12.4023L89.4043 12.4023Q98.0957 12.4023 102.856 7.66602Q107.617 2.92969 107.617-5.76172L107.617-64.5996Q107.617-73.291 102.856-78.0273Q98.0957-82.7637 89.4043-82.7637L30.7129-82.7637Q21.9727-82.7637 17.2119-78.0273Q12.4512-73.291 12.4512-64.5996L12.4512-5.76172Q12.4512 2.92969 17.2119 7.66602Q21.9727 12.4023 30.7129 12.4023Z"/>
   <path class="hierarchical-1:primary SFSymbolsPreview212121" d="M71.0449-10.1562Q69.5801-8.74023 67.0166-8.74023Q64.4531-8.74023 62.8418-10.2539L43.3105-28.5156Q41.4062-30.2734 40.7715-32.7148Q40.1367-35.1562 40.7715-37.6221Q41.4062-40.0879 43.3105-41.8457L62.8418-60.0586Q64.5996-61.7188 66.9434-61.6943Q69.2871-61.6699 70.9473-60.1562Q72.7051-58.4961 72.7539-56.0059Q72.8027-53.5156 71.0449-51.8555L53.125-35.2051L71.0449-18.5059Q72.7539-16.8945 72.8271-14.4531Q72.9004-12.0117 71.0449-10.1562Z"/>
  </g>
  <g id="Bold-M" transform="matrix(1 0 0 1 2280.85 1126)">
   <path class="hierarchical-0:tertiary SFSymbolsPreview8E8E8E" d="M29.6875 11.5234L88.5742 11.5234Q96.9238 11.5234 101.367 7.10449Q105.811 2.68555 105.811-5.66406L105.811-64.7461Q105.811-73.0469 101.367-77.4658Q96.9238-81.8848 88.5742-81.8848L29.6875-81.8848Q21.3379-81.8848 16.8945-77.4658Q12.4512-73.0469 12.4512-64.7461L12.4512-5.66406Q12.4512 2.68555 16.8945 7.10449Q21.3379 11.5234 29.6875 11.5234Z"/>
   <path class="hierarchical-1:primary SFSymbolsPreview212121" d="M69.6777-10.498Q68.4082-9.22852 66.1621-9.25293Q63.916-9.27734 62.5488-10.5957L42.7246-29.1992Q41.0156-30.7617 40.4297-32.9834Q39.8438-35.2051 40.4297-37.4023Q41.0156-39.5996 42.7246-41.2109L62.5488-59.7656Q64.0625-61.2305 66.1133-61.2305Q68.1641-61.2305 69.5801-59.8633Q71.1426-58.4473 71.1914-56.2744Q71.2402-54.1016 69.6777-52.6367L51.0254-35.2051L69.6777-17.7734Q71.1914-16.3574 71.2402-14.209Q71.2891-12.0605 69.6777-10.498Z"/>
  </g>
  <g id="Semibold-M" transform="matrix(1 0 0 1 1984.77 1126)">
   <path class="hierarchical-0:tertiary SFSymbolsPreview8E8E8E" d="M29.0039 10.8887L87.9883 10.8887Q96.0938 10.8887 100.317 6.68945Q104.541 2.49023 104.541-5.51758L104.541-64.8438Q104.541-72.8516 100.317-77.0508Q96.0938-81.25 87.9883-81.25L29.0039-81.25Q20.8984-81.25 16.6748-77.0508Q12.4512-72.8516 12.4512-64.8438L12.4512-5.51758Q12.4512 2.49023 16.6748 6.68945Q20.8984 10.8887 29.0039 10.8887Z"/>
   <path class="hierarchical-1:primary SFSymbolsPreview212121" d="M68.7012-10.7422Q67.5293-9.61914 65.5273-9.64355Q63.5254-9.66797 62.3047-10.8887L42.2852-29.6875Q40.6738-31.1523 40.1367-33.2031Q39.5996-35.2539 40.1367-37.2803Q40.6738-39.3066 42.2852-40.8203L62.3047-59.5703Q63.6719-60.8887 65.5029-60.9131Q67.334-60.9375 68.6523-59.7168Q70.0684-58.3984 70.0928-56.4453Q70.1172-54.4922 68.75-53.1738L49.5605-35.2539L68.75-17.2852Q70.0684-16.0156 70.0928-14.0869Q70.1172-12.1582 68.7012-10.7422Z"/>
  </g>
  <g id="Medium-M" transform="matrix(1 0 0 1 1688.52 1126)">
   <path class="hierarchical-0:tertiary SFSymbolsPreview8E8E8E" d="M28.4668 10.4004L87.5977 10.4004Q95.5078 10.4004 99.5605 6.37207Q103.613 2.34375 103.613-5.46875L103.613-64.8926Q103.613-72.7539 99.5605-76.7578Q95.5078-80.7617 87.5977-80.7617L28.4668-80.7617Q20.5566-80.7617 16.5039-76.7578Q12.4512-72.7539 12.4512-64.8926L12.4512-5.46875Q12.4512 2.34375 16.5039 6.37207Q20.5566 10.4004 28.4668 10.4004Z"/>
   <path class="hierarchical-1:primary SFSymbolsPreview212121" d="M68.0176-10.9375Q66.9434-9.86328 65.1367-9.91211Q63.3301-9.96094 62.1582-11.0352L41.9922-30.0293Q40.4785-31.3965 39.9902-33.3252Q39.502-35.2539 39.9902-37.1582Q40.4785-39.0625 41.9922-40.4785L62.1582-59.375Q63.4277-60.5957 65.1123-60.6445Q66.7969-60.6934 67.9688-59.5215Q69.2383-58.3496 69.2871-56.5674Q69.3359-54.7852 68.0664-53.5645L48.4863-35.2539L68.0664-16.8945Q69.2871-15.7227 69.3115-13.9404Q69.3359-12.1582 68.0176-10.9375Z"/>
  </g>
  <g id="Regular-M" transform="matrix(1 0 0 1 1392.45 1126)">
   <path class="hierarchical-0:tertiary SFSymbolsPreview8E8E8E" d="M27.7832 9.76562L87.0117 9.76562Q94.6777 9.76562 98.5107 5.98145Q102.344 2.19727 102.344-5.37109L102.344-64.9902Q102.344-72.5586 98.5107-76.3428Q94.6777-80.127 87.0117-80.127L27.7832-80.127Q20.1172-80.127 16.2842-76.3428Q12.4512-72.5586 12.4512-64.9902L12.4512-5.37109Q12.4512 2.19727 16.2842 5.98145Q20.1172 9.76562 27.7832 9.76562Z"/>
   <path class="hierarchical-1:primary SFSymbolsPreview212121" d="M67.0898-11.1328Q66.1133-10.2051 64.5264-10.2539Q62.9395-10.3027 61.9141-11.2793L41.5527-30.4688Q40.1855-31.7383 39.7217-33.4961Q39.2578-35.2539 39.7217-37.0117Q40.1855-38.7695 41.5527-40.0391L61.9141-59.1797Q63.0371-60.2539 64.5264-60.3027Q66.0156-60.3516 67.041-59.3262Q68.1641-58.3008 68.2129-56.7383Q68.2617-55.1758 67.1387-54.1016L47.0703-35.2539L67.1387-16.3574Q68.2129-15.332 68.2129-13.7695Q68.2129-12.207 67.0898-11.1328Z"/>
  </g>
  <g id="Light-M" transform="matrix(1 0 0 1 1096.47 1126)">
   <path class="hierarchical-0:tertiary SFSymbolsPreview8E8E8E" d="M26.8555 9.0332L86.4746 9.0332Q93.6035 9.0332 97.2412 5.44434Q100.879 1.85547 100.879-5.22461L100.879-65.0879Q100.879-72.168 97.2412-75.7812Q93.6035-79.3945 86.4746-79.3945L26.8555-79.3945Q19.6777-79.3945 16.0645-75.8057Q12.4512-72.2168 12.4512-65.0879L12.4512-5.22461Q12.4512 1.85547 16.0645 5.44434Q19.6777 9.0332 26.8555 9.0332Z"/>
   <path class="hierarchical-1:primary SFSymbolsPreview212121" d="M66.0645-11.3281Q65.2832-10.5957 64.0625-10.6201Q62.8418-10.6445 62.0117-11.4258L40.8691-31.6406Q39.7949-32.666 39.4287-33.9844Q39.0625-35.3027 39.4287-36.6455Q39.7949-37.9883 40.8691-38.9648L62.0117-59.1797Q62.8906-60.0586 64.0625-60.0586Q65.2344-60.0586 66.0156-59.2773Q66.8945-58.4961 66.9189-57.2754Q66.9434-56.0547 66.0645-55.2246L45.2148-35.3027L66.0645-15.3809Q66.9434-14.5996 66.9189-13.3789Q66.8945-12.1582 66.0645-11.3281Z"/>
  </g>
  <g id="Thin-M" transform="matrix(1 0 0 1 800.758 1126)">
   <path class="hierarchical-0:tertiary SFSymbolsPreview8E8E8E" d="M25.5859 8.05664L85.6934 8.05664Q92.2363 8.05664 95.5566 4.71191Q98.877 1.36719 98.877-5.07812L98.877-65.2344Q98.877-71.6309 95.5566-75Q92.2363-78.3691 85.6934-78.3691L25.5859-78.3691Q19.1406-78.3691 15.7959-75.0488Q12.4512-71.7285 12.4512-65.2344L12.4512-5.07812Q12.4512 1.41602 15.7959 4.73633Q19.1406 8.05664 25.5859 8.05664Z"/>
   <path class="hierarchical-1:primary SFSymbolsPreview212121" d="M64.6973-11.5234Q64.1602-10.9863 63.4277-10.9863Q62.6953-10.9863 62.1094-11.5234L39.9414-33.1543Q39.3066-33.7891 39.0625-34.5703Q38.8184-35.3516 39.0381-36.1084Q39.2578-36.8652 39.9414-37.5L62.1094-59.1309Q62.6953-59.7168 63.4033-59.6924Q64.1113-59.668 64.6484-59.1797Q65.1855-58.6914 65.21-57.9346Q65.2344-57.1777 64.5996-56.6406L42.7734-35.3516L64.5996-14.0625Q65.1855-13.5742 65.1855-12.8174Q65.1855-12.0605 64.6973-11.5234Z"/>
  </g>
  <g id="Ultralight-M" transform="matrix(1 0 0 1 504.535 1126)">
   <path class="hierarchical-0:tertiary SFSymbolsPreview8E8E8E" d="M24.9512 7.56836L85.3516 7.56836Q91.5039 7.56836 94.7021 4.3457Q97.9004 1.12305 97.9004-4.98047L97.9004-65.332Q97.9004-71.3867 94.7021-74.6338Q91.5039-77.8809 85.3516-77.8809L24.9512-77.8809Q18.8477-77.8809 15.6494-74.6826Q12.4512-71.4844 12.4512-65.332L12.4512-4.98047Q12.4512 1.2207 15.6494 4.39453Q18.8477 7.56836 24.9512 7.56836Z"/>
   <path class="hierarchical-1:primary SFSymbolsPreview212121" d="M63.9648-11.6699Q63.5742-11.2793 63.0859-11.2549Q62.5977-11.2305 62.1094-11.6699L39.4531-33.9844Q39.0137-34.4238 38.8428-34.9121Q38.6719-35.4004 38.8184-35.8887Q38.9648-36.377 39.4531-36.8164L62.1094-59.1309Q62.5977-59.6191 63.0859-59.5459Q63.5742-59.4727 63.9648-59.1309Q64.3066-58.8379 64.3066-58.3008Q64.3066-57.7637 63.8672-57.4219L41.5039-35.4004L63.8672-13.4277Q64.3066-13.0859 64.2822-12.5488Q64.2578-12.0117 63.9648-11.6699Z"/>
  </g>
  <g id="Black-S" transform="matrix(1 0 0 1 2885.5 696)">
   <path class="hierarchical-0:tertiary SFSymbolsPreview8E8E8E" d="M25 2.92969L70.8008 2.92969Q77.9785 2.92969 82.0068-1.09863Q86.0352-5.12695 86.0352-12.3047L86.0352-58.1055Q86.0352-65.2832 82.0068-69.3115Q77.9785-73.3398 70.8008-73.3398L25-73.3398Q17.8223-73.3398 13.7939-69.3115Q9.76562-65.2832 9.76562-58.1055L9.76562-12.3047Q9.76562-5.12695 13.7939-1.09863Q17.8223 2.92969 25 2.92969Z"/>
   <path class="hierarchical-1:primary SFSymbolsPreview212121" d="M56.9336-15.2832Q55.6152-14.0137 53.3203-14.0137Q51.0254-14.0137 49.5605-15.332L34.4727-29.3945Q32.0312-31.6895 32.0312-35.1807Q32.0312-38.6719 34.4727-40.9668L49.5605-54.9805Q51.1719-56.4941 53.2471-56.4453Q55.3223-56.3965 56.7871-55.0781Q58.4473-53.5645 58.4717-51.3184Q58.4961-49.0723 56.8848-47.5586L43.5547-35.2051L56.8848-22.8027Q58.4473-21.3379 58.5205-19.165Q58.5938-16.9922 56.9336-15.2832Z"/>
  </g>
  <g id="Heavy-S" transform="matrix(1 0 0 1 2589.4 696)">
   <path class="hierarchical-0:tertiary SFSymbolsPreview8E8E8E" d="M24.3652 2.34375L70.2637 2.34375Q77.1973 2.34375 81.0059-1.46484Q84.8145-5.27344 84.8145-12.207L84.8145-58.2031Q84.8145-65.1367 81.0059-68.9453Q77.1973-72.7539 70.2637-72.7539L24.3652-72.7539Q17.3828-72.7539 13.5742-68.9453Q9.76562-65.1367 9.76562-58.2031L9.76562-12.207Q9.76562-5.27344 13.5742-1.46484Q17.3828 2.34375 24.3652 2.34375Z"/>
   <path class="hierarchical-1:primary SFSymbolsPreview212121" d="M56.0547-15.4785Q54.834-14.3555 52.7344-14.3555Q50.6348-14.3555 49.3164-15.5762L34.1309-29.7363Q31.8359-31.8848 31.8359-35.1807Q31.8359-38.4766 34.1309-40.625L49.3164-54.7363Q50.7812-56.1035 52.6855-56.0791Q54.5898-56.0547 55.957-54.8828Q57.4219-53.4668 57.4463-51.416Q57.4707-49.3652 56.0059-47.998L42.2363-35.2051L56.0059-22.3633Q57.4219-20.9961 57.4951-19.0186Q57.5684-17.041 56.0547-15.4785Z"/>
  </g>
  <g id="Bold-S" transform="matrix(1 0 0 1 2293.35 696)">
   <path class="hierarchical-0:tertiary SFSymbolsPreview8E8E8E" d="M23.6328 1.66016L69.6289 1.66016Q76.3672 1.66016 79.9316-1.9043Q83.4961-5.46875 83.4961-12.1094L83.4961-58.3008Q83.4961-64.9902 79.9316-68.5303Q76.3672-72.0703 69.6289-72.0703L23.6328-72.0703Q16.9434-72.0703 13.3545-68.5303Q9.76562-64.9902 9.76562-58.3008L9.76562-12.1094Q9.76562-5.46875 13.3545-1.9043Q16.9434 1.66016 23.6328 1.66016Z"/>
   <path class="hierarchical-1:primary SFSymbolsPreview212121" d="M55.0293-15.7715Q53.9551-14.7461 52.0996-14.7705Q50.2441-14.7949 49.0723-15.8691L33.7402-30.1758Q31.5918-32.1289 31.5918-35.1807Q31.5918-38.2324 33.7402-40.2344L49.0723-54.4922Q50.3418-55.7129 52.0508-55.7129Q53.7598-55.7129 54.9805-54.6387Q56.2988-53.3691 56.3232-51.5625Q56.3477-49.7559 55.0293-48.5352L40.7227-35.2051L55.0293-21.875Q56.2988-20.6543 56.3477-18.8965Q56.3965-17.1387 55.0293-15.7715Z"/>
  </g>
  <g id="Semibold-S" transform="matrix(1 0 0 1 1997.12 696)">
   <path class="hierarchical-0:tertiary SFSymbolsPreview8E8E8E" d="M23.0957 1.2207L69.1895 1.2207Q75.7324 1.2207 79.126-2.17285Q82.5195-5.56641 82.5195-12.0605L82.5195-58.3496Q82.5195-64.8438 79.126-68.2373Q75.7324-71.6309 69.1895-71.6309L23.0957-71.6309Q16.6016-71.6309 13.1836-68.2373Q9.76562-64.8438 9.76562-58.3496L9.76562-12.0605Q9.76562-5.56641 13.1836-2.17285Q16.6016 1.2207 23.0957 1.2207Z"/>
   <path class="hierarchical-1:primary SFSymbolsPreview212121" d="M54.2969-15.918Q53.3203-14.9902 51.6113-15.0146Q49.9023-15.0391 48.8281-16.0156L33.4473-30.4199Q31.3965-32.2754 31.3965-35.1807Q31.3965-38.0859 33.4473-39.9902L48.8281-54.2969Q50-55.4199 51.5869-55.4443Q53.1738-55.4688 54.248-54.4434Q55.4688-53.3203 55.4932-51.6357Q55.5176-49.9512 54.2969-48.877L39.5996-35.2051L54.2969-21.4844Q55.4688-20.4102 55.4932-18.7744Q55.5176-17.1387 54.2969-15.918Z"/>
  </g>
  <g id="Medium-S" transform="matrix(1 0 0 1 1700.75 696)">
   <path class="hierarchical-0:tertiary SFSymbolsPreview8E8E8E" d="M22.7051 0.830078L68.8965 0.830078Q75.293 0.830078 78.5645-2.41699Q81.8359-5.66406 81.8359-11.9629L81.8359-58.4473Q81.8359-64.7461 78.5645-67.9932Q75.293-71.2402 68.8965-71.2402L22.7051-71.2402Q16.3574-71.2402 13.0615-67.9932Q9.76562-64.7461 9.76562-58.4473L9.76562-11.9629Q9.76562-5.66406 13.0615-2.41699Q16.3574 0.830078 22.7051 0.830078Z"/>
   <path class="hierarchical-1:primary SFSymbolsPreview212121" d="M53.7598-16.0645Q52.832-15.1855 51.2451-15.21Q49.6582-15.2344 48.6816-16.1621L33.2031-30.6152Q31.25-32.4219 31.25-35.1807Q31.25-37.9395 33.2031-39.7461L48.6816-54.1992Q49.7559-55.2246 51.2207-55.249Q52.6855-55.2734 53.7109-54.2969Q54.834-53.2227 54.8828-51.6846Q54.9316-50.1465 53.7598-49.1211L38.8184-35.2051L53.7598-21.2402Q54.8828-20.2148 54.8828-18.7012Q54.8828-17.1875 53.7598-16.0645Z"/>
  </g>
  <g id="Regular-S" transform="matrix(1 0 0 1 1404.51 696)">
   <path class="hierarchical-0:tertiary SFSymbolsPreview8E8E8E" d="M22.2168 0.390625L68.457 0.390625Q74.707 0.390625 77.8076-2.68555Q80.9082-5.76172 80.9082-11.9141L80.9082-58.4961Q80.9082-64.6484 77.8076-67.7246Q74.707-70.8008 68.457-70.8008L22.2168-70.8008Q16.0156-70.8008 12.8906-67.7246Q9.76562-64.6484 9.76562-58.4961L9.76562-11.9141Q9.76562-5.76172 12.8906-2.68555Q16.0156 0.390625 22.2168 0.390625Z"/>
   <path class="hierarchical-1:primary SFSymbolsPreview212121" d="M53.0762-16.2109Q52.2461-15.4297 50.8057-15.4785Q49.3652-15.5273 48.4863-16.3574L32.959-30.9082Q31.1035-32.5684 31.1035-35.1807Q31.1035-37.793 32.959-39.502L48.4863-54.0039Q49.4629-54.9316 50.8057-54.9805Q52.1484-55.0293 53.0762-54.1504Q54.0527-53.1738 54.1016-51.7822Q54.1504-50.3906 53.125-49.4629L37.793-35.2051L53.125-20.8984Q54.1016-19.9707 54.1016-18.6035Q54.1016-17.2363 53.0762-16.2109Z"/>
  </g>
  <g id="Light-S" transform="matrix(1 0 0 1 1108.46 696)">
   <path class="hierarchical-0:tertiary SFSymbolsPreview8E8E8E" d="M21.3867-0.244141L67.9688-0.244141Q73.7793-0.244141 76.6846-3.17383Q79.5898-6.10352 79.5898-11.8164L79.5898-58.5938Q79.5898-64.3066 76.6846-67.2119Q73.7793-70.1172 67.9688-70.1172L21.3867-70.1172Q15.625-70.1172 12.6953-67.2119Q9.76562-64.3066 9.76562-58.5938L9.76562-11.8164Q9.76562-6.05469 12.6953-3.14941Q15.625-0.244141 21.3867-0.244141Z"/>
   <path class="hierarchical-1:primary SFSymbolsPreview212121" d="M52.1484-16.4062Q51.4648-15.7715 50.3662-15.7959Q49.2676-15.8203 48.5352-16.5039L32.3242-31.9336Q30.8594-33.252 30.8594-35.2295Q30.8594-37.207 32.3242-38.5742L48.5352-54.0039Q49.3164-54.7363 50.3662-54.7607Q51.416-54.7852 52.1484-54.1016Q52.8809-53.3691 52.9297-52.2705Q52.9785-51.1719 52.1484-50.4395L36.1328-35.2539L52.1484-20.0684Q52.9297-19.3359 52.9297-18.2617Q52.9297-17.1875 52.1484-16.4062Z"/>
  </g>
  <g id="Thin-S" transform="matrix(1 0 0 1 812.623 696)">
   <path class="hierarchical-0:tertiary SFSymbolsPreview8E8E8E" d="M20.3125-1.12305L67.2852-1.12305Q72.5098-1.12305 75.1709-3.80859Q77.832-6.49414 77.832-11.6211L77.832-58.6914Q77.832-63.8184 75.1709-66.5283Q72.5098-69.2383 67.2852-69.2383L20.3125-69.2383Q15.0879-69.2383 12.4268-66.5771Q9.76562-63.916 9.76562-58.6914L9.76562-11.6211Q9.76562-6.44531 12.4268-3.78418Q15.0879-1.12305 20.3125-1.12305Z"/>
   <path class="hierarchical-1:primary SFSymbolsPreview212121" d="M50.9277-16.5527Q50.5371-16.1621 49.8291-16.1621Q49.1211-16.1621 48.6328-16.6016L31.4941-33.3008Q30.5664-34.1309 30.5664-35.2539Q30.5664-36.377 31.4941-37.3047L48.6328-53.9551Q49.1699-54.4434 49.8047-54.4434Q50.4395-54.4434 50.9277-54.0039Q51.416-53.5156 51.416-52.832Q51.416-52.1484 50.8789-51.709L33.9844-35.3027L50.8789-18.8965Q51.416-18.4082 51.3916-17.749Q51.3672-17.0898 50.9277-16.5527Z"/>
  </g>
  <g id="Ultralight-S" transform="matrix(1 0 0 1 516.352 696)">
   <path class="hierarchical-0:tertiary SFSymbolsPreview8E8E8E" d="M19.7754-1.5625L66.9434-1.5625Q71.875-1.5625 74.4141-4.15039Q76.9531-6.73828 76.9531-11.5723L76.9531-58.7891Q76.9531-63.623 74.4141-66.1865Q71.875-68.75 66.9434-68.75L19.7754-68.75Q14.8438-68.75 12.3047-66.2109Q9.76562-63.6719 9.76562-58.7891L9.76562-11.5723Q9.76562-6.64062 12.3047-4.10156Q14.8438-1.5625 19.7754-1.5625Z"/>
   <path class="hierarchical-1:primary SFSymbolsPreview212121" d="M50.293-16.6992Q50-16.4062 49.5361-16.3818Q49.0723-16.3574 48.7305-16.748L31.1035-33.9844Q30.4199-34.6191 30.4199-35.3271Q30.4199-36.0352 31.1035-36.6699L48.7305-53.9551Q49.1211-54.3457 49.5361-54.3213Q49.9512-54.2969 50.293-53.9551Q50.6348-53.6621 50.6348-53.1982Q50.6348-52.7344 50.2441-52.3926L32.9102-35.3516L50.2441-18.3105Q50.6348-17.9688 50.6104-17.5049Q50.5859-17.041 50.293-16.6992Z"/>
  </g>
 </g>
</svg>
