<?xml version="1.0" encoding="UTF-8"?>
<!--Generator: Apple Native CoreSVG 175-->
<!DOCTYPE svg
PUBLIC "-//W3C//DTD SVG 1.1//EN"
       "http://www.w3.org/Graphics/SVG/1.1/DTD/svg11.dtd">
<svg version="1.1" xmlns="http://www.w3.org/2000/svg" xmlns:xlink="http://www.w3.org/1999/xlink" width="3300" height="2200">
 <!--glyph: "uni100B13.medium", point size: 100.0, font version: "17.0d11e1", template writer version: "65.1"-->
 <g id="Notes">
  <rect height="2200" id="artboard" style="fill:white;opacity:1" width="3300" x="0" y="0"/>
  <line style="fill:none;stroke:black;opacity:1;stroke-width:0.5;" x1="263" x2="3036" y1="292" y2="292"/>
  <text style="stroke:none;fill:black;font-family:sans-serif;font-size:13;font-weight:bold;" transform="matrix(1 0 0 1 263 322)">Weight/Scale Variations</text>
  <text style="stroke:none;fill:black;font-family:sans-serif;font-size:13;text-anchor:middle;" transform="matrix(1 0 0 1 559.711 322)">Ultralight</text>
  <text style="stroke:none;fill:black;font-family:sans-serif;font-size:13;text-anchor:middle;" transform="matrix(1 0 0 1 856.422 322)">Thin</text>
  <text style="stroke:none;fill:black;font-family:sans-serif;font-size:13;text-anchor:middle;" transform="matrix(1 0 0 1 1153.13 322)">Light</text>
  <text style="stroke:none;fill:black;font-family:sans-serif;font-size:13;text-anchor:middle;" transform="matrix(1 0 0 1 1449.84 322)">Regular</text>
  <text style="stroke:none;fill:black;font-family:sans-serif;font-size:13;text-anchor:middle;" transform="matrix(1 0 0 1 1746.56 322)">Medium</text>
  <text style="stroke:none;fill:black;font-family:sans-serif;font-size:13;text-anchor:middle;" transform="matrix(1 0 0 1 2043.27 322)">Semibold</text>
  <text style="stroke:none;fill:black;font-family:sans-serif;font-size:13;text-anchor:middle;" transform="matrix(1 0 0 1 2339.98 322)">Bold</text>
  <text style="stroke:none;fill:black;font-family:sans-serif;font-size:13;text-anchor:middle;" transform="matrix(1 0 0 1 2636.69 322)">Heavy</text>
  <text style="stroke:none;fill:black;font-family:sans-serif;font-size:13;text-anchor:middle;" transform="matrix(1 0 0 1 2933.4 322)">Black</text>
  <line style="fill:none;stroke:black;opacity:1;stroke-width:0.5;" x1="263" x2="3036" y1="1903" y2="1903"/>
  <g transform="matrix(1 0 0 1 263 1933)">
   <path d="M9.24805 0.830078Q10.8691 0.830078 12.2949 0.214844Q13.7207-0.400391 14.8096-1.49414Q15.8984-2.58789 16.5186-4.01367Q17.1387-5.43945 17.1387-7.05078Q17.1387-8.66211 16.5186-10.0879Q15.8984-11.5137 14.8047-12.6074Q13.7109-13.7012 12.2852-14.3164Q10.8594-14.9316 9.23828-14.9316Q7.62695-14.9316 6.20117-14.3164Q4.77539-13.7012 3.69141-12.6074Q2.60742-11.5137 1.9873-10.0879Q1.36719-8.66211 1.36719-7.05078Q1.36719-5.43945 1.9873-4.01367Q2.60742-2.58789 3.69629-1.49414Q4.78516-0.400391 6.21094 0.214844Q7.63672 0.830078 9.24805 0.830078ZM9.24805-0.654297Q7.91992-0.654297 6.7627-1.14746Q5.60547-1.64062 4.73145-2.51953Q3.85742-3.39844 3.36426-4.56055Q2.87109-5.72266 2.87109-7.05078Q2.87109-8.37891 3.35938-9.54102Q3.84766-10.7031 4.72168-11.582Q5.5957-12.4609 6.75293-12.9541Q7.91016-13.4473 9.23828-13.4473Q10.5762-13.4473 11.7334-12.9541Q12.8906-12.4609 13.7695-11.582Q14.6484-10.7031 15.1465-9.54102Q15.6445-8.37891 15.6445-7.05078Q15.6445-5.72266 15.1514-4.56055Q14.6582-3.39844 13.7842-2.51953Q12.9102-1.64062 11.748-1.14746Q10.5859-0.654297 9.24805-0.654297ZM5.6543-7.05078Q5.6543-6.72852 5.85938-6.52832Q6.06445-6.32812 6.40625-6.32812L8.51562-6.32812L8.51562-4.20898Q8.51562-3.88672 8.71094-3.67676Q8.90625-3.4668 9.23828-3.4668Q9.56055-3.4668 9.77051-3.67676Q9.98047-3.88672 9.98047-4.20898L9.98047-6.32812L12.0898-6.32812Q12.4219-6.32812 12.627-6.52832Q12.832-6.72852 12.832-7.05078Q12.832-7.38281 12.627-7.58789Q12.4219-7.79297 12.0898-7.79297L9.98047-7.79297L9.98047-9.90234Q9.98047-10.2344 9.77051-10.4443Q9.56055-10.6543 9.23828-10.6543Q8.90625-10.6543 8.71094-10.4443Q8.51562-10.2344 8.51562-9.90234L8.51562-7.79297L6.40625-7.79297Q6.06445-7.79297 5.85938-7.58789Q5.6543-7.38281 5.6543-7.05078Z"/>
  </g>
  <g transform="matrix(1 0 0 1 281.867 1933)">
   <path d="M11.709 2.91016Q13.75 2.91016 15.5518 2.12891Q17.3535 1.34766 18.7305-0.0292969Q20.1074-1.40625 20.8887-3.20801Q21.6699-5.00977 21.6699-7.05078Q21.6699-9.0918 20.8887-10.8936Q20.1074-12.6953 18.7305-14.0723Q17.3535-15.4492 15.5469-16.2305Q13.7402-17.0117 11.6992-17.0117Q9.6582-17.0117 7.85645-16.2305Q6.05469-15.4492 4.68262-14.0723Q3.31055-12.6953 2.5293-10.8936Q1.74805-9.0918 1.74805-7.05078Q1.74805-5.00977 2.5293-3.20801Q3.31055-1.40625 4.6875-0.0292969Q6.06445 1.34766 7.86621 2.12891Q9.66797 2.91016 11.709 2.91016ZM11.709 1.25Q9.98047 1.25 8.47656 0.605469Q6.97266-0.0390625 5.83496-1.17676Q4.69727-2.31445 4.05762-3.81836Q3.41797-5.32227 3.41797-7.05078Q3.41797-8.7793 4.05762-10.2832Q4.69727-11.7871 5.83008-12.9297Q6.96289-14.0723 8.4668-14.7119Q9.9707-15.3516 11.6992-15.3516Q13.4277-15.3516 14.9316-14.7119Q16.4355-14.0723 17.5781-12.9297Q18.7207-11.7871 19.3652-10.2832Q20.0098-8.7793 20.0098-7.05078Q20.0098-5.32227 19.3701-3.81836Q18.7305-2.31445 17.5928-1.17676Q16.4551-0.0390625 14.9463 0.605469Q13.4375 1.25 11.709 1.25ZM7.17773-7.05078Q7.17773-6.69922 7.41211-6.47461Q7.64648-6.25 8.01758-6.25L10.8887-6.25L10.8887-3.36914Q10.8887-2.99805 11.1133-2.76855Q11.3379-2.53906 11.6895-2.53906Q12.0605-2.53906 12.29-2.76855Q12.5195-2.99805 12.5195-3.36914L12.5195-6.25L15.4004-6.25Q15.7715-6.25 16.001-6.47461Q16.2305-6.69922 16.2305-7.05078Q16.2305-7.42188 16.001-7.65137Q15.7715-7.88086 15.4004-7.88086L12.5195-7.88086L12.5195-10.752Q12.5195-11.1328 12.29-11.3623Q12.0605-11.5918 11.6895-11.5918Q11.3379-11.5918 11.1133-11.3574Q10.8887-11.123 10.8887-10.752L10.8887-7.88086L8.01758-7.88086Q7.63672-7.88086 7.40723-7.65137Q7.17773-7.42188 7.17773-7.05078Z"/>
  </g>
  <g transform="matrix(1 0 0 1 305.646 1933)">
   <path d="M14.9707 5.66406Q17.0605 5.66406 18.96 5.01465Q20.8594 4.36523 22.4512 3.19336Q24.043 2.02148 25.2197 0.429688Q26.3965-1.16211 27.0459-3.06641Q27.6953-4.9707 27.6953-7.05078Q27.6953-9.14062 27.0459-11.04Q26.3965-12.9395 25.2197-14.5312Q24.043-16.123 22.4512-17.2998Q20.8594-18.4766 18.9551-19.126Q17.0508-19.7754 14.9609-19.7754Q12.8711-19.7754 10.9717-19.126Q9.07227-18.4766 7.48535-17.2998Q5.89844-16.123 4.72168-14.5312Q3.54492-12.9395 2.90039-11.04Q2.25586-9.14062 2.25586-7.05078Q2.25586-4.9707 2.90527-3.06641Q3.55469-1.16211 4.72656 0.429688Q5.89844 2.02148 7.49023 3.19336Q9.08203 4.36523 10.9814 5.01465Q12.8809 5.66406 14.9707 5.66406ZM14.9707 3.84766Q13.1641 3.84766 11.5283 3.2959Q9.89258 2.74414 8.53516 1.74805Q7.17773 0.751953 6.17676-0.610352Q5.17578-1.97266 4.62891-3.6084Q4.08203-5.24414 4.08203-7.05078Q4.08203-8.86719 4.62891-10.5029Q5.17578-12.1387 6.17188-13.501Q7.16797-14.8633 8.52539-15.8594Q9.88281-16.8555 11.5186-17.4023Q13.1543-17.9492 14.9609-17.9492Q16.7773-17.9492 18.4131-17.4023Q20.0488-16.8555 21.4111-15.8594Q22.7734-14.8633 23.7695-13.501Q24.7656-12.1387 25.3174-10.5029Q25.8691-8.86719 25.8691-7.05078Q25.8789-5.24414 25.332-3.6084Q24.7852-1.97266 23.7842-0.610352Q22.7832 0.751953 21.4209 1.74805Q20.0586 2.74414 18.4229 3.2959Q16.7871 3.84766 14.9707 3.84766ZM9.19922-7.05078Q9.19922-6.66992 9.45801-6.4209Q9.7168-6.17188 10.1172-6.17188L14.0625-6.17188L14.0625-2.2168Q14.0625-1.81641 14.3115-1.55762Q14.5605-1.29883 14.9512-1.29883Q15.3516-1.29883 15.6104-1.55273Q15.8691-1.80664 15.8691-2.2168L15.8691-6.17188L19.8242-6.17188Q20.2246-6.17188 20.4785-6.4209Q20.7324-6.66992 20.7324-7.05078Q20.7324-7.46094 20.4785-7.71484Q20.2246-7.96875 19.8242-7.96875L15.8691-7.96875L15.8691-11.9141Q15.8691-12.3242 15.6104-12.583Q15.3516-12.8418 14.9512-12.8418Q14.5605-12.8418 14.3115-12.583Q14.0625-12.3242 14.0625-11.9141L14.0625-7.96875L10.1172-7.96875Q9.70703-7.96875 9.45312-7.71484Q9.19922-7.46094 9.19922-7.05078Z"/>
  </g>
  <text style="stroke:none;fill:black;font-family:sans-serif;font-size:13;font-weight:bold;" transform="matrix(1 0 0 1 263 1953)">Design Variations</text>
  <text style="stroke:none;fill:black;font-family:sans-serif;font-size:13;" transform="matrix(1 0 0 1 263 1971)">Symbols are supported in up to nine weights and three scales.</text>
  <text style="stroke:none;fill:black;font-family:sans-serif;font-size:13;" transform="matrix(1 0 0 1 263 1989)">For optimal layout with text and other symbols, vertically align</text>
  <text style="stroke:none;fill:black;font-family:sans-serif;font-size:13;" transform="matrix(1 0 0 1 263 2007)">symbols with the adjacent text.</text>
  <line style="fill:none;stroke:#00AEEF;stroke-width:0.5;opacity:1.0;" x1="776" x2="776" y1="1919" y2="1933"/>
  <g transform="matrix(1 0 0 1 776 1933)">
   <path d="M3.31055 0.15625Q3.70117 0.15625 3.91602-0.00976562Q4.13086-0.175781 4.26758-0.585938L5.52734-4.0332L11.2891-4.0332L12.5488-0.585938Q12.6855-0.175781 12.9004-0.00976562Q13.1152 0.15625 13.4961 0.15625Q13.8867 0.15625 14.1162-0.0585938Q14.3457-0.273438 14.3457-0.644531Q14.3457-0.869141 14.2383-1.17188L9.6582-13.3691Q9.48242-13.8184 9.17969-14.043Q8.87695-14.2676 8.4082-14.2676Q7.5-14.2676 7.17773-13.3789L2.59766-1.16211Q2.49023-0.859375 2.49023-0.634766Q2.49023-0.263672 2.70996-0.0537109Q2.92969 0.15625 3.31055 0.15625ZM6.00586-5.51758L8.37891-12.0898L8.42773-12.0898L10.8008-5.51758Z"/>
  </g>
  <line style="fill:none;stroke:#00AEEF;stroke-width:0.5;opacity:1.0;" x1="793.197" x2="793.197" y1="1919" y2="1933"/>
  <text style="stroke:none;fill:black;font-family:sans-serif;font-size:13;font-weight:bold;" transform="matrix(1 0 0 1 776 1953)">Margins</text>
  <text style="stroke:none;fill:black;font-family:sans-serif;font-size:13;" transform="matrix(1 0 0 1 776 1971)">Leading and trailing margins on the left and right side of each symbol</text>
  <text style="stroke:none;fill:black;font-family:sans-serif;font-size:13;" transform="matrix(1 0 0 1 776 1989)">can be adjusted by modifying the x-location of the margin guidelines.</text>
  <text style="stroke:none;fill:black;font-family:sans-serif;font-size:13;" transform="matrix(1 0 0 1 776 2007)">Modifications are automatically applied proportionally to all</text>
  <text style="stroke:none;fill:black;font-family:sans-serif;font-size:13;" transform="matrix(1 0 0 1 776 2025)">scales and weights.</text>
  <g transform="matrix(1 0 0 1 1289 1933)">
   <path d="M2.8418 1.86523L4.54102 3.57422Q5.18555 4.22852 5.90332 4.17969Q6.62109 4.13086 7.31445 3.35938L18.0078-8.42773L17.041-9.4043L6.42578 2.27539Q6.16211 2.57812 5.89355 2.61719Q5.625 2.65625 5.27344 2.30469L4.10156 1.14258Q3.75 0.791016 3.79395 0.522461Q3.83789 0.253906 4.14062-0.0195312L15.6152-10.8203L14.6387-11.7871L3.04688-0.898438Q2.30469-0.214844 2.25098 0.498047Q2.19727 1.21094 2.8418 1.86523ZM9.25781-16.3281Q8.94531-16.0254 8.90625-15.6348Q8.86719-15.2441 9.04297-14.9512Q9.21875-14.6777 9.55566-14.541Q9.89258-14.4043 10.3809-14.5215Q11.4746-14.7754 12.5977-14.7314Q13.7207-14.6875 14.7949-13.9844L14.209-12.5293Q13.9551-11.9043 14.0674-11.4404Q14.1797-10.9766 14.5801-10.5664L16.875-8.25195Q17.2363-7.88086 17.5781-7.82227Q17.9199-7.76367 18.3398-7.8418L19.4043-8.03711L20.0684-7.36328L20.0293-6.80664Q20-6.43555 20.1221-6.12305Q20.2441-5.81055 20.6055-5.44922L21.3672-4.70703Q21.7285-4.3457 22.1533-4.33105Q22.5781-4.31641 22.9297-4.66797L25.8398-7.58789Q26.1914-7.93945 26.1816-8.35449Q26.1719-8.76953 25.8105-9.13086L25.0391-9.89258Q24.6875-10.2539 24.3799-10.3857Q24.0723-10.5176 23.7109-10.4883L23.1348-10.4395L22.4902-11.0742L22.7344-12.1973Q22.832-12.6172 22.6953-12.9834Q22.5586-13.3496 22.1191-13.7891L19.9219-15.9766Q18.6719-17.2168 17.2607-17.8369Q15.8496-18.457 14.4189-18.4814Q12.9883-18.5059 11.665-17.959Q10.3418-17.4121 9.25781-16.3281ZM10.752-15.957Q11.6602-16.6211 12.7002-16.9043Q13.7402-17.1875 14.8047-17.085Q15.8691-16.9824 16.8701-16.5137Q17.8711-16.0449 18.7012-15.2051L21.1328-12.793Q21.3086-12.6172 21.3525-12.4512Q21.3965-12.2852 21.3379-12.0312L21.0156-10.5469L22.5195-9.0625L23.5059-9.12109Q23.6914-9.13086 23.7891-9.09668Q23.8867-9.0625 24.0332-8.91602L24.6094-8.33984L22.168-5.89844L21.5918-6.47461Q21.4453-6.62109 21.4062-6.71875Q21.3672-6.81641 21.377-7.01172L21.4453-7.98828L19.9512-9.47266L18.4277-9.21875Q18.1836-9.16992 18.042-9.2041Q17.9004-9.23828 17.7148-9.41406L15.7129-11.416Q15.5176-11.5918 15.4932-11.7529Q15.4688-11.9141 15.5859-12.1875L16.4648-14.2773Q15.293-15.3711 13.8281-15.791Q12.3633-16.2109 10.8398-15.7617Q10.7227-15.7324 10.6885-15.8057Q10.6543-15.8789 10.752-15.957Z"/>
  </g>
  <text style="stroke:none;fill:black;font-family:sans-serif;font-size:13;font-weight:bold;" transform="matrix(1 0 0 1 1289 1953)">Exporting</text>
  <text style="stroke:none;fill:black;font-family:sans-serif;font-size:13;" transform="matrix(1 0 0 1 1289 1971)">Symbols should be outlined when exporting to ensure the</text>
  <text style="stroke:none;fill:black;font-family:sans-serif;font-size:13;" transform="matrix(1 0 0 1 1289 1989)">design is preserved when submitting to Xcode.</text>
  <text id="template-version" style="stroke:none;fill:black;font-family:sans-serif;font-size:13;text-anchor:end;" transform="matrix(1 0 0 1 3036 1933)">Template v.3.0</text>
  <text style="stroke:none;fill:black;font-family:sans-serif;font-size:13;text-anchor:end;" transform="matrix(1 0 0 1 3036 1951)">Requires Xcode 13 or greater</text>
  <text id="descriptive-name" style="stroke:none;fill:black;font-family:sans-serif;font-size:13;text-anchor:end;" transform="matrix(1 0 0 1 3036 1969)">Generated from books.vertical.fill</text>
  <text style="stroke:none;fill:black;font-family:sans-serif;font-size:13;text-anchor:end;" transform="matrix(1 0 0 1 3036 1987)">Typeset at 100 points</text>
  <text style="stroke:none;fill:black;font-family:sans-serif;font-size:13;" transform="matrix(1 0 0 1 263 726)">Small</text>
  <text style="stroke:none;fill:black;font-family:sans-serif;font-size:13;" transform="matrix(1 0 0 1 263 1156)">Medium</text>
  <text style="stroke:none;fill:black;font-family:sans-serif;font-size:13;" transform="matrix(1 0 0 1 263 1586)">Large</text>
 </g>
 <g id="Guides">
  <g id="H-reference" style="fill:#27AAE1;stroke:none;" transform="matrix(1 0 0 1 339 696)">
   <path d="M0.976562 0L3.66211 0L29.3457-67.1387L30.0293-67.1387L30.0293-70.459L28.125-70.459ZM11.6699-24.4629L46.9727-24.4629L46.2402-26.709L12.4512-26.709ZM55.127 0L57.7637 0L30.6152-70.459L29.4434-70.459L29.4434-67.1387Z"/>
  </g>
  <line id="Baseline-S" style="fill:none;stroke:#27AAE1;opacity:1;stroke-width:0.5;" x1="263" x2="3036" y1="696" y2="696"/>
  <line id="Capline-S" style="fill:none;stroke:#27AAE1;opacity:1;stroke-width:0.5;" x1="263" x2="3036" y1="625.541" y2="625.541"/>
  <g id="H-reference" style="fill:#27AAE1;stroke:none;" transform="matrix(1 0 0 1 339 1126)">
   <path d="M0.976562 0L3.66211 0L29.3457-67.1387L30.0293-67.1387L30.0293-70.459L28.125-70.459ZM11.6699-24.4629L46.9727-24.4629L46.2402-26.709L12.4512-26.709ZM55.127 0L57.7637 0L30.6152-70.459L29.4434-70.459L29.4434-67.1387Z"/>
  </g>
  <line id="Baseline-M" style="fill:none;stroke:#27AAE1;opacity:1;stroke-width:0.5;" x1="263" x2="3036" y1="1126" y2="1126"/>
  <line id="Capline-M" style="fill:none;stroke:#27AAE1;opacity:1;stroke-width:0.5;" x1="263" x2="3036" y1="1055.54" y2="1055.54"/>
  <g id="H-reference" style="fill:#27AAE1;stroke:none;" transform="matrix(1 0 0 1 339 1556)">
   <path d="M0.976562 0L3.66211 0L29.3457-67.1387L30.0293-67.1387L30.0293-70.459L28.125-70.459ZM11.6699-24.4629L46.9727-24.4629L46.2402-26.709L12.4512-26.709ZM55.127 0L57.7637 0L30.6152-70.459L29.4434-70.459L29.4434-67.1387Z"/>
  </g>
  <line id="Baseline-L" style="fill:none;stroke:#27AAE1;opacity:1;stroke-width:0.5;" x1="263" x2="3036" y1="1556" y2="1556"/>
  <line id="Capline-L" style="fill:none;stroke:#27AAE1;opacity:1;stroke-width:0.5;" x1="263" x2="3036" y1="1485.54" y2="1485.54"/>
  <line id="left-margin-Ultralight-S" style="fill:none;stroke:#00AEEF;stroke-width:0.5;opacity:1.0;" x1="509.882" x2="509.882" y1="600.785" y2="720.121"/>
  <line id="right-margin-Ultralight-S" style="fill:none;stroke:#00AEEF;stroke-width:0.5;opacity:1.0;" x1="609.54" x2="609.54" y1="600.785" y2="720.121"/>
  <line id="left-margin-Thin-S" style="fill:none;stroke:#00AEEF;stroke-width:0.5;opacity:1.0;" x1="805.006" x2="805.006" y1="600.785" y2="720.121"/>
  <line id="right-margin-Thin-S" style="fill:none;stroke:#00AEEF;stroke-width:0.5;opacity:1.0;" x1="907.838" x2="907.838" y1="600.785" y2="720.121"/>
  <line id="left-margin-Light-S" style="fill:none;stroke:#00AEEF;stroke-width:0.5;opacity:1.0;" x1="1098.67" x2="1098.67" y1="600.785" y2="720.121"/>
  <line id="right-margin-Light-S" style="fill:none;stroke:#00AEEF;stroke-width:0.5;opacity:1.0;" x1="1207.6" x2="1207.6" y1="600.785" y2="720.121"/>
  <line id="left-margin-Regular-S" style="fill:none;stroke:#00AEEF;stroke-width:0.5;opacity:1.0;" x1="1393.06" x2="1393.06" y1="600.785" y2="720.121"/>
  <line id="right-margin-Regular-S" style="fill:none;stroke:#00AEEF;stroke-width:0.5;opacity:1.0;" x1="1506.63" x2="1506.63" y1="600.785" y2="720.121"/>
  <line id="left-margin-Medium-S" style="fill:none;stroke:#00AEEF;stroke-width:0.5;opacity:1.0;" x1="1688.11" x2="1688.11" y1="600.785" y2="720.121"/>
  <line id="right-margin-Medium-S" style="fill:none;stroke:#00AEEF;stroke-width:0.5;opacity:1.0;" x1="1805" x2="1805" y1="600.785" y2="720.121"/>
  <line id="left-margin-Semibold-S" style="fill:none;stroke:#00AEEF;stroke-width:0.5;opacity:1.0;" x1="1983.55" x2="1983.55" y1="600.785" y2="720.121"/>
  <line id="right-margin-Semibold-S" style="fill:none;stroke:#00AEEF;stroke-width:0.5;opacity:1.0;" x1="2102.98" x2="2102.98" y1="600.785" y2="720.121"/>
  <line id="left-margin-Bold-S" style="fill:none;stroke:#00AEEF;stroke-width:0.5;opacity:1.0;" x1="2278.58" x2="2278.58" y1="600.785" y2="720.121"/>
  <line id="right-margin-Bold-S" style="fill:none;stroke:#00AEEF;stroke-width:0.5;opacity:1.0;" x1="2401.38" x2="2401.38" y1="600.785" y2="720.121"/>
  <line id="left-margin-Heavy-S" style="fill:none;stroke:#00AEEF;stroke-width:0.5;opacity:1.0;" x1="2572.87" x2="2572.87" y1="600.785" y2="720.121"/>
  <line id="right-margin-Heavy-S" style="fill:none;stroke:#00AEEF;stroke-width:0.5;opacity:1.0;" x1="2700.51" x2="2700.51" y1="600.785" y2="720.121"/>
  <line id="left-margin-Black-S" style="fill:none;stroke:#00AEEF;stroke-width:0.5;opacity:1.0;" x1="2867.41" x2="2867.41" y1="600.785" y2="720.121"/>
  <line id="right-margin-Black-S" style="fill:none;stroke:#00AEEF;stroke-width:0.5;opacity:1.0;" x1="2999.39" x2="2999.39" y1="600.785" y2="720.121"/>
  <line id="left-margin-Ultralight-M" style="fill:none;stroke:#00AEEF;stroke-width:0.5;opacity:1.0;" x1="496.723" x2="496.723" y1="1030.79" y2="1150.12"/>
  <line id="right-margin-Ultralight-M" style="fill:none;stroke:#00AEEF;stroke-width:0.5;opacity:1.0;" x1="622.699" x2="622.699" y1="1030.79" y2="1150.12"/>
  <line id="left-margin-Thin-M" style="fill:none;stroke:#00AEEF;stroke-width:0.5;opacity:1.0;" x1="791.652" x2="791.652" y1="1030.79" y2="1150.12"/>
  <line id="right-margin-Thin-M" style="fill:none;stroke:#00AEEF;stroke-width:0.5;opacity:1.0;" x1="921.193" x2="921.193" y1="1030.79" y2="1150.12"/>
  <line id="left-margin-Light-M" style="fill:none;stroke:#00AEEF;stroke-width:0.5;opacity:1.0;" x1="1084.9" x2="1084.9" y1="1030.79" y2="1150.12"/>
  <line id="right-margin-Light-M" style="fill:none;stroke:#00AEEF;stroke-width:0.5;opacity:1.0;" x1="1221.37" x2="1221.37" y1="1030.79" y2="1150.12"/>
  <line id="left-margin-Regular-M" style="fill:none;stroke:#00AEEF;stroke-width:0.5;opacity:1.0;" x1="1378.99" x2="1378.99" y1="1030.79" y2="1150.12"/>
  <line id="right-margin-Regular-M" style="fill:none;stroke:#00AEEF;stroke-width:0.5;opacity:1.0;" x1="1520.69" x2="1520.69" y1="1030.79" y2="1150.12"/>
  <line id="left-margin-Medium-M" style="fill:none;stroke:#00AEEF;stroke-width:0.5;opacity:1.0;" x1="1673.46" x2="1673.46" y1="1030.79" y2="1150.12"/>
  <line id="right-margin-Medium-M" style="fill:none;stroke:#00AEEF;stroke-width:0.5;opacity:1.0;" x1="1819.65" x2="1819.65" y1="1030.79" y2="1150.12"/>
  <line id="left-margin-Semibold-M" style="fill:none;stroke:#00AEEF;stroke-width:0.5;opacity:1.0;" x1="1968.46" x2="1968.46" y1="1030.79" y2="1150.12"/>
  <line id="right-margin-Semibold-M" style="fill:none;stroke:#00AEEF;stroke-width:0.5;opacity:1.0;" x1="2118.07" x2="2118.07" y1="1030.79" y2="1150.12"/>
  <line id="left-margin-Bold-M" style="fill:none;stroke:#00AEEF;stroke-width:0.5;opacity:1.0;" x1="2262.9" x2="2262.9" y1="1030.79" y2="1150.12"/>
  <line id="right-margin-Bold-M" style="fill:none;stroke:#00AEEF;stroke-width:0.5;opacity:1.0;" x1="2417.05" x2="2417.05" y1="1030.79" y2="1150.12"/>
  <line id="left-margin-Heavy-M" style="fill:none;stroke:#00AEEF;stroke-width:0.5;opacity:1.0;" x1="2556.34" x2="2556.34" y1="1030.79" y2="1150.12"/>
  <line id="right-margin-Heavy-M" style="fill:none;stroke:#00AEEF;stroke-width:0.5;opacity:1.0;" x1="2717.04" x2="2717.04" y1="1030.79" y2="1150.12"/>
  <line id="left-margin-Black-M" style="fill:none;stroke:#00AEEF;stroke-width:0.5;opacity:1.0;" x1="2850.12" x2="2850.12" y1="1030.79" y2="1150.12"/>
  <line id="right-margin-Black-M" style="fill:none;stroke:#00AEEF;stroke-width:0.5;opacity:1.0;" x1="3016.68" x2="3016.68" y1="1030.79" y2="1150.12"/>
  <line id="left-margin-Ultralight-L" style="fill:none;stroke:#00AEEF;stroke-width:0.5;opacity:1.0;" x1="479.145" x2="479.145" y1="1460.79" y2="1580.12"/>
  <line id="right-margin-Ultralight-L" style="fill:none;stroke:#00AEEF;stroke-width:0.5;opacity:1.0;" x1="640.278" x2="640.278" y1="1460.79" y2="1580.12"/>
  <line id="left-margin-Thin-L" style="fill:none;stroke:#00AEEF;stroke-width:0.5;opacity:1.0;" x1="773.878" x2="773.878" y1="1460.79" y2="1580.12"/>
  <line id="right-margin-Thin-L" style="fill:none;stroke:#00AEEF;stroke-width:0.5;opacity:1.0;" x1="938.966" x2="938.966" y1="1460.79" y2="1580.12"/>
  <line id="left-margin-Light-L" style="fill:none;stroke:#00AEEF;stroke-width:0.5;opacity:1.0;" x1="1066.76" x2="1066.76" y1="1460.79" y2="1580.12"/>
  <line id="right-margin-Light-L" style="fill:none;stroke:#00AEEF;stroke-width:0.5;opacity:1.0;" x1="1239.51" x2="1239.51" y1="1460.79" y2="1580.12"/>
  <line id="left-margin-Regular-L" style="fill:none;stroke:#00AEEF;stroke-width:0.5;opacity:1.0;" x1="1360.56" x2="1360.56" y1="1460.79" y2="1580.12"/>
  <line id="right-margin-Regular-L" style="fill:none;stroke:#00AEEF;stroke-width:0.5;opacity:1.0;" x1="1539.13" x2="1539.13" y1="1460.79" y2="1580.12"/>
  <line id="left-margin-Medium-L" style="fill:none;stroke:#00AEEF;stroke-width:0.5;opacity:1.0;" x1="1654.49" x2="1654.49" y1="1460.79" y2="1580.12"/>
  <line id="right-margin-Medium-L" style="fill:none;stroke:#00AEEF;stroke-width:0.5;opacity:1.0;" x1="1838.62" x2="1838.62" y1="1460.79" y2="1580.12"/>
  <line id="left-margin-Semibold-L" style="fill:none;stroke:#00AEEF;stroke-width:0.5;opacity:1.0;" x1="1949.08" x2="1949.08" y1="1460.79" y2="1580.12"/>
  <line id="right-margin-Semibold-L" style="fill:none;stroke:#00AEEF;stroke-width:0.5;opacity:1.0;" x1="2137.46" x2="2137.46" y1="1460.79" y2="1580.12"/>
  <line id="left-margin-Bold-L" style="fill:none;stroke:#00AEEF;stroke-width:0.5;opacity:1.0;" x1="2242.98" x2="2242.98" y1="1460.79" y2="1580.12"/>
  <line id="right-margin-Bold-L" style="fill:none;stroke:#00AEEF;stroke-width:0.5;opacity:1.0;" x1="2436.97" x2="2436.97" y1="1460.79" y2="1580.12"/>
  <line id="left-margin-Heavy-L" style="fill:none;stroke:#00AEEF;stroke-width:0.5;opacity:1.0;" x1="2535.61" x2="2535.61" y1="1460.79" y2="1580.12"/>
  <line id="right-margin-Heavy-L" style="fill:none;stroke:#00AEEF;stroke-width:0.5;opacity:1.0;" x1="2737.76" x2="2737.76" y1="1460.79" y2="1580.12"/>
  <line id="left-margin-Black-L" style="fill:none;stroke:#00AEEF;stroke-width:0.5;opacity:1.0;" x1="2828.69" x2="2828.69" y1="1460.79" y2="1580.12"/>
  <line id="right-margin-Black-L" style="fill:none;stroke:#00AEEF;stroke-width:0.5;opacity:1.0;" x1="3038.11" x2="3038.11" y1="1460.79" y2="1580.12"/>
 </g>
 <g id="Symbols">
  <g id="Black-L" transform="matrix(1 0 0 1 2828.69 1556)">
   <path d="M28.8086 35.2539L40.0879 35.2539Q46.0938 35.2539 49.4629 31.8848Q52.832 28.5156 52.832 22.5098L52.832-75.3906Q52.832-81.3477 49.4629-84.7168Q46.0938-88.0859 40.0879-88.0859L28.8086-88.0859Q22.8027-88.0859 19.4336-84.7168Q16.0645-81.3477 16.0645-75.3906L16.0645 22.5098Q16.0645 28.5156 19.4336 31.8848Q22.8027 35.2539 28.8086 35.2539ZM73.584 35.2539L93.9453 35.2539Q99.9512 35.2539 103.32 31.8848Q106.689 28.5156 106.689 22.5098L106.689-50.4395Q106.689-56.4453 103.32-59.8145Q99.9512-63.1836 93.9453-63.1836L73.584-63.1836Q67.5781-63.1836 64.209-59.8145Q60.8398-56.4453 60.8398-50.4395L60.8398 22.5098Q60.8398 28.5156 64.209 31.8848Q67.5781 35.2539 73.584 35.2539ZM78.125-35.9375Q75.8301-35.9375 74.2432-37.5Q72.6562-39.0625 72.6562-41.3086Q72.6562-43.6035 74.2188-45.166Q75.7812-46.7285 78.125-46.7285L89.7461-46.7285Q92.4316-46.7285 93.7744-45.166Q95.1172-43.6035 95.1172-41.3086Q95.1172-39.0625 93.5791-37.5Q92.041-35.9375 89.7461-35.9375ZM78.125 18.7988Q75.7812 18.7988 74.2188 17.2363Q72.6562 15.6738 72.6562 13.4277Q72.6562 11.1328 74.2432 9.57031Q75.8301 8.00781 78.125 8.00781L89.7461 8.00781Q92.041 8.00781 93.5791 9.57031Q95.1172 11.1328 95.1172 13.4277Q95.1172 15.6738 93.5791 17.2363Q92.041 18.7988 89.7461 18.7988ZM127.441 35.2539L139.258 35.2539Q145.215 35.2539 148.584 31.8848Q151.953 28.5156 151.953 22.5098L151.953-94.4336Q151.953-100.439 148.584-103.809Q145.215-107.178 139.258-107.178L127.441-107.178Q121.436-107.178 118.066-103.809Q114.697-100.439 114.697-94.4336L114.697 22.5098Q114.697 28.5156 118.066 31.8848Q121.436 35.2539 127.441 35.2539ZM174.365 35.6445L181.982 34.7656Q187.939 34.1797 190.869 30.4443Q193.799 26.709 193.262 20.752L183.447-76.5625Q182.861-82.5195 179.126-85.4736Q175.391-88.4277 169.434-87.8418L161.768-86.9629Q155.859-86.377 152.905-82.6416Q149.951-78.9062 150.537-72.9492L160.352 24.3652Q160.889 30.3223 164.648 33.2764Q168.408 36.2305 174.365 35.6445Z"/>
  </g>
  <g id="Heavy-L" transform="matrix(1 0 0 1 2535.61 1556)">
   <path d="M27.6367 34.5215L38.916 34.5215Q44.4336 34.5215 47.4854 31.4453Q50.5371 28.3691 50.5371 22.9004L50.5371-76.8066Q50.5371-82.2266 47.4854-85.3027Q44.4336-88.3789 38.916-88.3789L27.6367-88.3789Q22.168-88.3789 19.1162-85.3027Q16.0645-82.2266 16.0645-76.8066L16.0645 22.9004Q16.0645 28.3691 19.1162 31.4453Q22.168 34.5215 27.6367 34.5215ZM69.8242 34.5215L91.2109 34.5215Q96.7285 34.5215 99.7559 31.4453Q102.783 28.3691 102.783 22.9004L102.783-52.6855Q102.783-58.1543 99.7559-61.2305Q96.7285-64.3066 91.2109-64.3066L69.8242-64.3066Q64.3066-64.3066 61.2793-61.2305Q58.252-58.1543 58.252-52.6855L58.252 22.9004Q58.252 28.3691 61.2793 31.4453Q64.3066 34.5215 69.8242 34.5215ZM74.5117-38.4766Q72.4121-38.4766 70.9717-39.917Q69.5312-41.3574 69.5312-43.4082Q69.5312-45.459 70.9717-46.8994Q72.4121-48.3398 74.5117-48.3398L86.7676-48.3398Q89.1602-48.3398 90.4297-46.8994Q91.6992-45.459 91.6992-43.4082Q91.6992-41.3574 90.2832-39.917Q88.8672-38.4766 86.7676-38.4766ZM74.5117 18.5547Q72.4121 18.5547 70.9717 17.1143Q69.5312 15.6738 69.5312 13.623Q69.5312 11.5723 70.9717 10.1318Q72.4121 8.69141 74.5117 8.69141L86.7676 8.69141Q88.8672 8.69141 90.2832 10.1318Q91.6992 11.5723 91.6992 13.623Q91.6992 15.6738 90.2832 17.1143Q88.8672 18.5547 86.7676 18.5547ZM122.119 34.5215L134.619 34.5215Q140.039 34.5215 143.091 31.4453Q146.143 28.3691 146.143 22.9004L146.143-95.2637Q146.143-100.781 143.091-103.833Q140.039-106.885 134.619-106.885L122.119-106.885Q116.602-106.885 113.574-103.833Q110.547-100.781 110.547-95.2637L110.547 22.9004Q110.547 28.3691 113.574 31.4453Q116.602 34.5215 122.119 34.5215ZM167.725 34.8633L175.732 33.9355Q181.201 33.3496 183.838 29.9805Q186.475 26.6113 185.986 21.1426L175.83-77.3926Q175.293-82.8613 171.924-85.5469Q168.555-88.2324 163.086-87.6953L155.029-86.7188Q149.609-86.1816 146.948-82.7881Q144.287-79.3945 144.824-73.9746L154.98 24.6094Q155.469 30.0293 158.862 32.7148Q162.256 35.4004 167.725 34.8633Z"/>
  </g>
  <g id="Bold-L" transform="matrix(1 0 0 1 2242.98 1556)">
   <path d="M26.3672 33.6914L37.6465 33.6914Q42.5781 33.6914 45.2637 30.9814Q47.9492 28.2715 47.9492 23.3887L47.9492-78.418Q47.9492-83.252 45.2637-85.9619Q42.5781-88.6719 37.6465-88.6719L26.3672-88.6719Q21.4355-88.6719 18.75-85.9619Q16.0645-83.252 16.0645-78.418L16.0645 23.3887Q16.0645 28.2715 18.75 30.9814Q21.4355 33.6914 26.3672 33.6914ZM65.625 33.6914L88.1836 33.6914Q93.1152 33.6914 95.8008 30.9814Q98.4863 28.2715 98.4863 23.3887L98.4863-55.2246Q98.4863-60.1074 95.8008-62.8174Q93.1152-65.5273 88.1836-65.5273L65.625-65.5273Q60.6934-65.5273 58.0078-62.8174Q55.3223-60.1074 55.3223-55.2246L55.3223 23.3887Q55.3223 28.2715 58.0078 30.9814Q60.6934 33.6914 65.625 33.6914ZM70.5078-41.3574Q68.6523-41.3574 67.3584-42.627Q66.0645-43.8965 66.0645-45.752Q66.0645-47.6074 67.334-48.877Q68.6035-50.1465 70.5078-50.1465L83.4961-50.1465Q85.5469-50.1465 86.7188-48.877Q87.8906-47.6074 87.8906-45.752Q87.8906-43.8965 86.6211-42.627Q85.3516-41.3574 83.4961-41.3574ZM70.5078 18.3105Q68.6035 18.3105 67.334 17.0166Q66.0645 15.7227 66.0645 13.916Q66.0645 12.0605 67.3584 10.791Q68.6523 9.52148 70.5078 9.52148L83.4961 9.52148Q85.3516 9.52148 86.6211 10.791Q87.8906 12.0605 87.8906 13.916Q87.8906 15.7227 86.6211 17.0166Q85.3516 18.3105 83.4961 18.3105ZM116.162 33.6914L129.395 33.6914Q134.326 33.6914 137.012 30.9814Q139.697 28.2715 139.697 23.3887L139.697-96.2402Q139.697-101.123 137.012-103.833Q134.326-106.543 129.395-106.543L116.162-106.543Q111.23-106.543 108.545-103.833Q105.859-101.123 105.859-96.2402L105.859 23.3887Q105.859 28.2715 108.545 30.9814Q111.23 33.6914 116.162 33.6914ZM160.303 34.0332L168.75 32.959Q173.682 32.4707 176.001 29.4678Q178.32 26.4648 177.881 21.6309L167.334-78.3691Q166.846-83.252 163.892-85.6445Q160.938-88.0371 156.006-87.5L147.51-86.4258Q142.627-85.9375 140.283-82.959Q137.939-79.9805 138.428-75.0977L148.975 24.9023Q149.463 29.7363 152.417 32.1289Q155.371 34.5215 160.303 34.0332Z"/>
  </g>
  <g id="Semibold-L" transform="matrix(1 0 0 1 1949.08 1556)">
   <path d="M25.4883 33.1055L36.7188 33.1055Q41.2598 33.1055 43.7012 30.6152Q46.1426 28.125 46.1426 23.6816L46.1426-79.4922Q46.1426-83.9355 43.7012-86.4014Q41.2598-88.8672 36.7188-88.8672L25.4883-88.8672Q20.8984-88.8672 18.4814-86.4014Q16.0645-83.9355 16.0645-79.4922L16.0645 23.6816Q16.0645 28.125 18.4814 30.6152Q20.8984 33.1055 25.4883 33.1055ZM62.7441 33.1055L86.0352 33.1055Q90.625 33.1055 93.042 30.6152Q95.459 28.125 95.459 23.6816L95.459-56.9824Q95.459-61.4258 93.042-63.8916Q90.625-66.3574 86.0352-66.3574L62.7441-66.3574Q58.1543-66.3574 55.7373-63.8916Q53.3203-61.4258 53.3203-56.9824L53.3203 23.6816Q53.3203 28.125 55.7373 30.6152Q58.1543 33.1055 62.7441 33.1055ZM67.7246-43.3105Q66.0156-43.3105 64.8193-44.4824Q63.623-45.6543 63.623-47.3633Q63.623-49.0234 64.7949-50.1953Q65.9668-51.3672 67.7246-51.3672L81.2012-51.3672Q83.0566-51.3672 84.1309-50.1953Q85.2051-49.0234 85.2051-47.3633Q85.2051-45.6543 84.0576-44.4824Q82.9102-43.3105 81.2012-43.3105ZM67.7246 18.1152Q65.9668 18.1152 64.7949 16.9189Q63.623 15.7227 63.623 14.0625Q63.623 12.3535 64.8193 11.2061Q66.0156 10.0586 67.7246 10.0586L81.2012 10.0586Q82.9102 10.0586 84.0576 11.2061Q85.2051 12.3535 85.2051 14.0625Q85.2051 15.7227 84.0576 16.9189Q82.9102 18.1152 81.2012 18.1152ZM112.061 33.1055L125.781 33.1055Q130.322 33.1055 132.764 30.6152Q135.205 28.125 135.205 23.6816L135.205-96.875Q135.205-101.367 132.764-103.833Q130.322-106.299 125.781-106.299L112.061-106.299Q107.471-106.299 105.054-103.833Q102.637-101.367 102.637-96.875L102.637 23.6816Q102.637 28.125 105.054 30.6152Q107.471 33.1055 112.061 33.1055ZM155.127 33.3984L163.916 32.3242Q168.457 31.8359 170.581 29.1016Q172.705 26.3672 172.266 21.9238L161.426-79.0039Q160.986-83.4961 158.325-85.6934Q155.664-87.8906 151.074-87.3535L142.334-86.2305Q137.793-85.7422 135.669-83.0322Q133.545-80.3223 134.033-75.8789L144.824 25.0977Q145.264 29.541 147.925 31.7139Q150.586 33.8867 155.127 33.3984Z"/>
  </g>
  <g id="Medium-L" transform="matrix(1 0 0 1 1654.49 1556)">
   <path d="M24.8047 32.666L36.0352 32.666Q40.2832 32.666 42.5293 30.3711Q44.7754 28.0762 44.7754 23.9258L44.7754-80.3223Q44.7754-84.4727 42.5293-86.7676Q40.2832-89.0625 36.0352-89.0625L24.8047-89.0625Q20.5078-89.0625 18.2861-86.7676Q16.0645-84.4727 16.0645-80.3223L16.0645 23.9258Q16.0645 28.0762 18.2861 30.3711Q20.5078 32.666 24.8047 32.666ZM60.5469 32.666L84.4727 32.666Q88.7207 32.666 90.9668 30.3711Q93.2129 28.0762 93.2129 23.9258L93.2129-58.3008Q93.2129-62.4512 90.9668-64.7461Q88.7207-67.041 84.4727-67.041L60.5469-67.041Q56.25-67.041 54.0283-64.7461Q51.8066-62.4512 51.8066-58.3008L51.8066 23.9258Q51.8066 28.0762 54.0283 30.3711Q56.25 32.666 60.5469 32.666ZM65.625-44.7754Q64.0137-44.7754 62.915-45.874Q61.8164-46.9727 61.8164-48.584Q61.8164-50.1465 62.915-51.2207Q64.0137-52.2949 65.625-52.2949L79.4434-52.2949Q81.1523-52.2949 82.1777-51.2207Q83.2031-50.1465 83.2031-48.584Q83.2031-46.9727 82.1289-45.874Q81.0547-44.7754 79.4434-44.7754ZM65.625 17.9688Q64.0137 17.9688 62.915 16.8701Q61.8164 15.7715 61.8164 14.209Q61.8164 12.5977 62.915 11.5234Q64.0137 10.4492 65.625 10.4492L79.4434 10.4492Q81.0547 10.4492 82.1289 11.5234Q83.2031 12.5977 83.2031 14.209Q83.2031 15.7715 82.1289 16.8701Q81.0547 17.9688 79.4434 17.9688ZM108.936 32.666L123.096 32.666Q127.295 32.666 129.565 30.3711Q131.836 28.0762 131.836 23.9258L131.836-97.4121Q131.836-101.562 129.565-103.857Q127.295-106.152 123.096-106.152L108.936-106.152Q104.639-106.152 102.417-103.857Q100.195-101.562 100.195-97.4121L100.195 23.9258Q100.195 28.0762 102.417 30.3711Q104.639 32.666 108.936 32.666ZM151.27 32.959L160.303 31.7871Q164.502 31.3477 166.455 28.833Q168.408 26.3184 168.018 22.168L156.982-79.541Q156.543-83.6914 154.102-85.7422Q151.66-87.793 147.363-87.3047L138.379-86.084Q134.18-85.5957 132.202-83.1055Q130.225-80.6152 130.664-76.4648L141.699 25.2441Q142.09 29.3457 144.531 31.3965Q146.973 33.4473 151.27 32.959Z"/>
  </g>
  <g id="Regular-L" transform="matrix(1 0 0 1 1360.56 1556)">
   <path d="M23.9258 32.0801L35.1562 32.0801Q39.0137 32.0801 41.0156 30.0293Q43.0176 27.9785 43.0176 24.2188L43.0176-81.3965Q43.0176-85.1562 41.0156-87.207Q39.0137-89.2578 35.1562-89.2578L23.9258-89.2578Q20.0195-89.2578 18.042-87.207Q16.0645-85.1562 16.0645-81.3965L16.0645 24.2188Q16.0645 27.9785 18.042 30.0293Q20.0195 32.0801 23.9258 32.0801ZM57.666 32.0801L82.373 32.0801Q86.2793 32.0801 88.2568 30.0293Q90.2344 27.9785 90.2344 24.2188L90.2344-60.0098Q90.2344-63.7695 88.2568-65.8203Q86.2793-67.8711 82.373-67.8711L57.666-67.8711Q53.7598-67.8711 51.7822-65.8203Q49.8047-63.7695 49.8047-60.0098L49.8047 24.2188Q49.8047 27.9785 51.7822 30.0293Q53.7598 32.0801 57.666 32.0801ZM62.8906-46.7285Q61.4258-46.7285 60.4248-47.7295Q59.4238-48.7305 59.4238-50.1953Q59.4238-51.5625 60.4248-52.5391Q61.4258-53.5156 62.8906-53.5156L77.1973-53.5156Q78.6621-53.5156 79.6387-52.5391Q80.6152-51.5625 80.6152-50.1953Q80.6152-48.7305 79.6387-47.7295Q78.6621-46.7285 77.1973-46.7285ZM62.8906 17.7734Q61.4258 17.7734 60.4248 16.7725Q59.4238 15.7715 59.4238 14.3555Q59.4238 12.9395 60.4248 11.9629Q61.4258 10.9863 62.8906 10.9863L77.1973 10.9863Q78.6621 10.9863 79.6387 11.9629Q80.6152 12.9395 80.6152 14.3555Q80.6152 15.7715 79.6387 16.7725Q78.6621 17.7734 77.1973 17.7734ZM104.883 32.0801L119.531 32.0801Q123.389 32.0801 125.391 30.0293Q127.393 27.9785 127.393 24.2188L127.393-98.0469Q127.393-101.807 125.391-103.857Q123.389-105.908 119.531-105.908L104.883-105.908Q100.977-105.908 98.999-103.857Q97.0215-101.807 97.0215-98.0469L97.0215 24.2188Q97.0215 27.9785 98.999 30.0293Q100.977 32.0801 104.883 32.0801ZM146.191 32.373L155.518 31.1523Q159.375 30.7129 161.108 28.4668Q162.842 26.2207 162.451 22.4609L151.172-80.1758Q150.781-83.9355 148.608-85.791Q146.436-87.6465 142.529-87.1582L133.252-85.8887Q129.395-85.4492 127.637-83.2275Q125.879-81.0059 126.318-77.2461L137.598 25.4395Q137.988 29.1504 140.137 30.9814Q142.285 32.8125 146.191 32.373Z"/>
  </g>
  <g id="Light-L" transform="matrix(1 0 0 1 1066.76 1556)">
   <path d="M24.0723 31.7383L34.4238 31.7383Q38.4277 31.7383 40.4053 29.6875Q42.3828 27.6367 42.3828 23.7793L42.3828-80.7129Q42.3828-84.5703 40.4053-86.6455Q38.4277-88.7207 34.4238-88.7207L24.0723-88.7207Q20.0195-88.7207 18.042-86.6455Q16.0645-84.5703 16.0645-80.7129L16.0645 23.7793Q16.0645 27.6367 18.042 29.6875Q20.0195 31.7383 24.0723 31.7383ZM56.4453 31.7383L80.0293 31.7383Q84.082 31.7383 86.0352 29.6875Q87.9883 27.6367 87.9883 23.7793L87.9883-59.5215Q87.9883-63.3301 86.0352-65.4053Q84.082-67.4805 80.0293-67.4805L56.4453-67.4805Q52.3438-67.4805 50.3906-65.4053Q48.4375-63.3301 48.4375-59.5215L48.4375 23.7793Q48.4375 27.6367 50.3906 29.6875Q52.3438 31.7383 56.4453 31.7383ZM60.6445-48.2422Q59.4727-48.2422 58.6426-49.0479Q57.8125-49.8535 57.8125-51.0254Q57.8125-52.0996 58.6426-52.9053Q59.4727-53.7109 60.6445-53.7109L75.8301-53.7109Q77.0508-53.7109 77.832-52.9053Q78.6133-52.0996 78.6133-51.0254Q78.6133-49.8535 77.832-49.0479Q77.0508-48.2422 75.8301-48.2422ZM60.6445 18.0176Q59.4727 18.0176 58.6426 17.2119Q57.8125 16.4062 57.8125 15.2832Q57.8125 14.1113 58.6426 13.3301Q59.4727 12.5488 60.6445 12.5488L75.8301 12.5488Q77.0508 12.5488 77.832 13.3301Q78.6133 14.1113 78.6133 15.2832Q78.6133 16.4062 77.832 17.2119Q77.0508 18.0176 75.8301 18.0176ZM102.051 31.7383L115.43 31.7383Q119.482 31.7383 121.46 29.6875Q123.438 27.6367 123.438 23.7793L123.438-96.2402Q123.438-100.098 121.46-102.173Q119.482-104.248 115.43-104.248L102.051-104.248Q97.998-104.248 96.0449-102.173Q94.0918-100.098 94.0918-96.2402L94.0918 23.7793Q94.0918 27.6367 96.0449 29.6875Q97.998 31.7383 102.051 31.7383ZM141.26 32.0801L149.463 31.1523Q153.516 30.7617 155.249 28.4912Q156.982 26.2207 156.641 22.3633L146.436-77.6855Q146.045-81.543 143.896-83.4229Q141.748-85.3027 137.695-84.8633L129.492-83.8379Q125.439-83.4473 123.682-81.2012Q121.924-78.9551 122.314-75.1465L132.568 25Q132.91 28.8086 135.034 30.6396Q137.158 32.4707 141.26 32.0801Z"/>
  </g>
  <g id="Thin-L" transform="matrix(1 0 0 1 773.878 1556)">
   <path d="M24.2188 31.3477L33.4473 31.3477Q37.6953 31.3477 39.624 29.248Q41.5527 27.1484 41.5527 23.1934L41.5527-79.834Q41.5527-83.7891 39.624-85.8887Q37.6953-87.9883 33.4473-87.9883L24.2188-87.9883Q19.9707-87.9883 18.042-85.8887Q16.1133-83.7891 16.1133-79.834L16.1133 23.1934Q16.1133 27.1484 18.042 29.248Q19.9707 31.3477 24.2188 31.3477ZM54.834 31.3477L76.9043 31.3477Q81.2012 31.3477 83.1299 29.248Q85.0586 27.1484 85.0586 23.1934L85.0586-58.8379Q85.0586-62.793 83.1299-64.8926Q81.2012-66.9922 76.9043-66.9922L54.834-66.9922Q50.5371-66.9922 48.584-64.8926Q46.6309-62.793 46.6309-58.8379L46.6309 23.1934Q46.6309 27.1484 48.584 29.248Q50.5371 31.3477 54.834 31.3477ZM57.666-50.2441Q56.8359-50.2441 56.2744-50.7812Q55.7129-51.3184 55.7129-52.1484Q55.7129-52.8809 56.2744-53.418Q56.8359-53.9551 57.666-53.9551L74.0723-53.9551Q74.9023-53.9551 75.4395-53.418Q75.9766-52.8809 75.9766-52.1484Q75.9766-51.3184 75.4395-50.7812Q74.9023-50.2441 74.0723-50.2441ZM57.666 18.3105Q56.8359 18.3105 56.2744 17.7734Q55.7129 17.2363 55.7129 16.4551Q55.7129 15.6738 56.2744 15.1367Q56.8359 14.5996 57.666 14.5996L74.0723 14.5996Q74.9023 14.5996 75.4395 15.1367Q75.9766 15.6738 75.9766 16.4551Q75.9766 17.2363 75.4395 17.7734Q74.9023 18.3105 74.0723 18.3105ZM98.291 31.3477L110.059 31.3477Q114.307 31.3477 116.235 29.248Q118.164 27.1484 118.164 23.1934L118.164-93.8965Q118.164-97.8516 116.235-99.9512Q114.307-102.051 110.059-102.051L98.291-102.051Q93.9941-102.051 92.0898-99.9512Q90.1855-97.8516 90.1855-93.8965L90.1855 23.1934Q90.1855 27.1484 92.0898 29.248Q93.9941 31.3477 98.291 31.3477ZM134.717 31.7383L141.504 31.1523Q145.752 30.8594 147.51 28.54Q149.268 26.2207 148.926 22.2656L140.186-74.4141Q139.795-78.3691 137.695-80.2734Q135.596-82.1777 131.299-81.8359L124.463-81.2012Q120.166-80.8105 118.433-78.54Q116.699-76.2695 117.09-72.3633L125.879 24.3652Q126.27 28.3203 128.345 30.1758Q130.42 32.0312 134.717 31.7383Z"/>
  </g>
  <g id="Ultralight-L" transform="matrix(1 0 0 1 479.145 1556)">
   <path d="M24.3164 31.1035L32.9102 31.1035Q37.3047 31.1035 39.2334 29.0039Q41.1621 26.9043 41.1621 22.9004L41.1621-79.3457Q41.1621-83.3984 39.2334-85.5225Q37.3047-87.6465 32.9102-87.6465L24.3164-87.6465Q19.9707-87.6465 18.042-85.5225Q16.1133-83.3984 16.1133-79.3457L16.1133 22.9004Q16.1133 26.9043 18.042 29.0039Q19.9707 31.1035 24.3164 31.1035ZM54.0039 31.1035L75.3418 31.1035Q79.7363 31.1035 81.6406 29.0039Q83.5449 26.9043 83.5449 22.9004L83.5449-58.4961Q83.5449-62.5 81.6406-64.624Q79.7363-66.748 75.3418-66.748L54.0039-66.748Q49.5605-66.748 47.6318-64.624Q45.7031-62.5 45.7031-58.4961L45.7031 22.9004Q45.7031 26.9043 47.6318 29.0039Q49.5605 31.1035 54.0039 31.1035ZM56.1035-51.2695Q55.5176-51.2695 55.0781-51.6846Q54.6387-52.0996 54.6387-52.6855Q54.6387-53.2227 55.0781-53.6377Q55.5176-54.0527 56.1035-54.0527L73.1445-54.0527Q73.7793-54.0527 74.1943-53.6377Q74.6094-53.2227 74.6094-52.6855Q74.6094-52.0996 74.1943-51.6846Q73.7793-51.2695 73.1445-51.2695ZM56.1035 18.457Q55.5176 18.457 55.0781 18.042Q54.6387 17.627 54.6387 17.0898Q54.6387 16.5039 55.0781 16.0889Q55.5176 15.6738 56.1035 15.6738L73.1445 15.6738Q73.7793 15.6738 74.1943 16.0889Q74.6094 16.5039 74.6094 17.0898Q74.6094 17.627 74.1943 18.042Q73.7793 18.457 73.1445 18.457ZM96.3867 31.1035L107.275 31.1035Q111.621 31.1035 113.55 29.0039Q115.479 26.9043 115.479 22.9004L115.479-92.6758Q115.479-96.6797 113.55-98.8037Q111.621-100.928 107.275-100.928L96.3867-100.928Q91.9922-100.928 90.0879-98.8037Q88.1836-96.6797 88.1836-92.6758L88.1836 22.9004Q88.1836 26.9043 90.0879 29.0039Q91.9922 31.1035 96.3867 31.1035ZM131.348 31.543L137.402 31.1523Q141.797 30.9082 143.555 28.5645Q145.312 26.2207 144.971 22.168L136.963-72.7051Q136.621-76.7578 134.521-78.6865Q132.422-80.6152 127.979-80.3223L121.924-79.7852Q117.48-79.4434 115.747-77.1484Q114.014-74.8535 114.355-70.9473L122.461 24.0723Q122.803 28.0762 124.878 29.9561Q126.953 31.8359 131.348 31.543Z"/>
  </g>
  <g id="Black-M" transform="matrix(1 0 0 1 2850.12 1126)">
   <path d="M23.3398 19.9219L31.8359 19.9219Q36.9141 19.9219 39.7949 17.041Q42.6758 14.1602 42.6758 9.0332L42.6758-64.8926Q42.6758-70.0195 39.7949-72.9004Q36.9141-75.7812 31.8359-75.7812L23.3398-75.7812Q18.2129-75.7812 15.332-72.9004Q12.4512-70.0195 12.4512-64.8926L12.4512 9.0332Q12.4512 14.1602 15.332 17.041Q18.2129 19.9219 23.3398 19.9219ZM59.8145 19.9219L74.3652 19.9219Q79.4434 19.9219 82.3242 17.041Q85.2051 14.1602 85.2051 9.0332L85.2051-44.9219Q85.2051-50.0488 82.3242-52.9297Q79.4434-55.8105 74.3652-55.8105L59.8145-55.8105Q54.6875-55.8105 51.8066-52.9297Q48.9258-50.0488 48.9258-44.9219L48.9258 9.0332Q48.9258 14.1602 51.8066 17.041Q54.6875 19.9219 59.8145 19.9219ZM62.8418-34.1309Q60.9863-34.1309 59.7168-35.376Q58.4473-36.6211 58.4473-38.4277Q58.4473-40.2832 59.6924-41.5527Q60.9375-42.8223 62.8418-42.8223L71.6309-42.8223Q73.877-42.8223 74.9268-41.5527Q75.9766-40.2832 75.9766-38.4277Q75.9766-36.6211 74.707-35.376Q73.4375-34.1309 71.6309-34.1309ZM62.8418 6.93359Q60.9375 6.93359 59.6924 5.66406Q58.4473 4.39453 58.4473 2.58789Q58.4473 0.732422 59.7168-0.537109Q60.9863-1.80664 62.8418-1.80664L71.6309-1.80664Q73.4375-1.80664 74.707-0.537109Q75.9766 0.732422 75.9766 2.58789Q75.9766 4.39453 74.707 5.66406Q73.4375 6.93359 71.6309 6.93359ZM102.344 19.9219L110.498 19.9219Q115.625 19.9219 118.506 17.041Q121.387 14.1602 121.387 9.0332L121.387-79.7852Q121.387-84.9121 118.506-87.793Q115.625-90.6738 110.498-90.6738L102.344-90.6738Q97.2168-90.6738 94.3359-87.793Q91.4551-84.9121 91.4551-79.7852L91.4551 9.0332Q91.4551 14.1602 94.3359 17.041Q97.2168 19.9219 102.344 19.9219ZM139.111 20.2637L144.336 19.7754Q149.414 19.2871 151.953 16.0645Q154.492 12.8418 154.053 7.76367L147.07-65.6738Q146.631-70.8008 143.408-73.3154Q140.186-75.8301 135.107-75.3906L129.883-74.8535Q124.805-74.4141 122.266-71.1914Q119.727-67.9688 120.215-62.8906L127.148 10.5957Q127.588 15.7227 130.811 18.2373Q134.033 20.752 139.111 20.2637Z"/>
  </g>
  <g id="Heavy-M" transform="matrix(1 0 0 1 2556.34 1126)">
   <path d="M22.168 19.2383L30.8594 19.2383Q35.4492 19.2383 38.0127 16.6748Q40.5762 14.1113 40.5762 9.52148L40.5762-66.4062Q40.5762-71.0449 38.0127-73.6084Q35.4492-76.1719 30.8594-76.1719L22.168-76.1719Q17.5781-76.1719 15.0146-73.6084Q12.4512-71.0449 12.4512-66.4062L12.4512 9.52148Q12.4512 14.1113 15.0146 16.6748Q17.5781 19.2383 22.168 19.2383ZM56.3965 19.2383L72.2168 19.2383Q76.7578 19.2383 79.3213 16.6748Q81.8848 14.1113 81.8848 9.52148L81.8848-47.2168Q81.8848-51.8066 79.3213-54.3945Q76.7578-56.9824 72.2168-56.9824L56.3965-56.9824Q51.8066-56.9824 49.2432-54.3945Q46.6797-51.8066 46.6797-47.2168L46.6797 9.52148Q46.6797 14.1113 49.2432 16.6748Q51.8066 19.2383 56.3965 19.2383ZM59.8145-36.2793Q58.1055-36.2793 56.9336-37.4512Q55.7617-38.623 55.7617-40.2832Q55.7617-41.9922 56.9092-43.1641Q58.0566-44.3359 59.8145-44.3359L69.043-44.3359Q71.0449-44.3359 72.0459-43.1641Q73.0469-41.9922 73.0469-40.2832Q73.0469-38.623 71.875-37.4512Q70.7031-36.2793 69.043-36.2793ZM59.8145 6.64062Q58.0566 6.64062 56.9092 5.46875Q55.7617 4.29688 55.7617 2.58789Q55.7617 0.878906 56.9336-0.292969Q58.1055-1.46484 59.8145-1.46484L69.043-1.46484Q70.7031-1.46484 71.875-0.292969Q73.0469 0.878906 73.0469 2.58789Q73.0469 4.29688 71.875 5.46875Q70.7031 6.64062 69.043 6.64062ZM97.7539 19.2383L106.836 19.2383Q111.426 19.2383 113.989 16.6748Q116.553 14.1113 116.553 9.52148L116.553-81.0059Q116.553-85.5957 113.989-88.1592Q111.426-90.7227 106.836-90.7227L97.7539-90.7227Q93.1641-90.7227 90.6006-88.1592Q88.0371-85.5957 88.0371-81.0059L88.0371 9.52148Q88.0371 14.1113 90.6006 16.6748Q93.1641 19.2383 97.7539 19.2383ZM133.691 19.5801L139.551 18.9453Q144.092 18.457 146.338 15.6006Q148.584 12.7441 148.193 8.1543L140.674-67.041Q140.234-71.6309 137.378-73.877Q134.521-76.123 129.932-75.7324L124.121-75.0488Q119.531-74.6094 117.285-71.7529Q115.039-68.8965 115.479-64.3555L122.998 10.9375Q123.389 15.5273 126.245 17.7734Q129.102 20.0195 133.691 19.5801Z"/>
  </g>
  <g id="Bold-M" transform="matrix(1 0 0 1 2262.9 1126)">
   <path d="M20.8984 18.5059L29.7852 18.5059Q33.7891 18.5059 35.9863 16.2842Q38.1836 14.0625 38.1836 10.0586L38.1836-68.1641Q38.1836-72.168 35.9863-74.3896Q33.7891-76.6113 29.7852-76.6113L20.8984-76.6113Q16.8945-76.6113 14.6729-74.3896Q12.4512-72.168 12.4512-68.1641L12.4512 10.0586Q12.4512 14.0625 14.6729 16.2842Q16.8945 18.5059 20.8984 18.5059ZM52.6367 18.5059L69.7754 18.5059Q73.7793 18.5059 76.001 16.2842Q78.2227 14.0625 78.2227 10.0586L78.2227-49.8535Q78.2227-53.8086 76.001-56.0547Q73.7793-58.3008 69.7754-58.3008L52.6367-58.3008Q48.584-58.3008 46.3623-56.0547Q44.1406-53.8086 44.1406-49.8535L44.1406 10.0586Q44.1406 14.0625 46.3623 16.2842Q48.584 18.5059 52.6367 18.5059ZM56.4453-38.7207Q54.8828-38.7207 53.8086-39.7949Q52.7344-40.8691 52.7344-42.3828Q52.7344-43.9453 53.7842-45.0195Q54.834-46.0938 56.4453-46.0938L66.1621-46.0938Q67.9199-46.0938 68.8721-45.0195Q69.8242-43.9453 69.8242-42.3828Q69.8242-40.8691 68.75-39.7949Q67.6758-38.7207 66.1621-38.7207ZM56.4453 6.34766Q54.834 6.34766 53.7842 5.27344Q52.7344 4.19922 52.7344 2.63672Q52.7344 1.07422 53.8086 0Q54.8828-1.07422 56.4453-1.07422L66.1621-1.07422Q67.6758-1.07422 68.75 0Q69.8242 1.07422 69.8242 2.63672Q69.8242 4.19922 68.75 5.27344Q67.6758 6.34766 66.1621 6.34766ZM92.627 18.5059L102.734 18.5059Q106.787 18.5059 108.984 16.2842Q111.182 14.0625 111.182 10.0586L111.182-82.373Q111.182-86.377 108.984-88.5986Q106.787-90.8203 102.734-90.8203L92.627-90.8203Q88.623-90.8203 86.4014-88.5986Q84.1797-86.377 84.1797-82.373L84.1797 10.0586Q84.1797 14.0625 86.4014 16.2842Q88.623 18.5059 92.627 18.5059ZM127.637 18.7988L134.18 18.0176Q138.135 17.5781 140.088 15.1123Q142.041 12.6465 141.65 8.64258L133.496-68.6035Q133.105-72.5586 130.64-74.5361Q128.174-76.5137 124.17-76.0742L117.676-75.2441Q113.672-74.8535 111.743-72.3877Q109.814-69.9219 110.205-65.9668L118.359 11.3281Q118.75 15.332 121.191 17.2852Q123.633 19.2383 127.637 18.7988Z"/>
  </g>
  <g id="Semibold-M" transform="matrix(1 0 0 1 1968.46 1126)">
   <path d="M20.0195 17.9688L29.0039 17.9688Q32.6172 17.9688 34.5947 15.9912Q36.5723 14.0137 36.5723 10.4492L36.5723-69.3359Q36.5723-72.9004 34.5947-74.9023Q32.6172-76.9043 29.0039-76.9043L20.0195-76.9043Q16.3574-76.9043 14.4043-74.9023Q12.4512-72.9004 12.4512-69.3359L12.4512 10.4492Q12.4512 14.0137 14.4043 15.9912Q16.3574 17.9688 20.0195 17.9688ZM50 17.9688L68.1152 17.9688Q71.7285 17.9688 73.6816 15.9912Q75.6348 14.0137 75.6348 10.4492L75.6348-51.6113Q75.6348-55.1758 73.6816-57.1777Q71.7285-59.1797 68.1152-59.1797L50-59.1797Q46.3379-59.1797 44.3604-57.1777Q42.3828-55.1758 42.3828-51.6113L42.3828 10.4492Q42.3828 14.0137 44.3604 15.9912Q46.3379 17.9688 50 17.9688ZM54.1016-40.3809Q52.6367-40.3809 51.6357-41.3818Q50.6348-42.3828 50.6348-43.7988Q50.6348-45.2637 51.6113-46.2646Q52.5879-47.2656 54.1016-47.2656L64.1602-47.2656Q65.7227-47.2656 66.626-46.2646Q67.5293-45.2637 67.5293-43.7988Q67.5293-42.3828 66.5527-41.3818Q65.5762-40.3809 64.1602-40.3809ZM54.1016 6.10352Q52.5879 6.10352 51.6113 5.10254Q50.6348 4.10156 50.6348 2.63672Q50.6348 1.2207 51.6357 0.219727Q52.6367-0.78125 54.1016-0.78125L64.1602-0.78125Q65.5762-0.78125 66.5527 0.219727Q67.5293 1.2207 67.5293 2.63672Q67.5293 4.10156 66.5527 5.10254Q65.5762 6.10352 64.1602 6.10352ZM89.1113 17.9688L99.9023 17.9688Q103.516 17.9688 105.493 15.9912Q107.471 14.0137 107.471 10.4492L107.471-83.3008Q107.471-86.8652 105.493-88.8672Q103.516-90.8691 99.9023-90.8691L89.1113-90.8691Q85.4492-90.8691 83.4961-88.8672Q81.543-86.8652 81.543-83.3008L81.543 10.4492Q81.543 14.0137 83.4961 15.9912Q85.4492 17.9688 89.1113 17.9688ZM123.438 18.2617L130.469 17.334Q134.033 16.9434 135.742 14.7461Q137.451 12.5488 137.109 8.98438L128.516-69.6289Q128.125-73.1934 125.952-74.9512Q123.779-76.709 120.166-76.3184L113.184-75.3906Q109.619-75 107.886-72.8027Q106.152-70.6055 106.543-67.041L115.137 11.5723Q115.479 15.1367 117.651 16.9189Q119.824 18.7012 123.438 18.2617Z"/>
  </g>
  <g id="Medium-M" transform="matrix(1 0 0 1 1673.46 1126)">
   <path d="M19.3359 17.5781L28.418 17.5781Q31.7383 17.5781 33.5205 15.7959Q35.3027 14.0137 35.3027 10.6934L35.3027-70.2148Q35.3027-73.4863 33.5205-75.3174Q31.7383-77.1484 28.418-77.1484L19.3359-77.1484Q16.0156-77.1484 14.2334-75.3174Q12.4512-73.4863 12.4512-70.2148L12.4512 10.6934Q12.4512 14.0137 14.2334 15.7959Q16.0156 17.5781 19.3359 17.5781ZM47.998 17.5781L66.8457 17.5781Q70.166 17.5781 71.9482 15.7959Q73.7305 14.0137 73.7305 10.6934L73.7305-52.9785Q73.7305-56.2012 71.9482-58.0322Q70.166-59.8633 66.8457-59.8633L47.998-59.8633Q44.6777-59.8633 42.8711-58.0322Q41.0645-56.2012 41.0645-52.9785L41.0645 10.6934Q41.0645 14.0137 42.8711 15.7959Q44.6777 17.5781 47.998 17.5781ZM52.3438-41.6504Q50.9277-41.6504 49.9756-42.6025Q49.0234-43.5547 49.0234-44.9219Q49.0234-46.2891 49.9756-47.2168Q50.9277-48.1445 52.3438-48.1445L62.5977-48.1445Q64.0625-48.1445 64.9658-47.2168Q65.8691-46.2891 65.8691-44.9219Q65.8691-43.5547 64.917-42.6025Q63.9648-41.6504 62.5977-41.6504ZM52.3438 5.9082Q50.9277 5.9082 49.9756 4.98047Q49.0234 4.05273 49.0234 2.68555Q49.0234 1.26953 49.9756 0.341797Q50.9277-0.585938 52.3438-0.585938L62.5977-0.585938Q63.9648-0.585938 64.917 0.341797Q65.8691 1.26953 65.8691 2.68555Q65.8691 4.05273 64.917 4.98047Q63.9648 5.9082 62.5977 5.9082ZM86.4258 17.5781L97.7539 17.5781Q101.074 17.5781 102.856 15.7959Q104.639 14.0137 104.639 10.6934L104.639-83.9844Q104.639-87.2559 102.856-89.0869Q101.074-90.918 97.7539-90.918L86.4258-90.918Q83.1055-90.918 81.3232-89.0869Q79.541-87.2559 79.541-83.9844L79.541 10.6934Q79.541 14.0137 81.3232 15.7959Q83.1055 17.5781 86.4258 17.5781ZM120.264 17.8711L127.637 16.8457Q130.908 16.4551 132.471 14.4775Q134.033 12.5 133.691 9.22852L124.756-70.459Q124.414-73.6816 122.461-75.293Q120.508-76.9043 117.188-76.5137L109.814-75.4883Q106.543-75.0977 104.98-73.1201Q103.418-71.1426 103.76-67.9199L112.695 11.7676Q113.037 15.0391 115.015 16.6504Q116.992 18.2617 120.264 17.8711Z"/>
  </g>
  <g id="Regular-M" transform="matrix(1 0 0 1 1378.99 1126)">
   <path d="M18.457 17.0898L27.6855 17.0898Q30.6152 17.0898 32.1533 15.5273Q33.6914 13.9648 33.6914 11.084L33.6914-71.3867Q33.6914-74.2676 32.1533-75.8545Q30.6152-77.4414 27.6855-77.4414L18.457-77.4414Q15.5273-77.4414 13.9893-75.8545Q12.4512-74.2676 12.4512-71.3867L12.4512 11.084Q12.4512 13.9648 13.9893 15.5273Q15.5273 17.0898 18.457 17.0898ZM45.4102 17.0898L65.1855 17.0898Q68.1152 17.0898 69.6533 15.5273Q71.1914 13.9648 71.1914 11.084L71.1914-54.7363Q71.1914-57.5684 69.6533-59.1553Q68.1152-60.7422 65.1855-60.7422L45.4102-60.7422Q42.4805-60.7422 40.918-59.1553Q39.3555-57.5684 39.3555-54.7363L39.3555 11.084Q39.3555 13.9648 40.918 15.5273Q42.4805 17.0898 45.4102 17.0898ZM50.0488-43.3105Q48.7305-43.3105 47.8516-44.1895Q46.9727-45.0684 46.9727-46.3379Q46.9727-47.6074 47.8516-48.4619Q48.7305-49.3164 50.0488-49.3164L60.6445-49.3164Q61.9141-49.3164 62.7686-48.4619Q63.623-47.6074 63.623-46.3379Q63.623-45.0684 62.7686-44.1895Q61.9141-43.3105 60.6445-43.3105ZM50.0488 5.71289Q48.7305 5.71289 47.8516 4.83398Q46.9727 3.95508 46.9727 2.68555Q46.9727 1.41602 47.8516 0.561523Q48.7305-0.292969 50.0488-0.292969L60.6445-0.292969Q61.9141-0.292969 62.7686 0.561523Q63.623 1.41602 63.623 2.68555Q63.623 3.95508 62.7686 4.83398Q61.9141 5.71289 60.6445 5.71289ZM82.9102 17.0898L94.9707 17.0898Q97.9004 17.0898 99.4385 15.5273Q100.977 13.9648 100.977 11.084L100.977-84.9121Q100.977-87.793 99.4385-89.3799Q97.9004-90.9668 94.9707-90.9668L82.9102-90.9668Q79.9805-90.9668 78.4424-89.3799Q76.9043-87.793 76.9043-84.9121L76.9043 11.084Q76.9043 13.9648 78.4424 15.5273Q79.9805 17.0898 82.9102 17.0898ZM116.113 17.334L123.975 16.2109Q126.855 15.8203 128.198 14.1113Q129.541 12.4023 129.199 9.52148L119.873-71.4844Q119.531-74.3164 117.847-75.7324Q116.162-77.1484 113.232-76.7578L105.42-75.6348Q102.539-75.2441 101.196-73.5352Q99.8535-71.8262 100.146-68.9941L109.521 12.0117Q109.863 14.8926 111.548 16.3086Q113.232 17.7246 116.113 17.334Z"/>
  </g>
  <g id="Light-M" transform="matrix(1 0 0 1 1084.9 1126)">
   <path d="M18.5547 16.7969L27.002 16.7969Q30.0781 16.7969 31.6162 15.21Q33.1543 13.623 33.1543 10.6934L33.1543-70.8008Q33.1543-73.7305 31.6162-75.3418Q30.0781-76.9531 27.002-76.9531L18.5547-76.9531Q15.4785-76.9531 13.9648-75.3418Q12.4512-73.7305 12.4512-70.8008L12.4512 10.6934Q12.4512 13.623 13.9648 15.21Q15.4785 16.7969 18.5547 16.7969ZM44.2871 16.7969L63.0859 16.7969Q66.1621 16.7969 67.6758 15.21Q69.1895 13.623 69.1895 10.6934L69.1895-54.2969Q69.1895-57.2266 67.6758-58.8135Q66.1621-60.4004 63.0859-60.4004L44.2871-60.4004Q41.2109-60.4004 39.6729-58.8135Q38.1348-57.2266 38.1348-54.2969L38.1348 10.6934Q38.1348 13.623 39.6729 15.21Q41.2109 16.7969 44.2871 16.7969ZM47.998-44.6777Q46.9238-44.6777 46.2402-45.3613Q45.5566-46.0449 45.5566-47.0703Q45.5566-48.0957 46.2402-48.7793Q46.9238-49.4629 47.998-49.4629L59.4238-49.4629Q60.4492-49.4629 61.1328-48.7793Q61.8164-48.0957 61.8164-47.0703Q61.8164-46.0449 61.1328-45.3613Q60.4492-44.6777 59.4238-44.6777ZM47.998 5.9082Q46.9238 5.9082 46.2402 5.2002Q45.5566 4.49219 45.5566 3.4668Q45.5566 2.49023 46.2402 1.80664Q46.9238 1.12305 47.998 1.12305L59.4238 1.12305Q60.4492 1.12305 61.1328 1.80664Q61.8164 2.49023 61.8164 3.4668Q61.8164 4.49219 61.1328 5.2002Q60.4492 5.9082 59.4238 5.9082ZM80.3711 16.7969L91.3086 16.7969Q94.3359 16.7969 95.874 15.21Q97.4121 13.623 97.4121 10.6934L97.4121-83.3008Q97.4121-86.2793 95.874-87.8662Q94.3359-89.4531 91.3086-89.4531L80.3711-89.4531Q77.2949-89.4531 75.7568-87.8662Q74.2188-86.2793 74.2188-83.3008L74.2188 10.6934Q74.2188 13.623 75.7568 15.21Q77.2949 16.7969 80.3711 16.7969ZM111.67 17.0898L118.555 16.2109Q121.582 15.8691 122.925 14.1357Q124.268 12.4023 123.975 9.42383L115.625-69.2383Q115.283-72.168 113.623-73.6084Q111.963-75.0488 108.887-74.707L102.002-73.8281Q98.9746-73.4375 97.6318-71.7285Q96.2891-70.0195 96.582-67.0898L104.98 11.6211Q105.322 14.5508 106.958 15.9912Q108.594 17.4316 111.67 17.0898Z"/>
  </g>
  <g id="Thin-M" transform="matrix(1 0 0 1 791.652 1126)">
   <path d="M18.75 16.4551L26.123 16.4551Q29.3457 16.4551 30.8594 14.8438Q32.373 13.2324 32.373 10.1562L32.373-69.9707Q32.373-73.0469 30.8594-74.6582Q29.3457-76.2695 26.123-76.2695L18.75-76.2695Q15.4785-76.2695 13.9648-74.6582Q12.4512-73.0469 12.4512-69.9707L12.4512 10.1562Q12.4512 13.2324 13.9648 14.8438Q15.4785 16.4551 18.75 16.4551ZM42.8223 16.4551L60.2539 16.4551Q63.5254 16.4551 65.0391 14.8438Q66.5527 13.2324 66.5527 10.1562L66.5527-53.6621Q66.5527-56.7383 65.0391-58.3496Q63.5254-59.9609 60.2539-59.9609L42.8223-59.9609Q39.5508-59.9609 38.0371-58.3496Q36.5234-56.7383 36.5234-53.6621L36.5234 10.1562Q36.5234 13.2324 38.0371 14.8438Q39.5508 16.4551 42.8223 16.4551ZM45.3125-46.4355Q44.5801-46.4355 44.1162-46.9238Q43.6523-47.4121 43.6523-48.0469Q43.6523-48.7305 44.1162-49.1943Q44.5801-49.6582 45.3125-49.6582L57.8125-49.6582Q58.4961-49.6582 58.96-49.1943Q59.4238-48.7305 59.4238-48.0469Q59.4238-47.4121 58.96-46.9238Q58.4961-46.4355 57.8125-46.4355ZM45.3125 6.15234Q44.5801 6.15234 44.1162 5.68848Q43.6523 5.22461 43.6523 4.54102Q43.6523 3.85742 44.1162 3.39355Q44.5801 2.92969 45.3125 2.92969L57.8125 2.92969Q58.4961 2.92969 58.96 3.39355Q59.4238 3.85742 59.4238 4.54102Q59.4238 5.22461 58.96 5.68848Q58.4961 6.15234 57.8125 6.15234ZM76.9531 16.4551L86.4258 16.4551Q89.6973 16.4551 91.2109 14.8438Q92.7246 13.2324 92.7246 10.1562L92.7246-81.2012Q92.7246-84.2285 91.2109-85.8643Q89.6973-87.5 86.4258-87.5L76.9531-87.5Q73.7305-87.5 72.2168-85.8643Q70.7031-84.2285 70.7031-81.2012L70.7031 10.1562Q70.7031 13.2324 72.2168 14.8438Q73.7305 16.4551 76.9531 16.4551ZM105.762 16.748L111.377 16.2109Q114.6 15.9668 115.967 14.1846Q117.334 12.4023 117.041 9.32617L109.961-66.3086Q109.668-69.3359 108.032-70.8252Q106.396-72.3145 103.125-72.0215L97.5098-71.4355Q94.2383-71.0938 92.8955-69.3604Q91.5527-67.627 91.8457-64.5996L98.9746 11.084Q99.2676 14.1113 100.879 15.5762Q102.49 17.041 105.762 16.748Z"/>
  </g>
  <g id="Ultralight-M" transform="matrix(1 0 0 1 496.723 1126)">
   <path d="M18.7988 16.2598L25.6348 16.2598Q29.0039 16.2598 30.5176 14.624Q32.0312 12.9883 32.0312 9.91211L32.0312-69.5801Q32.0312-72.6562 30.5176-74.292Q29.0039-75.9277 25.6348-75.9277L18.7988-75.9277Q15.4297-75.9277 13.9404-74.292Q12.4512-72.6562 12.4512-69.5801L12.4512 9.91211Q12.4512 12.9883 13.9404 14.624Q15.4297 16.2598 18.7988 16.2598ZM42.041 16.2598L58.8379 16.2598Q62.207 16.2598 63.6963 14.624Q65.1855 12.9883 65.1855 9.91211L65.1855-53.3691Q65.1855-56.4941 63.6963-58.1299Q62.207-59.7656 58.8379-59.7656L42.041-59.7656Q38.6719-59.7656 37.1826-58.1299Q35.6934-56.4941 35.6934-53.3691L35.6934 9.91211Q35.6934 12.9883 37.1826 14.624Q38.6719 16.2598 42.041 16.2598ZM43.8965-47.3633Q43.3594-47.3633 43.0176-47.7051Q42.6758-48.0469 42.6758-48.584Q42.6758-49.0723 43.0176-49.4141Q43.3594-49.7559 43.8965-49.7559L56.9824-49.7559Q57.5195-49.7559 57.8613-49.4141Q58.2031-49.0723 58.2031-48.584Q58.2031-48.0469 57.8613-47.7051Q57.5195-47.3633 56.9824-47.3633ZM43.8965 6.29883Q43.3594 6.29883 43.0176 5.93262Q42.6758 5.56641 42.6758 5.07812Q42.6758 4.58984 43.0176 4.24805Q43.3594 3.90625 43.8965 3.90625L56.9824 3.90625Q57.5195 3.90625 57.8613 4.24805Q58.2031 4.58984 58.2031 5.07812Q58.2031 5.56641 57.8613 5.93262Q57.5195 6.29883 56.9824 6.29883ZM75.2441 16.2598L83.9355 16.2598Q87.2559 16.2598 88.7695 14.624Q90.2832 12.9883 90.2832 9.91211L90.2832-80.0781Q90.2832-83.2031 88.7695-84.8389Q87.2559-86.4746 83.9355-86.4746L75.2441-86.4746Q71.875-86.4746 70.3857-84.8389Q68.8965-83.2031 68.8965-80.0781L68.8965 9.91211Q68.8965 12.9883 70.3857 14.624Q71.875 16.2598 75.2441 16.2598ZM102.783 16.5527L107.715 16.2109Q111.035 16.0156 112.402 14.209Q113.77 12.4023 113.477 9.27734L107.08-64.7949Q106.836-67.9199 105.176-69.4092Q103.516-70.8984 100.146-70.6055L95.2148-70.166Q91.8457-69.873 90.5029-68.1152Q89.1602-66.3574 89.4531-63.3301L95.8984 10.8398Q96.1914 13.916 97.7783 15.3564Q99.3652 16.7969 102.783 16.5527Z"/>
  </g>
  <g id="Black-S" transform="matrix(1 0 0 1 2867.41 696)">
   <path d="M18.6523 8.1543L25.1953 8.1543Q29.3945 8.1543 31.7383 5.78613Q34.082 3.41797 34.082-0.732422L34.082-57.959Q34.082-62.1582 31.7383-64.502Q29.3945-66.8457 25.1953-66.8457L18.6523-66.8457Q14.502-66.8457 12.1338-64.502Q9.76562-62.1582 9.76562-57.959L9.76562-0.732422Q9.76562 3.41797 12.1338 5.78613Q14.502 8.1543 18.6523 8.1543ZM47.8516 8.1543L58.7891 8.1543Q62.9883 8.1543 65.332 5.78613Q67.6758 3.41797 67.6758-0.732422L67.6758-42.0898Q67.6758-46.2891 65.332-48.6328Q62.9883-50.9766 58.7891-50.9766L47.8516-50.9766Q43.7012-50.9766 41.333-48.6328Q38.9648-46.2891 38.9648-42.0898L38.9648-0.732422Q38.9648 3.41797 41.333 5.78613Q43.7012 8.1543 47.8516 8.1543ZM50.0488-33.7891Q48.584-33.7891 47.5586-34.79Q46.5332-35.791 46.5332-37.207Q46.5332-38.7207 47.5342-39.7217Q48.5352-40.7227 50.0488-40.7227L56.8359-40.7227Q58.6914-40.7227 59.4971-39.7217Q60.3027-38.7207 60.3027-37.207Q60.3027-35.791 59.3018-34.79Q58.3008-33.7891 56.8359-33.7891ZM50.0488-2.09961Q48.5352-2.09961 47.5342-3.10059Q46.5332-4.10156 46.5332-5.56641Q46.5332-7.03125 47.5586-8.05664Q48.584-9.08203 50.0488-9.08203L56.8359-9.08203Q58.3008-9.08203 59.3018-8.05664Q60.3027-7.03125 60.3027-5.56641Q60.3027-4.10156 59.3018-3.10059Q58.3008-2.09961 56.8359-2.09961ZM81.4453 8.1543L87.5 8.1543Q91.6992 8.1543 94.043 5.78613Q96.3867 3.41797 96.3867-0.732422L96.3867-69.6777Q96.3867-73.877 94.043-76.2207Q91.6992-78.5645 87.5-78.5645L81.4453-78.5645Q77.2949-78.5645 74.9268-76.2207Q72.5586-73.877 72.5586-69.6777L72.5586-0.732422Q72.5586 3.41797 74.9268 5.78613Q77.2949 8.1543 81.4453 8.1543ZM110.4 8.44727L114.258 8.10547Q118.408 7.71484 120.483 5.10254Q122.559 2.49023 122.168-1.66016L116.943-58.5449Q116.602-62.7441 113.965-64.7949Q111.328-66.8457 107.178-66.4551L103.32-66.1133Q99.1699-65.7715 97.1191-63.1348Q95.0684-60.498 95.4102-56.3477L100.635 0.537109Q101.025 4.6875 103.638 6.73828Q106.25 8.78906 110.4 8.44727Z"/>
  </g>
  <g id="Heavy-S" transform="matrix(1 0 0 1 2572.87 696)">
   <path d="M17.627 7.61719L24.4629 7.61719Q28.1738 7.61719 30.249 5.51758Q32.3242 3.41797 32.3242-0.244141L32.3242-59.375Q32.3242-63.0859 30.249-65.1611Q28.1738-67.2363 24.4629-67.2363L17.627-67.2363Q13.9648-67.2363 11.8652-65.1611Q9.76562-63.0859 9.76562-59.375L9.76562-0.244141Q9.76562 3.41797 11.8652 5.51758Q13.9648 7.61719 17.627 7.61719ZM45.0684 7.61719L57.2266 7.61719Q60.9375 7.61719 63.0127 5.51758Q65.0879 3.41797 65.0879-0.244141L65.0879-44.1406Q65.0879-47.8516 63.0127-49.9268Q60.9375-52.002 57.2266-52.002L45.0684-52.002Q41.4062-52.002 39.3066-49.9268Q37.207-47.8516 37.207-44.1406L37.207-0.244141Q37.207 3.41797 39.3066 5.51758Q41.4062 7.61719 45.0684 7.61719ZM47.7539-35.4492Q46.3379-35.4492 45.3613-36.4014Q44.3848-37.3535 44.3848-38.7207Q44.3848-40.1367 45.3369-41.0645Q46.2891-41.9922 47.7539-41.9922L54.7852-41.9922Q56.4453-41.9922 57.251-41.0645Q58.0566-40.1367 58.0566-38.7207Q58.0566-37.3535 57.1045-36.4014Q56.1523-35.4492 54.7852-35.4492ZM47.7539-2.34375Q46.2891-2.34375 45.3369-3.2959Q44.3848-4.24805 44.3848-5.66406Q44.3848-7.03125 45.3613-7.9834Q46.3379-8.93555 47.7539-8.93555L54.7852-8.93555Q56.1523-8.93555 57.1045-7.9834Q58.0566-7.03125 58.0566-5.66406Q58.0566-4.24805 57.1045-3.2959Q56.1523-2.34375 54.7852-2.34375ZM77.832 7.61719L84.8145 7.61719Q88.5742 7.61719 90.6494 5.51758Q92.7246 3.41797 92.7246-0.244141L92.7246-70.8984Q92.7246-74.6582 90.6494-76.7334Q88.5742-78.8086 84.8145-78.8086L77.832-78.8086Q74.1699-78.8086 72.0703-76.7334Q69.9707-74.6582 69.9707-70.8984L69.9707-0.244141Q69.9707 3.41797 72.0703 5.51758Q74.1699 7.61719 77.832 7.61719ZM106.348 7.86133L110.84 7.37305Q114.502 7.03125 116.357 4.71191Q118.213 2.39258 117.822-1.26953L112.012-60.0098Q111.67-63.7207 109.351-65.5518Q107.031-67.3828 103.32-66.9922L98.8281-66.5039Q95.1172-66.1621 93.3105-63.8428Q91.5039-61.5234 91.8457-57.8125L97.6562 0.878906Q97.998 4.58984 100.317 6.39648Q102.637 8.20312 106.348 7.86133Z"/>
  </g>
  <g id="Bold-S" transform="matrix(1 0 0 1 2278.58 696)">
   <path d="M16.5527 7.03125L23.6328 7.03125Q26.8066 7.03125 28.5889 5.24902Q30.3711 3.4668 30.3711 0.292969L30.3711-60.9375Q30.3711-64.1113 28.5889-65.8936Q26.8066-67.6758 23.6328-67.6758L16.5527-67.6758Q13.3789-67.6758 11.5723-65.8936Q9.76562-64.1113 9.76562-60.9375L9.76562 0.292969Q9.76562 3.4668 11.5723 5.24902Q13.3789 7.03125 16.5527 7.03125ZM41.9922 7.03125L55.4688 7.03125Q58.6914 7.03125 60.4736 5.24902Q62.2559 3.4668 62.2559 0.292969L62.2559-46.4355Q62.2559-49.6094 60.4736-51.3916Q58.6914-53.1738 55.4688-53.1738L41.9922-53.1738Q38.8184-53.1738 37.0117-51.3916Q35.2051-49.6094 35.2051-46.4355L35.2051 0.292969Q35.2051 3.4668 37.0117 5.24902Q38.8184 7.03125 41.9922 7.03125ZM45.166-37.3535Q43.8477-37.3535 42.9443-38.2324Q42.041-39.1113 42.041-40.3809Q42.041-41.6992 42.9199-42.5781Q43.7988-43.457 45.166-43.457L52.4902-43.457Q53.9551-43.457 54.7363-42.5781Q55.5176-41.6992 55.5176-40.3809Q55.5176-39.1113 54.6387-38.2324Q53.7598-37.3535 52.4902-37.3535ZM45.166-2.68555Q43.7988-2.68555 42.9199-3.56445Q42.041-4.44336 42.041-5.76172Q42.041-7.03125 42.9443-7.93457Q43.8477-8.83789 45.166-8.83789L52.4902-8.83789Q53.7598-8.83789 54.6387-7.93457Q55.5176-7.03125 55.5176-5.76172Q55.5176-4.44336 54.6387-3.56445Q53.7598-2.68555 52.4902-2.68555ZM73.8281 7.03125L81.8359 7.03125Q85.0586 7.03125 86.8408 5.24902Q88.623 3.4668 88.623 0.292969L88.623-72.3145Q88.623-75.5371 86.8408-77.3193Q85.0586-79.1016 81.8359-79.1016L73.8281-79.1016Q70.6543-79.1016 68.8721-77.3193Q67.0898-75.5371 67.0898-72.3145L67.0898 0.292969Q67.0898 3.4668 68.8721 5.24902Q70.6543 7.03125 73.8281 7.03125ZM101.807 7.27539L107.031 6.5918Q110.205 6.25 111.768 4.27246Q113.33 2.29492 112.988-0.878906L106.445-61.6211Q106.152-64.8438 104.175-66.4062Q102.197-67.9688 99.0234-67.627L93.7988-66.9434Q90.625-66.6504 89.0625-64.6484Q87.5-62.6465 87.8418-59.4727L94.3359 1.26953Q94.6777 4.44336 96.6309 6.03027Q98.584 7.61719 101.807 7.27539Z"/>
  </g>
  <g id="Semibold-S" transform="matrix(1 0 0 1 1983.55 696)">
   <path d="M15.7715 6.64062L23.0469 6.64062Q25.8789 6.64062 27.4414 5.05371Q29.0039 3.4668 29.0039 0.634766L29.0039-62.0117Q29.0039-64.8438 27.4414-66.4062Q25.8789-67.9688 23.0469-67.9688L15.7715-67.9688Q12.9395-67.9688 11.3525-66.4062Q9.76562-64.8438 9.76562-62.0117L9.76562 0.634766Q9.76562 3.4668 11.3525 5.05371Q12.9395 6.64062 15.7715 6.64062ZM39.8438 6.64062L54.248 6.64062Q57.0801 6.64062 58.667 5.05371Q60.2539 3.4668 60.2539 0.634766L60.2539-47.998Q60.2539-50.8301 58.667-52.3926Q57.0801-53.9551 54.248-53.9551L39.8438-53.9551Q37.0117-53.9551 35.4248-52.3926Q33.8379-50.8301 33.8379-47.998L33.8379 0.634766Q33.8379 3.4668 35.4248 5.05371Q37.0117 6.64062 39.8438 6.64062ZM43.3594-38.623Q42.0898-38.623 41.2354-39.4775Q40.3809-40.332 40.3809-41.5527Q40.3809-42.7734 41.2354-43.6035Q42.0898-44.4336 43.3594-44.4336L50.8789-44.4336Q52.2461-44.4336 53.0029-43.6035Q53.7598-42.7734 53.7598-41.5527Q53.7598-40.332 52.9297-39.4775Q52.0996-38.623 50.8789-38.623ZM43.3594-2.88086Q42.0898-2.88086 41.2354-3.73535Q40.3809-4.58984 40.3809-5.81055Q40.3809-7.03125 41.2354-7.86133Q42.0898-8.69141 43.3594-8.69141L50.8789-8.69141Q52.0996-8.69141 52.9297-7.86133Q53.7598-7.03125 53.7598-5.81055Q53.7598-4.58984 52.9297-3.73535Q52.0996-2.88086 50.8789-2.88086ZM71.0449 6.64062L79.7852 6.64062Q82.6172 6.64062 84.2041 5.05371Q85.791 3.4668 85.791 0.634766L85.791-73.291Q85.791-76.123 84.2041-77.6855Q82.6172-79.248 79.7852-79.248L71.0449-79.248Q68.2129-79.248 66.6504-77.6855Q65.0879-76.123 65.0879-73.291L65.0879 0.634766Q65.0879 3.4668 66.6504 5.05371Q68.2129 6.64062 71.0449 6.64062ZM98.6328 6.83594L104.346 6.05469Q107.178 5.66406 108.569 3.95508Q109.961 2.24609 109.619-0.585938L102.637-62.7441Q102.344-65.5762 100.61-66.9678Q98.877-68.3594 96.0449-68.0176L90.2832-67.2363Q87.5-66.9434 86.1328-65.1855Q84.7656-63.4277 85.0586-60.5957L92.041 1.51367Q92.334 4.3457 94.0674 5.76172Q95.8008 7.17773 98.6328 6.83594Z"/>
  </g>
  <g id="Medium-S" transform="matrix(1 0 0 1 1688.11 696)">
   <path d="M15.1855 6.29883L22.6074 6.29883Q25.1465 6.29883 26.5625 4.88281Q27.9785 3.4668 27.9785 0.927734L27.9785-62.793Q27.9785-65.3809 26.5625-66.7969Q25.1465-68.2129 22.6074-68.2129L15.1855-68.2129Q12.5977-68.2129 11.1816-66.7969Q9.76562-65.3809 9.76562-62.793L9.76562 0.927734Q9.76562 3.4668 11.1816 4.88281Q12.5977 6.29883 15.1855 6.29883ZM38.1836 6.29883L53.3203 6.29883Q55.9082 6.29883 57.3242 4.88281Q58.7402 3.4668 58.7402 0.927734L58.7402-49.1699Q58.7402-51.7578 57.3242-53.1738Q55.9082-54.5898 53.3203-54.5898L38.1836-54.5898Q35.6445-54.5898 34.2285-53.1738Q32.8125-51.7578 32.8125-49.1699L32.8125 0.927734Q32.8125 3.4668 34.2285 4.88281Q35.6445 6.29883 38.1836 6.29883ZM41.9922-39.5996Q40.7715-39.5996 39.9414-40.4297Q39.1113-41.2598 39.1113-42.4316Q39.1113-43.6035 39.9414-44.4092Q40.7715-45.2148 41.9922-45.2148L49.6582-45.2148Q50.9277-45.2148 51.6846-44.4092Q52.4414-43.6035 52.4414-42.4316Q52.4414-41.2598 51.6357-40.4297Q50.8301-39.5996 49.6582-39.5996ZM41.9922-3.02734Q40.7715-3.02734 39.9414-3.83301Q39.1113-4.63867 39.1113-5.85938Q39.1113-7.03125 39.9414-7.83691Q40.7715-8.64258 41.9922-8.64258L49.6582-8.64258Q50.8301-8.64258 51.6357-7.83691Q52.4414-7.03125 52.4414-5.85938Q52.4414-4.63867 51.6357-3.83301Q50.8301-3.02734 49.6582-3.02734ZM68.9453 6.29883L78.2227 6.29883Q80.8105 6.29883 82.2266 4.88281Q83.6426 3.4668 83.6426 0.927734L83.6426-74.0234Q83.6426-76.5625 82.2266-77.9785Q80.8105-79.3945 78.2227-79.3945L68.9453-79.3945Q66.3574-79.3945 64.9414-77.9785Q63.5254-76.5625 63.5254-74.0234L63.5254 0.927734Q63.5254 3.4668 64.9414 4.88281Q66.3574 6.29883 68.9453 6.29883ZM96.2891 6.49414L102.344 5.61523Q104.932 5.27344 106.152 3.71094Q107.373 2.14844 107.08-0.390625L99.707-63.5742Q99.4629-66.1621 97.9004-67.4316Q96.3379-68.7012 93.75-68.3594L87.6465-67.4805Q85.1074-67.1875 83.8867-65.6006Q82.666-64.0137 82.959-61.4746L90.2832 1.75781Q90.5762 4.29688 92.1387 5.56641Q93.7012 6.83594 96.2891 6.49414Z"/>
  </g>
  <g id="Regular-S" transform="matrix(1 0 0 1 1393.06 696)">
   <path d="M14.4043 5.9082L22.0215 5.9082Q24.2188 5.9082 25.4395 4.6875Q26.6602 3.4668 26.6602 1.26953L26.6602-63.8672Q26.6602-66.0645 25.4395-67.2852Q24.2188-68.5059 22.0215-68.5059L14.4043-68.5059Q12.207-68.5059 10.9863-67.2852Q9.76562-66.0645 9.76562-63.8672L9.76562 1.26953Q9.76562 3.4668 10.9863 4.6875Q12.207 5.9082 14.4043 5.9082ZM36.084 5.9082L52.0996 5.9082Q54.3457 5.9082 55.5664 4.6875Q56.7871 3.4668 56.7871 1.26953L56.7871-50.7324Q56.7871-52.9297 55.5664-54.1504Q54.3457-55.3711 52.0996-55.3711L36.084-55.3711Q33.8867-55.3711 32.666-54.1504Q31.4453-52.9297 31.4453-50.7324L31.4453 1.26953Q31.4453 3.4668 32.666 4.6875Q33.8867 5.9082 36.084 5.9082ZM40.2344-40.8691Q39.0625-40.8691 38.2812-41.6504Q37.5-42.4316 37.5-43.5547Q37.5-44.6777 38.2812-45.4346Q39.0625-46.1914 40.2344-46.1914L48.0957-46.1914Q49.2188-46.1914 49.9756-45.4346Q50.7324-44.6777 50.7324-43.5547Q50.7324-42.4316 49.9756-41.6504Q49.2188-40.8691 48.0957-40.8691ZM40.2344-3.22266Q39.0625-3.22266 38.2812-4.00391Q37.5-4.78516 37.5-5.9082Q37.5-7.03125 38.2812-7.78809Q39.0625-8.54492 40.2344-8.54492L48.0957-8.54492Q49.2188-8.54492 49.9756-7.78809Q50.7324-7.03125 50.7324-5.9082Q50.7324-4.78516 49.9756-4.00391Q49.2188-3.22266 48.0957-3.22266ZM66.2109 5.9082L76.1719 5.9082Q78.418 5.9082 79.6387 4.6875Q80.8594 3.4668 80.8594 1.26953L80.8594-74.9512Q80.8594-77.1484 79.6387-78.3691Q78.418-79.5898 76.1719-79.5898L66.2109-79.5898Q63.9648-79.5898 62.7686-78.3691Q61.5723-77.1484 61.5723-74.9512L61.5723 1.26953Q61.5723 3.4668 62.7686 4.6875Q63.9648 5.9082 66.2109 5.9082ZM93.1641 6.05469L99.7559 5.07812Q101.953 4.73633 103.003 3.41797Q104.053 2.09961 103.76-0.0976562L95.9473-64.6973Q95.7031-66.8945 94.3848-67.9932Q93.0664-69.0918 90.8203-68.75L84.2285-67.7734Q82.0312-67.4805 80.9814-66.1377Q79.9316-64.7949 80.2246-62.5977L88.0371 2.00195Q88.2812 4.19922 89.5996 5.29785Q90.918 6.39648 93.1641 6.05469Z"/>
  </g>
  <g id="Light-S" transform="matrix(1 0 0 1 1098.67 696)">
   <path d="M14.502 5.66406L21.4355 5.66406Q23.7305 5.66406 24.9512 4.41895Q26.1719 3.17383 26.1719 0.927734L26.1719-63.3301Q26.1719-65.5762 24.9512-66.8213Q23.7305-68.0664 21.4355-68.0664L14.502-68.0664Q12.1582-68.0664 10.9619-66.8213Q9.76562-65.5762 9.76562-63.3301L9.76562 0.927734Q9.76562 3.17383 10.9619 4.41895Q12.1582 5.66406 14.502 5.66406ZM35.1074 5.66406L50.2441 5.66406Q52.5879 5.66406 53.7842 4.41895Q54.9805 3.17383 54.9805 0.927734L54.9805-50.3418Q54.9805-52.5879 53.7842-53.833Q52.5879-55.0781 50.2441-55.0781L35.1074-55.0781Q32.7637-55.0781 31.5674-53.833Q30.3711-52.5879 30.3711-50.3418L30.3711 0.927734Q30.3711 3.17383 31.5674 4.41895Q32.7637 5.66406 35.1074 5.66406ZM38.4277-42.0898Q37.5-42.0898 36.8652-42.7002Q36.2305-43.3105 36.2305-44.2383Q36.2305-45.1172 36.8652-45.7275Q37.5-46.3379 38.4277-46.3379L47.0215-46.3379Q47.9004-46.3379 48.5107-45.7275Q49.1211-45.1172 49.1211-44.2383Q49.1211-43.3105 48.5107-42.7002Q47.9004-42.0898 47.0215-42.0898ZM38.4277-3.07617Q37.5-3.07617 36.8652-3.68652Q36.2305-4.29688 36.2305-5.17578Q36.2305-6.10352 36.8652-6.71387Q37.5-7.32422 38.4277-7.32422L47.0215-7.32422Q47.9004-7.32422 48.5107-6.71387Q49.1211-6.10352 49.1211-5.17578Q49.1211-4.29688 48.5107-3.68652Q47.9004-3.07617 47.0215-3.07617ZM63.9648 5.66406L72.9004 5.66406Q75.293 5.66406 76.4893 4.41895Q77.6855 3.17383 77.6855 0.927734L77.6855-73.5352Q77.6855-75.7812 76.4893-77.0264Q75.293-78.2715 72.9004-78.2715L63.9648-78.2715Q61.5723-78.2715 60.4004-77.0264Q59.2285-75.7812 59.2285-73.5352L59.2285 0.927734Q59.2285 3.17383 60.4004 4.41895Q61.5723 5.66406 63.9648 5.66406ZM89.209 5.85938L94.9707 5.07812Q97.3145 4.78516 98.3643 3.44238Q99.4141 2.09961 99.1211-0.195312L92.1875-62.7441Q91.9434-64.9902 90.6494-66.1133Q89.3555-67.2363 86.9629-66.9434L81.25-66.1621Q78.9062-65.8691 77.8564-64.5264Q76.8066-63.1836 77.0508-60.9375L84.0332 1.66016Q84.2773 3.90625 85.5713 5.00488Q86.8652 6.10352 89.209 5.85938Z"/>
  </g>
  <g id="Thin-S" transform="matrix(1 0 0 1 805.006 696)">
   <path d="M14.6484 5.32227L20.6055 5.32227Q23.1445 5.32227 24.3164 4.05273Q25.4883 2.7832 25.4883 0.439453L25.4883-62.5977Q25.4883-64.9902 24.3164-66.2354Q23.1445-67.4805 20.6055-67.4805L14.6484-67.4805Q12.1582-67.4805 10.9619-66.2354Q9.76562-64.9902 9.76562-62.5977L9.76562 0.439453Q9.76562 2.7832 10.9619 4.05273Q12.1582 5.32227 14.6484 5.32227ZM33.8379 5.32227L47.7539 5.32227Q50.2441 5.32227 51.4404 4.05273Q52.6367 2.7832 52.6367 0.439453L52.6367-49.8047Q52.6367-52.1484 51.4404-53.418Q50.2441-54.6875 47.7539-54.6875L33.8379-54.6875Q31.2988-54.6875 30.1025-53.418Q28.9062-52.1484 28.9062-49.8047L28.9062 0.439453Q28.9062 2.7832 30.1025 4.05273Q31.2988 5.32227 33.8379 5.32227ZM36.0352-43.7012Q35.4004-43.7012 34.9854-44.0918Q34.5703-44.4824 34.5703-45.1172Q34.5703-45.7031 34.9854-46.0938Q35.4004-46.4844 36.0352-46.4844L45.5566-46.4844Q46.1914-46.4844 46.6064-46.0938Q47.0215-45.7031 47.0215-45.1172Q47.0215-44.4824 46.6064-44.0918Q46.1914-43.7012 45.5566-43.7012ZM36.0352-2.83203Q35.4004-2.83203 34.9854-3.24707Q34.5703-3.66211 34.5703-4.24805Q34.5703-4.83398 34.9854-5.24902Q35.4004-5.66406 36.0352-5.66406L45.5566-5.66406Q46.1914-5.66406 46.6064-5.24902Q47.0215-4.83398 47.0215-4.24805Q47.0215-3.66211 46.6064-3.24707Q46.1914-2.83203 45.5566-2.83203ZM60.9863 5.32227L68.6035 5.32227Q71.1914 5.32227 72.3633 4.05273Q73.5352 2.7832 73.5352 0.439453L73.5352-71.6309Q73.5352-74.0234 72.3633-75.2686Q71.1914-76.5137 68.6035-76.5137L60.9863-76.5137Q58.4473-76.5137 57.2754-75.2686Q56.1035-74.0234 56.1035-71.6309L56.1035 0.439453Q56.1035 2.7832 57.2754 4.05273Q58.4473 5.32227 60.9863 5.32227ZM83.9844 5.56641L88.623 5.07812Q91.1133 4.83398 92.1875 3.44238Q93.2617 2.05078 93.0176-0.292969L87.207-60.1074Q86.9629-62.5 85.6934-63.6475Q84.4238-64.7949 81.8359-64.5508L77.2461-64.0625Q74.707-63.7695 73.6572-62.4023Q72.6074-61.0352 72.8516-58.7402L78.6621 1.17188Q78.9062 3.51562 80.1758 4.63867Q81.4453 5.76172 83.9844 5.56641Z"/>
  </g>
  <g id="Ultralight-S" transform="matrix(1 0 0 1 509.882 696)">
   <path d="M14.7461 5.17578L20.2148 5.17578Q22.8027 5.17578 23.9746 3.88184Q25.1465 2.58789 25.1465 0.195312L25.1465-62.2559Q25.1465-64.6484 23.9746-65.918Q22.8027-67.1875 20.2148-67.1875L14.7461-67.1875Q12.1094-67.1875 10.9375-65.918Q9.76562-64.6484 9.76562-62.2559L9.76562 0.195312Q9.76562 2.58789 10.9375 3.88184Q12.1094 5.17578 14.7461 5.17578ZM33.1543 5.17578L46.4844 5.17578Q49.0723 5.17578 50.2441 3.88184Q51.416 2.58789 51.416 0.195312L51.416-49.5117Q51.416-51.9531 50.2441-53.2227Q49.0723-54.4922 46.4844-54.4922L33.1543-54.4922Q30.5176-54.4922 29.3457-53.2227Q28.1738-51.9531 28.1738-49.5117L28.1738 0.195312Q28.1738 2.58789 29.3457 3.88184Q30.5176 5.17578 33.1543 5.17578ZM34.7656-44.4824Q34.3262-44.4824 34.0088-44.7998Q33.6914-45.1172 33.6914-45.5566Q33.6914-45.9961 34.0088-46.2891Q34.3262-46.582 34.7656-46.582L44.8242-46.582Q45.3125-46.582 45.6299-46.2891Q45.9473-45.9961 45.9473-45.5566Q45.9473-45.1172 45.6299-44.7998Q45.3125-44.4824 44.8242-44.4824ZM34.7656-2.73438Q34.3262-2.73438 34.0088-3.02734Q33.6914-3.32031 33.6914-3.75977Q33.6914-4.19922 34.0088-4.5166Q34.3262-4.83398 34.7656-4.83398L44.8242-4.83398Q45.3125-4.83398 45.6299-4.5166Q45.9473-4.19922 45.9473-3.75977Q45.9473-3.32031 45.6299-3.02734Q45.3125-2.73438 44.8242-2.73438ZM59.4238 5.17578L66.4062 5.17578Q69.043 5.17578 70.2148 3.88184Q71.3867 2.58789 71.3867 0.195312L71.3867-70.7031Q71.3867-73.0957 70.2148-74.3652Q69.043-75.6348 66.4062-75.6348L59.4238-75.6348Q56.8359-75.6348 55.6641-74.3652Q54.4922-73.0957 54.4922-70.7031L54.4922 0.195312Q54.4922 2.58789 55.6641 3.88184Q56.8359 5.17578 59.4238 5.17578ZM81.2988 5.41992L85.3516 5.07812Q87.9883 4.88281 89.0381 3.4668Q90.0879 2.05078 89.8438-0.341797L84.668-58.7891Q84.4238-61.2305 83.1543-62.4023Q81.8848-63.5742 79.248-63.2812L75.2441-62.9395Q72.6074-62.6953 71.5576-61.3037Q70.5078-59.9121 70.7031-57.6172L75.9766 0.927734Q76.2207 3.27148 77.4658 4.41895Q78.7109 5.56641 81.2988 5.41992Z"/>
  </g>
 </g>
</svg>
